G75*
%MOIN*%
%OFA0B0*%
%FSLAX25Y25*%
%IPPOS*%
%LPD*%
%AMOC8*
5,1,8,0,0,1.08239X$1,22.5*
%
%ADD10C,0.13055*%
%ADD11C,0.04134*%
%ADD12C,0.15748*%
%ADD13OC8,0.01969*%
%ADD14C,0.00500*%
%ADD15C,0.01000*%
%ADD16C,0.00600*%
D10*
X0065685Y0197850D03*
X0117417Y0197850D03*
D11*
X0088323Y0157260D03*
X0068323Y0147260D03*
X0118323Y0147260D03*
D12*
X0121079Y0172260D03*
X0062024Y0130921D03*
X0121079Y0081709D03*
D13*
X0118323Y0091945D03*
X0115567Y0091945D03*
X0112811Y0091945D03*
X0110055Y0091945D03*
X0105528Y0095882D03*
X0105528Y0098638D03*
X0102969Y0104937D03*
X0102969Y0107299D03*
X0102969Y0109661D03*
X0108087Y0112417D03*
X0108874Y0115567D03*
X0104937Y0121866D03*
X0112024Y0130528D03*
X0108874Y0135252D03*
X0095488Y0111630D03*
X0093913Y0113598D03*
X0092339Y0111630D03*
X0093913Y0109661D03*
X0093913Y0104937D03*
X0092339Y0102969D03*
X0093913Y0101000D03*
X0095488Y0102969D03*
X0089189Y0119110D03*
X0089189Y0121866D03*
X0082890Y0126197D03*
X0082890Y0128953D03*
X0082890Y0131709D03*
X0082890Y0134465D03*
X0080134Y0115567D03*
X0077378Y0115567D03*
X0074622Y0115567D03*
X0071866Y0115567D03*
X0069504Y0120685D03*
X0071866Y0099031D03*
X0074622Y0099031D03*
X0077378Y0099031D03*
X0076197Y0094307D03*
X0080134Y0099031D03*
X0087614Y0087614D03*
X0091551Y0087614D03*
X0097063Y0082890D03*
X0099819Y0082890D03*
X0105724Y0075803D03*
X0105724Y0073047D03*
X0108480Y0073047D03*
X0108480Y0075803D03*
X0111236Y0076984D03*
X0111236Y0074228D03*
X0107890Y0063598D03*
X0113598Y0057890D03*
X0121472Y0067142D03*
X0124425Y0057890D03*
X0098638Y0063598D03*
X0093126Y0057890D03*
X0085252Y0067142D03*
X0082496Y0071472D03*
X0078953Y0075016D03*
X0082299Y0057890D03*
X0077772Y0054543D03*
X0066748Y0058480D03*
X0063205Y0058874D03*
X0057693Y0055331D03*
X0057693Y0062417D03*
X0057693Y0077772D03*
X0063205Y0082102D03*
X0066748Y0082102D03*
X0057693Y0085646D03*
X0110055Y0103756D03*
X0111433Y0101591D03*
X0112811Y0103756D03*
X0114386Y0101787D03*
X0126197Y0109268D03*
X0069504Y0184858D03*
X0056906Y0184858D03*
D14*
X0053631Y0066561D02*
X0055600Y0064593D01*
X0055600Y0062070D01*
X0056227Y0061443D01*
X0056600Y0060542D01*
X0056600Y0053631D01*
X0078578Y0053631D01*
X0078578Y0065587D01*
X0079720Y0066730D01*
X0086413Y0073422D01*
X0129471Y0073422D01*
X0129471Y0187226D01*
X0053631Y0187226D01*
X0053631Y0066561D01*
X0053631Y0066803D02*
X0079794Y0066803D01*
X0079295Y0066305D02*
X0053887Y0066305D01*
X0054386Y0065806D02*
X0078797Y0065806D01*
X0078578Y0065308D02*
X0054884Y0065308D01*
X0055383Y0064809D02*
X0078578Y0064809D01*
X0078578Y0064311D02*
X0055600Y0064311D01*
X0055600Y0063812D02*
X0078578Y0063812D01*
X0078578Y0063314D02*
X0055600Y0063314D01*
X0055600Y0062815D02*
X0078578Y0062815D01*
X0078578Y0062317D02*
X0055600Y0062317D01*
X0055851Y0061818D02*
X0078578Y0061818D01*
X0078578Y0061320D02*
X0056278Y0061320D01*
X0056484Y0060821D02*
X0078578Y0060821D01*
X0078578Y0060323D02*
X0056600Y0060323D01*
X0056600Y0059824D02*
X0078578Y0059824D01*
X0078578Y0059326D02*
X0056600Y0059326D01*
X0056600Y0058827D02*
X0078578Y0058827D01*
X0078578Y0058329D02*
X0056600Y0058329D01*
X0056600Y0057830D02*
X0078578Y0057830D01*
X0078578Y0057332D02*
X0056600Y0057332D01*
X0056600Y0056833D02*
X0078578Y0056833D01*
X0078578Y0056335D02*
X0056600Y0056335D01*
X0056600Y0055836D02*
X0078578Y0055836D01*
X0078578Y0055338D02*
X0056600Y0055338D01*
X0056600Y0054839D02*
X0078578Y0054839D01*
X0078578Y0054341D02*
X0056600Y0054341D01*
X0056600Y0053842D02*
X0078578Y0053842D01*
X0081315Y0053842D02*
X0127703Y0053842D01*
X0127703Y0053431D02*
X0081315Y0053431D01*
X0081315Y0064386D01*
X0087614Y0070685D01*
X0129671Y0070685D01*
X0129671Y0066478D01*
X0127703Y0064510D01*
X0127703Y0053431D01*
X0127703Y0054341D02*
X0081315Y0054341D01*
X0081315Y0054839D02*
X0127703Y0054839D01*
X0127703Y0055338D02*
X0081315Y0055338D01*
X0081315Y0055836D02*
X0127703Y0055836D01*
X0127703Y0056335D02*
X0081315Y0056335D01*
X0081315Y0056833D02*
X0127703Y0056833D01*
X0127703Y0057332D02*
X0081315Y0057332D01*
X0081315Y0057830D02*
X0127703Y0057830D01*
X0127703Y0058329D02*
X0081315Y0058329D01*
X0081315Y0058827D02*
X0127703Y0058827D01*
X0127703Y0059326D02*
X0081315Y0059326D01*
X0081315Y0059824D02*
X0127703Y0059824D01*
X0127703Y0060323D02*
X0081315Y0060323D01*
X0081315Y0060821D02*
X0127703Y0060821D01*
X0127703Y0061320D02*
X0081315Y0061320D01*
X0081315Y0061818D02*
X0127703Y0061818D01*
X0127703Y0062317D02*
X0081315Y0062317D01*
X0081315Y0062815D02*
X0127703Y0062815D01*
X0127703Y0063314D02*
X0081315Y0063314D01*
X0081315Y0063812D02*
X0127703Y0063812D01*
X0127703Y0064311D02*
X0081315Y0064311D01*
X0081739Y0064809D02*
X0128002Y0064809D01*
X0128501Y0065308D02*
X0082237Y0065308D01*
X0082736Y0065806D02*
X0128999Y0065806D01*
X0129498Y0066305D02*
X0083234Y0066305D01*
X0083733Y0066803D02*
X0129671Y0066803D01*
X0129671Y0067302D02*
X0084231Y0067302D01*
X0084730Y0067801D02*
X0129671Y0067801D01*
X0129671Y0068299D02*
X0085228Y0068299D01*
X0085727Y0068798D02*
X0129671Y0068798D01*
X0129671Y0069296D02*
X0086225Y0069296D01*
X0086724Y0069795D02*
X0129671Y0069795D01*
X0129671Y0070293D02*
X0087222Y0070293D01*
X0085277Y0072287D02*
X0053631Y0072287D01*
X0053631Y0071789D02*
X0084779Y0071789D01*
X0084280Y0071290D02*
X0053631Y0071290D01*
X0053631Y0070792D02*
X0083782Y0070792D01*
X0083283Y0070293D02*
X0053631Y0070293D01*
X0053631Y0069795D02*
X0082785Y0069795D01*
X0082286Y0069296D02*
X0053631Y0069296D01*
X0053631Y0068798D02*
X0081788Y0068798D01*
X0081289Y0068299D02*
X0053631Y0068299D01*
X0053631Y0067801D02*
X0080791Y0067801D01*
X0080292Y0067302D02*
X0053631Y0067302D01*
X0053631Y0072786D02*
X0085776Y0072786D01*
X0086274Y0073284D02*
X0053631Y0073284D01*
X0053631Y0073783D02*
X0129471Y0073783D01*
X0129471Y0074281D02*
X0053631Y0074281D01*
X0053631Y0074780D02*
X0129471Y0074780D01*
X0129471Y0075278D02*
X0053631Y0075278D01*
X0053631Y0075777D02*
X0129471Y0075777D01*
X0129471Y0076275D02*
X0053631Y0076275D01*
X0053631Y0076774D02*
X0129471Y0076774D01*
X0129471Y0077272D02*
X0053631Y0077272D01*
X0053631Y0077771D02*
X0129471Y0077771D01*
X0129471Y0078269D02*
X0053631Y0078269D01*
X0053631Y0078768D02*
X0129471Y0078768D01*
X0129471Y0079266D02*
X0053631Y0079266D01*
X0053631Y0079765D02*
X0129471Y0079765D01*
X0129471Y0080263D02*
X0053631Y0080263D01*
X0053631Y0080762D02*
X0129471Y0080762D01*
X0129471Y0081260D02*
X0053631Y0081260D01*
X0053631Y0081759D02*
X0129471Y0081759D01*
X0129471Y0082257D02*
X0053631Y0082257D01*
X0053631Y0082756D02*
X0129471Y0082756D01*
X0129471Y0083254D02*
X0053631Y0083254D01*
X0053631Y0083753D02*
X0129471Y0083753D01*
X0129471Y0084251D02*
X0053631Y0084251D01*
X0053631Y0084750D02*
X0129471Y0084750D01*
X0129471Y0085248D02*
X0053631Y0085248D01*
X0053631Y0085747D02*
X0129471Y0085747D01*
X0129471Y0086245D02*
X0053631Y0086245D01*
X0053631Y0086744D02*
X0129471Y0086744D01*
X0129471Y0087242D02*
X0053631Y0087242D01*
X0053631Y0087741D02*
X0129471Y0087741D01*
X0129471Y0088239D02*
X0053631Y0088239D01*
X0053631Y0088738D02*
X0090426Y0088738D01*
X0090743Y0088420D02*
X0089601Y0089562D01*
X0084051Y0095113D01*
X0063184Y0095113D01*
X0062042Y0096255D01*
X0062042Y0118737D01*
X0063184Y0119879D01*
X0084764Y0119879D01*
X0080984Y0123659D01*
X0079959Y0124685D01*
X0079959Y0136371D01*
X0080984Y0137396D01*
X0084796Y0137396D01*
X0104674Y0117517D01*
X0107381Y0117517D01*
X0107866Y0118001D01*
X0109882Y0118001D01*
X0111308Y0116575D01*
X0111308Y0114559D01*
X0109882Y0113133D01*
X0107866Y0113133D01*
X0107381Y0113617D01*
X0105900Y0113617D01*
X0105900Y0106772D01*
X0106035Y0106637D01*
X0113909Y0106637D01*
X0114905Y0105641D01*
X0117267Y0103279D01*
X0117267Y0099902D01*
X0116271Y0098906D01*
X0104814Y0098906D01*
X0103344Y0097436D01*
X0103344Y0089562D01*
X0102201Y0088420D01*
X0090743Y0088420D01*
X0089927Y0089237D02*
X0053631Y0089237D01*
X0053631Y0089735D02*
X0089429Y0089735D01*
X0088930Y0090234D02*
X0053631Y0090234D01*
X0053631Y0090732D02*
X0088431Y0090732D01*
X0087933Y0091231D02*
X0053631Y0091231D01*
X0053631Y0091729D02*
X0087434Y0091729D01*
X0086936Y0092228D02*
X0053631Y0092228D01*
X0053631Y0092726D02*
X0086437Y0092726D01*
X0085939Y0093225D02*
X0053631Y0093225D01*
X0053631Y0093723D02*
X0085440Y0093723D01*
X0084942Y0094222D02*
X0053631Y0094222D01*
X0053631Y0094720D02*
X0084443Y0094720D01*
X0092339Y0098244D02*
X0096276Y0102181D01*
X0096276Y0103756D01*
X0094307Y0105724D01*
X0093520Y0105724D01*
X0090764Y0102969D01*
X0074622Y0102969D01*
X0071079Y0099425D01*
X0071079Y0098244D01*
X0092339Y0098244D01*
X0092803Y0098708D02*
X0071079Y0098708D01*
X0071079Y0099207D02*
X0093301Y0099207D01*
X0093800Y0099705D02*
X0071359Y0099705D01*
X0071857Y0100204D02*
X0094298Y0100204D01*
X0094797Y0100702D02*
X0072356Y0100702D01*
X0072854Y0101201D02*
X0095295Y0101201D01*
X0095794Y0101699D02*
X0073353Y0101699D01*
X0073851Y0102198D02*
X0096276Y0102198D01*
X0096276Y0102696D02*
X0074350Y0102696D01*
X0074622Y0111630D02*
X0071079Y0115173D01*
X0071079Y0116354D01*
X0092339Y0116354D01*
X0096276Y0112417D01*
X0096276Y0110843D01*
X0094307Y0108874D01*
X0093520Y0108874D01*
X0090764Y0111630D01*
X0074622Y0111630D01*
X0074582Y0111670D02*
X0096276Y0111670D01*
X0096276Y0112168D02*
X0074084Y0112168D01*
X0073585Y0112667D02*
X0096026Y0112667D01*
X0095528Y0113165D02*
X0073087Y0113165D01*
X0072588Y0113664D02*
X0095029Y0113664D01*
X0094531Y0114162D02*
X0072090Y0114162D01*
X0071591Y0114661D02*
X0094032Y0114661D01*
X0093534Y0115159D02*
X0071093Y0115159D01*
X0071079Y0115658D02*
X0093035Y0115658D01*
X0092537Y0116156D02*
X0071079Y0116156D01*
X0062951Y0119646D02*
X0053631Y0119646D01*
X0053631Y0120144D02*
X0084499Y0120144D01*
X0084001Y0120643D02*
X0053631Y0120643D01*
X0053631Y0121141D02*
X0083502Y0121141D01*
X0083003Y0121640D02*
X0053631Y0121640D01*
X0053631Y0122138D02*
X0082505Y0122138D01*
X0082006Y0122637D02*
X0053631Y0122637D01*
X0053631Y0123135D02*
X0081508Y0123135D01*
X0081009Y0123634D02*
X0053631Y0123634D01*
X0053631Y0124132D02*
X0080511Y0124132D01*
X0080012Y0124631D02*
X0053631Y0124631D01*
X0053631Y0125129D02*
X0079959Y0125129D01*
X0079959Y0125628D02*
X0053631Y0125628D01*
X0053631Y0126126D02*
X0079959Y0126126D01*
X0079959Y0126625D02*
X0053631Y0126625D01*
X0053631Y0127123D02*
X0079959Y0127123D01*
X0079959Y0127622D02*
X0053631Y0127622D01*
X0053631Y0128120D02*
X0079959Y0128120D01*
X0079959Y0128619D02*
X0053631Y0128619D01*
X0053631Y0129117D02*
X0079959Y0129117D01*
X0079959Y0129616D02*
X0053631Y0129616D01*
X0053631Y0130114D02*
X0079959Y0130114D01*
X0079959Y0130613D02*
X0053631Y0130613D01*
X0053631Y0131111D02*
X0079959Y0131111D01*
X0079959Y0131610D02*
X0053631Y0131610D01*
X0053631Y0132108D02*
X0079959Y0132108D01*
X0079959Y0132607D02*
X0053631Y0132607D01*
X0053631Y0133105D02*
X0079959Y0133105D01*
X0079959Y0133604D02*
X0053631Y0133604D01*
X0053631Y0134103D02*
X0079959Y0134103D01*
X0079959Y0134601D02*
X0053631Y0134601D01*
X0053631Y0135100D02*
X0079959Y0135100D01*
X0079959Y0135598D02*
X0053631Y0135598D01*
X0053631Y0136097D02*
X0079959Y0136097D01*
X0080183Y0136595D02*
X0053631Y0136595D01*
X0053631Y0137094D02*
X0080682Y0137094D01*
X0085098Y0137094D02*
X0103237Y0137094D01*
X0103237Y0137592D02*
X0053631Y0137592D01*
X0053631Y0138091D02*
X0103237Y0138091D01*
X0103237Y0138589D02*
X0053631Y0138589D01*
X0053631Y0139088D02*
X0103237Y0139088D01*
X0103237Y0139586D02*
X0053631Y0139586D01*
X0053631Y0140085D02*
X0103094Y0140085D01*
X0103237Y0139941D02*
X0103237Y0123609D01*
X0102503Y0122874D01*
X0102503Y0120858D01*
X0103929Y0119432D01*
X0105945Y0119432D01*
X0107371Y0120858D01*
X0107371Y0122874D01*
X0106637Y0123609D01*
X0106637Y0141350D01*
X0091719Y0156268D01*
X0091840Y0156560D01*
X0091840Y0157959D01*
X0091304Y0159252D01*
X0090315Y0160241D01*
X0089022Y0160777D01*
X0087623Y0160777D01*
X0086331Y0160241D01*
X0085341Y0159252D01*
X0085220Y0158960D01*
X0077619Y0158960D01*
X0076623Y0157964D01*
X0069315Y0150656D01*
X0069022Y0150777D01*
X0067623Y0150777D01*
X0066331Y0150241D01*
X0065341Y0149252D01*
X0064806Y0147959D01*
X0064806Y0146560D01*
X0065341Y0145268D01*
X0066331Y0144278D01*
X0067623Y0143743D01*
X0069022Y0143743D01*
X0070315Y0144278D01*
X0071304Y0145268D01*
X0071840Y0146560D01*
X0071840Y0147959D01*
X0071719Y0148252D01*
X0079027Y0155560D01*
X0085220Y0155560D01*
X0085341Y0155268D01*
X0086331Y0154278D01*
X0087623Y0153743D01*
X0089022Y0153743D01*
X0089315Y0153864D01*
X0103237Y0139941D01*
X0102595Y0140583D02*
X0053631Y0140583D01*
X0053631Y0141082D02*
X0102097Y0141082D01*
X0101598Y0141580D02*
X0053631Y0141580D01*
X0053631Y0142079D02*
X0101100Y0142079D01*
X0100601Y0142577D02*
X0053631Y0142577D01*
X0053631Y0143076D02*
X0100103Y0143076D01*
X0099604Y0143574D02*
X0053631Y0143574D01*
X0053631Y0144073D02*
X0066827Y0144073D01*
X0066038Y0144571D02*
X0053631Y0144571D01*
X0053631Y0145070D02*
X0065539Y0145070D01*
X0065217Y0145568D02*
X0053631Y0145568D01*
X0053631Y0146067D02*
X0065010Y0146067D01*
X0064806Y0146565D02*
X0053631Y0146565D01*
X0053631Y0147064D02*
X0064806Y0147064D01*
X0064806Y0147562D02*
X0053631Y0147562D01*
X0053631Y0148061D02*
X0064848Y0148061D01*
X0065054Y0148559D02*
X0053631Y0148559D01*
X0053631Y0149058D02*
X0065261Y0149058D01*
X0065646Y0149556D02*
X0053631Y0149556D01*
X0053631Y0150055D02*
X0066144Y0150055D01*
X0067084Y0150553D02*
X0053631Y0150553D01*
X0053631Y0151052D02*
X0069711Y0151052D01*
X0070209Y0151550D02*
X0053631Y0151550D01*
X0053631Y0152049D02*
X0070708Y0152049D01*
X0071206Y0152547D02*
X0053631Y0152547D01*
X0053631Y0153046D02*
X0071705Y0153046D01*
X0072203Y0153544D02*
X0053631Y0153544D01*
X0053631Y0154043D02*
X0072702Y0154043D01*
X0073200Y0154541D02*
X0053631Y0154541D01*
X0053631Y0155040D02*
X0073699Y0155040D01*
X0074197Y0155539D02*
X0053631Y0155539D01*
X0053631Y0156037D02*
X0074696Y0156037D01*
X0075194Y0156536D02*
X0053631Y0156536D01*
X0053631Y0157034D02*
X0075693Y0157034D01*
X0076191Y0157533D02*
X0053631Y0157533D01*
X0053631Y0158031D02*
X0076690Y0158031D01*
X0077188Y0158530D02*
X0053631Y0158530D01*
X0053631Y0159028D02*
X0085249Y0159028D01*
X0085616Y0159527D02*
X0053631Y0159527D01*
X0053631Y0160025D02*
X0086114Y0160025D01*
X0087012Y0160524D02*
X0053631Y0160524D01*
X0053631Y0161022D02*
X0129471Y0161022D01*
X0129471Y0160524D02*
X0089634Y0160524D01*
X0090531Y0160025D02*
X0129471Y0160025D01*
X0129471Y0159527D02*
X0091030Y0159527D01*
X0091397Y0159028D02*
X0129471Y0159028D01*
X0129471Y0158530D02*
X0091604Y0158530D01*
X0091810Y0158031D02*
X0129471Y0158031D01*
X0129471Y0157533D02*
X0091840Y0157533D01*
X0091840Y0157034D02*
X0129471Y0157034D01*
X0129471Y0156536D02*
X0091829Y0156536D01*
X0091950Y0156037D02*
X0129471Y0156037D01*
X0129471Y0155539D02*
X0092448Y0155539D01*
X0092947Y0155040D02*
X0129471Y0155040D01*
X0129471Y0154541D02*
X0093445Y0154541D01*
X0093944Y0154043D02*
X0129471Y0154043D01*
X0129471Y0153544D02*
X0094442Y0153544D01*
X0094941Y0153046D02*
X0129471Y0153046D01*
X0129471Y0152547D02*
X0095439Y0152547D01*
X0095938Y0152049D02*
X0129471Y0152049D01*
X0129471Y0151550D02*
X0096436Y0151550D01*
X0096935Y0151052D02*
X0129471Y0151052D01*
X0129471Y0150553D02*
X0119562Y0150553D01*
X0119022Y0150777D02*
X0120315Y0150241D01*
X0121304Y0149252D01*
X0121840Y0147959D01*
X0121840Y0146560D01*
X0121304Y0145268D01*
X0120315Y0144278D01*
X0119022Y0143743D01*
X0117623Y0143743D01*
X0116331Y0144278D01*
X0115341Y0145268D01*
X0114806Y0146560D01*
X0114806Y0147959D01*
X0115341Y0149252D01*
X0116331Y0150241D01*
X0117623Y0150777D01*
X0119022Y0150777D01*
X0120501Y0150055D02*
X0129471Y0150055D01*
X0129471Y0149556D02*
X0121000Y0149556D01*
X0121385Y0149058D02*
X0129471Y0149058D01*
X0129471Y0148559D02*
X0121591Y0148559D01*
X0121798Y0148061D02*
X0129471Y0148061D01*
X0129471Y0147562D02*
X0121840Y0147562D01*
X0121840Y0147064D02*
X0129471Y0147064D01*
X0129471Y0146565D02*
X0121840Y0146565D01*
X0121635Y0146067D02*
X0129471Y0146067D01*
X0129471Y0145568D02*
X0121429Y0145568D01*
X0121106Y0145070D02*
X0129471Y0145070D01*
X0129471Y0144571D02*
X0120608Y0144571D01*
X0119819Y0144073D02*
X0129471Y0144073D01*
X0129471Y0143574D02*
X0104413Y0143574D01*
X0104911Y0143076D02*
X0129471Y0143076D01*
X0129471Y0142577D02*
X0105410Y0142577D01*
X0105908Y0142079D02*
X0129471Y0142079D01*
X0129471Y0141580D02*
X0106407Y0141580D01*
X0106637Y0141082D02*
X0129471Y0141082D01*
X0129471Y0140583D02*
X0106637Y0140583D01*
X0106637Y0140085D02*
X0129471Y0140085D01*
X0129471Y0139586D02*
X0106637Y0139586D01*
X0106637Y0139088D02*
X0129471Y0139088D01*
X0129471Y0138589D02*
X0106637Y0138589D01*
X0106637Y0138091D02*
X0129471Y0138091D01*
X0129471Y0137592D02*
X0106637Y0137592D01*
X0106637Y0137094D02*
X0129471Y0137094D01*
X0129471Y0136595D02*
X0106637Y0136595D01*
X0106637Y0136097D02*
X0129471Y0136097D01*
X0129471Y0135598D02*
X0106637Y0135598D01*
X0106637Y0135100D02*
X0129471Y0135100D01*
X0129471Y0134601D02*
X0106637Y0134601D01*
X0106637Y0134103D02*
X0129471Y0134103D01*
X0129471Y0133604D02*
X0106637Y0133604D01*
X0106637Y0133105D02*
X0129471Y0133105D01*
X0129471Y0132607D02*
X0106637Y0132607D01*
X0106637Y0132108D02*
X0129471Y0132108D01*
X0129471Y0131610D02*
X0106637Y0131610D01*
X0106637Y0131111D02*
X0129471Y0131111D01*
X0129471Y0130613D02*
X0106637Y0130613D01*
X0106637Y0130114D02*
X0129471Y0130114D01*
X0129471Y0129616D02*
X0106637Y0129616D01*
X0106637Y0129117D02*
X0129471Y0129117D01*
X0129471Y0128619D02*
X0106637Y0128619D01*
X0106637Y0128120D02*
X0129471Y0128120D01*
X0129471Y0127622D02*
X0106637Y0127622D01*
X0106637Y0127123D02*
X0129471Y0127123D01*
X0129471Y0126625D02*
X0106637Y0126625D01*
X0106637Y0126126D02*
X0129471Y0126126D01*
X0129471Y0125628D02*
X0106637Y0125628D01*
X0106637Y0125129D02*
X0129471Y0125129D01*
X0129471Y0124631D02*
X0106637Y0124631D01*
X0106637Y0124132D02*
X0129471Y0124132D01*
X0129471Y0123634D02*
X0106637Y0123634D01*
X0107110Y0123135D02*
X0129471Y0123135D01*
X0129471Y0122637D02*
X0107371Y0122637D01*
X0107371Y0122138D02*
X0129471Y0122138D01*
X0129471Y0121640D02*
X0107371Y0121640D01*
X0107371Y0121141D02*
X0129471Y0121141D01*
X0129471Y0120643D02*
X0107156Y0120643D01*
X0106658Y0120144D02*
X0129471Y0120144D01*
X0129471Y0119646D02*
X0106159Y0119646D01*
X0107516Y0117652D02*
X0104540Y0117652D01*
X0104041Y0118150D02*
X0129471Y0118150D01*
X0129471Y0117652D02*
X0110232Y0117652D01*
X0110730Y0117153D02*
X0129471Y0117153D01*
X0129471Y0116655D02*
X0111229Y0116655D01*
X0111308Y0116156D02*
X0129471Y0116156D01*
X0129471Y0115658D02*
X0111308Y0115658D01*
X0111308Y0115159D02*
X0129471Y0115159D01*
X0129471Y0114661D02*
X0111308Y0114661D01*
X0110912Y0114162D02*
X0129471Y0114162D01*
X0129471Y0113664D02*
X0110413Y0113664D01*
X0109915Y0113165D02*
X0129471Y0113165D01*
X0129471Y0112667D02*
X0105900Y0112667D01*
X0105900Y0113165D02*
X0107833Y0113165D01*
X0105900Y0112168D02*
X0129471Y0112168D01*
X0129471Y0111670D02*
X0105900Y0111670D01*
X0105900Y0111171D02*
X0129471Y0111171D01*
X0129471Y0110672D02*
X0105900Y0110672D01*
X0105900Y0110174D02*
X0129471Y0110174D01*
X0129471Y0109675D02*
X0105900Y0109675D01*
X0105900Y0109177D02*
X0129471Y0109177D01*
X0129471Y0108678D02*
X0105900Y0108678D01*
X0105900Y0108180D02*
X0129471Y0108180D01*
X0129471Y0107681D02*
X0105900Y0107681D01*
X0105900Y0107183D02*
X0129471Y0107183D01*
X0129471Y0106684D02*
X0105987Y0106684D01*
X0104580Y0105687D02*
X0101787Y0105687D01*
X0101787Y0106118D02*
X0104150Y0106118D01*
X0105331Y0104937D01*
X0113205Y0104937D01*
X0115567Y0102575D01*
X0115567Y0100606D01*
X0104937Y0100606D01*
X0101787Y0103756D01*
X0101787Y0106118D01*
X0101787Y0105189D02*
X0105079Y0105189D01*
X0103346Y0102198D02*
X0115567Y0102198D01*
X0115567Y0101699D02*
X0103844Y0101699D01*
X0104343Y0101201D02*
X0115567Y0101201D01*
X0115567Y0100702D02*
X0104841Y0100702D01*
X0104616Y0098708D02*
X0129471Y0098708D01*
X0129471Y0098210D02*
X0104117Y0098210D01*
X0103619Y0097711D02*
X0129471Y0097711D01*
X0129471Y0097213D02*
X0103344Y0097213D01*
X0103344Y0096714D02*
X0129471Y0096714D01*
X0129471Y0096216D02*
X0103344Y0096216D01*
X0103344Y0095717D02*
X0129471Y0095717D01*
X0129471Y0095219D02*
X0103344Y0095219D01*
X0103344Y0094720D02*
X0129471Y0094720D01*
X0129471Y0094222D02*
X0103344Y0094222D01*
X0103344Y0093723D02*
X0129471Y0093723D01*
X0129471Y0093225D02*
X0103344Y0093225D01*
X0103344Y0092726D02*
X0129471Y0092726D01*
X0129471Y0092228D02*
X0103344Y0092228D01*
X0103344Y0091729D02*
X0129471Y0091729D01*
X0129471Y0091231D02*
X0103344Y0091231D01*
X0103344Y0090732D02*
X0129471Y0090732D01*
X0129471Y0090234D02*
X0103344Y0090234D01*
X0103344Y0089735D02*
X0129471Y0089735D01*
X0129471Y0089237D02*
X0103018Y0089237D01*
X0102519Y0088738D02*
X0129471Y0088738D01*
X0129471Y0099207D02*
X0116572Y0099207D01*
X0117070Y0099705D02*
X0129471Y0099705D01*
X0129471Y0100204D02*
X0117267Y0100204D01*
X0117267Y0100702D02*
X0129471Y0100702D01*
X0129471Y0101201D02*
X0117267Y0101201D01*
X0117267Y0101699D02*
X0129471Y0101699D01*
X0129471Y0102198D02*
X0117267Y0102198D01*
X0117267Y0102696D02*
X0129471Y0102696D01*
X0129471Y0103195D02*
X0117267Y0103195D01*
X0116853Y0103693D02*
X0129471Y0103693D01*
X0129471Y0104192D02*
X0116354Y0104192D01*
X0115856Y0104690D02*
X0129471Y0104690D01*
X0129471Y0105189D02*
X0115357Y0105189D01*
X0114859Y0105687D02*
X0129471Y0105687D01*
X0129471Y0106186D02*
X0114360Y0106186D01*
X0113451Y0104690D02*
X0101787Y0104690D01*
X0101787Y0104192D02*
X0113950Y0104192D01*
X0114448Y0103693D02*
X0101850Y0103693D01*
X0102348Y0103195D02*
X0114947Y0103195D01*
X0115445Y0102696D02*
X0102847Y0102696D01*
X0096276Y0103195D02*
X0090990Y0103195D01*
X0091489Y0103693D02*
X0096276Y0103693D01*
X0095840Y0104192D02*
X0091987Y0104192D01*
X0092486Y0104690D02*
X0095341Y0104690D01*
X0094843Y0105189D02*
X0092984Y0105189D01*
X0093483Y0105687D02*
X0094344Y0105687D01*
X0094610Y0109177D02*
X0093217Y0109177D01*
X0092718Y0109675D02*
X0095109Y0109675D01*
X0095607Y0110174D02*
X0092220Y0110174D01*
X0091721Y0110672D02*
X0096106Y0110672D01*
X0096276Y0111171D02*
X0091223Y0111171D01*
X0099555Y0122637D02*
X0102503Y0122637D01*
X0102503Y0122138D02*
X0100053Y0122138D01*
X0100552Y0121640D02*
X0102503Y0121640D01*
X0102503Y0121141D02*
X0101050Y0121141D01*
X0101549Y0120643D02*
X0102718Y0120643D01*
X0103216Y0120144D02*
X0102047Y0120144D01*
X0102546Y0119646D02*
X0103715Y0119646D01*
X0103044Y0119147D02*
X0129471Y0119147D01*
X0129471Y0118649D02*
X0103543Y0118649D01*
X0104937Y0121866D02*
X0104937Y0140646D01*
X0088323Y0157260D01*
X0078323Y0157260D01*
X0068323Y0147260D01*
X0069819Y0144073D02*
X0099106Y0144073D01*
X0098607Y0144571D02*
X0070608Y0144571D01*
X0071106Y0145070D02*
X0098109Y0145070D01*
X0097610Y0145568D02*
X0071429Y0145568D01*
X0071635Y0146067D02*
X0097112Y0146067D01*
X0096613Y0146565D02*
X0071840Y0146565D01*
X0071840Y0147064D02*
X0096115Y0147064D01*
X0095616Y0147562D02*
X0071840Y0147562D01*
X0071798Y0148061D02*
X0095118Y0148061D01*
X0094619Y0148559D02*
X0072027Y0148559D01*
X0072525Y0149058D02*
X0094121Y0149058D01*
X0093622Y0149556D02*
X0073024Y0149556D01*
X0073522Y0150055D02*
X0093124Y0150055D01*
X0092625Y0150553D02*
X0074021Y0150553D01*
X0074519Y0151052D02*
X0092127Y0151052D01*
X0091628Y0151550D02*
X0075018Y0151550D01*
X0075516Y0152049D02*
X0091130Y0152049D01*
X0090631Y0152547D02*
X0076015Y0152547D01*
X0076513Y0153046D02*
X0090133Y0153046D01*
X0089634Y0153544D02*
X0077012Y0153544D01*
X0077510Y0154043D02*
X0086899Y0154043D01*
X0086067Y0154541D02*
X0078009Y0154541D01*
X0078507Y0155040D02*
X0085569Y0155040D01*
X0085229Y0155539D02*
X0079006Y0155539D01*
X0085596Y0136595D02*
X0103237Y0136595D01*
X0103237Y0136097D02*
X0086095Y0136097D01*
X0086593Y0135598D02*
X0103237Y0135598D01*
X0103237Y0135100D02*
X0087092Y0135100D01*
X0087590Y0134601D02*
X0103237Y0134601D01*
X0103237Y0134103D02*
X0088089Y0134103D01*
X0088587Y0133604D02*
X0103237Y0133604D01*
X0103237Y0133105D02*
X0089086Y0133105D01*
X0089584Y0132607D02*
X0103237Y0132607D01*
X0103237Y0132108D02*
X0090083Y0132108D01*
X0090581Y0131610D02*
X0103237Y0131610D01*
X0103237Y0131111D02*
X0091080Y0131111D01*
X0091578Y0130613D02*
X0103237Y0130613D01*
X0103237Y0130114D02*
X0092077Y0130114D01*
X0092575Y0129616D02*
X0103237Y0129616D01*
X0103237Y0129117D02*
X0093074Y0129117D01*
X0093572Y0128619D02*
X0103237Y0128619D01*
X0103237Y0128120D02*
X0094071Y0128120D01*
X0094570Y0127622D02*
X0103237Y0127622D01*
X0103237Y0127123D02*
X0095068Y0127123D01*
X0095567Y0126625D02*
X0103237Y0126625D01*
X0103237Y0126126D02*
X0096065Y0126126D01*
X0096564Y0125628D02*
X0103237Y0125628D01*
X0103237Y0125129D02*
X0097062Y0125129D01*
X0097561Y0124631D02*
X0103237Y0124631D01*
X0103237Y0124132D02*
X0098059Y0124132D01*
X0098558Y0123634D02*
X0103237Y0123634D01*
X0102764Y0123135D02*
X0099056Y0123135D01*
X0103914Y0144073D02*
X0116827Y0144073D01*
X0116038Y0144571D02*
X0103416Y0144571D01*
X0102917Y0145070D02*
X0115539Y0145070D01*
X0115217Y0145568D02*
X0102419Y0145568D01*
X0101920Y0146067D02*
X0115010Y0146067D01*
X0114806Y0146565D02*
X0101422Y0146565D01*
X0100923Y0147064D02*
X0114806Y0147064D01*
X0114806Y0147562D02*
X0100424Y0147562D01*
X0099926Y0148061D02*
X0114848Y0148061D01*
X0115054Y0148559D02*
X0099427Y0148559D01*
X0098929Y0149058D02*
X0115261Y0149058D01*
X0115646Y0149556D02*
X0098430Y0149556D01*
X0097932Y0150055D02*
X0116144Y0150055D01*
X0117084Y0150553D02*
X0097433Y0150553D01*
X0129471Y0161521D02*
X0053631Y0161521D01*
X0053631Y0162019D02*
X0129471Y0162019D01*
X0129471Y0162518D02*
X0053631Y0162518D01*
X0053631Y0163016D02*
X0129471Y0163016D01*
X0129471Y0163515D02*
X0053631Y0163515D01*
X0053631Y0164013D02*
X0129471Y0164013D01*
X0129471Y0164512D02*
X0053631Y0164512D01*
X0053631Y0165010D02*
X0129471Y0165010D01*
X0129471Y0165509D02*
X0053631Y0165509D01*
X0053631Y0166007D02*
X0129471Y0166007D01*
X0129471Y0166506D02*
X0053631Y0166506D01*
X0053631Y0167004D02*
X0129471Y0167004D01*
X0129471Y0167503D02*
X0053631Y0167503D01*
X0053631Y0168001D02*
X0129471Y0168001D01*
X0129471Y0168500D02*
X0053631Y0168500D01*
X0053631Y0168998D02*
X0129471Y0168998D01*
X0129471Y0169497D02*
X0053631Y0169497D01*
X0053631Y0169995D02*
X0129471Y0169995D01*
X0129471Y0170494D02*
X0053631Y0170494D01*
X0053631Y0170992D02*
X0129471Y0170992D01*
X0129471Y0171491D02*
X0053631Y0171491D01*
X0053631Y0171989D02*
X0129471Y0171989D01*
X0129471Y0172488D02*
X0053631Y0172488D01*
X0053631Y0172986D02*
X0129471Y0172986D01*
X0129471Y0173485D02*
X0053631Y0173485D01*
X0053631Y0173983D02*
X0129471Y0173983D01*
X0129471Y0174482D02*
X0053631Y0174482D01*
X0053631Y0174980D02*
X0129471Y0174980D01*
X0129471Y0175479D02*
X0053631Y0175479D01*
X0053631Y0175977D02*
X0129471Y0175977D01*
X0129471Y0176476D02*
X0053631Y0176476D01*
X0053631Y0176974D02*
X0129471Y0176974D01*
X0129471Y0177473D02*
X0053631Y0177473D01*
X0053631Y0177972D02*
X0129471Y0177972D01*
X0129471Y0178470D02*
X0053631Y0178470D01*
X0053631Y0178969D02*
X0129471Y0178969D01*
X0129471Y0179467D02*
X0053631Y0179467D01*
X0053631Y0179966D02*
X0129471Y0179966D01*
X0129471Y0180464D02*
X0053631Y0180464D01*
X0053631Y0180963D02*
X0129471Y0180963D01*
X0129471Y0181461D02*
X0053631Y0181461D01*
X0053631Y0181960D02*
X0129471Y0181960D01*
X0129471Y0182458D02*
X0053631Y0182458D01*
X0053631Y0182957D02*
X0129471Y0182957D01*
X0129471Y0183455D02*
X0053631Y0183455D01*
X0053631Y0183954D02*
X0129471Y0183954D01*
X0129471Y0184452D02*
X0053631Y0184452D01*
X0053631Y0184951D02*
X0129471Y0184951D01*
X0129471Y0185449D02*
X0053631Y0185449D01*
X0053631Y0185948D02*
X0129471Y0185948D01*
X0129471Y0186446D02*
X0053631Y0186446D01*
X0053631Y0186945D02*
X0129471Y0186945D01*
X0062452Y0119147D02*
X0053631Y0119147D01*
X0053631Y0118649D02*
X0062042Y0118649D01*
X0062042Y0118150D02*
X0053631Y0118150D01*
X0053631Y0117652D02*
X0062042Y0117652D01*
X0062042Y0117153D02*
X0053631Y0117153D01*
X0053631Y0116655D02*
X0062042Y0116655D01*
X0062042Y0116156D02*
X0053631Y0116156D01*
X0053631Y0115658D02*
X0062042Y0115658D01*
X0062042Y0115159D02*
X0053631Y0115159D01*
X0053631Y0114661D02*
X0062042Y0114661D01*
X0062042Y0114162D02*
X0053631Y0114162D01*
X0053631Y0113664D02*
X0062042Y0113664D01*
X0062042Y0113165D02*
X0053631Y0113165D01*
X0053631Y0112667D02*
X0062042Y0112667D01*
X0062042Y0112168D02*
X0053631Y0112168D01*
X0053631Y0111670D02*
X0062042Y0111670D01*
X0062042Y0111171D02*
X0053631Y0111171D01*
X0053631Y0110672D02*
X0062042Y0110672D01*
X0062042Y0110174D02*
X0053631Y0110174D01*
X0053631Y0109675D02*
X0062042Y0109675D01*
X0062042Y0109177D02*
X0053631Y0109177D01*
X0053631Y0108678D02*
X0062042Y0108678D01*
X0062042Y0108180D02*
X0053631Y0108180D01*
X0053631Y0107681D02*
X0062042Y0107681D01*
X0062042Y0107183D02*
X0053631Y0107183D01*
X0053631Y0106684D02*
X0062042Y0106684D01*
X0062042Y0106186D02*
X0053631Y0106186D01*
X0053631Y0105687D02*
X0062042Y0105687D01*
X0062042Y0105189D02*
X0053631Y0105189D01*
X0053631Y0104690D02*
X0062042Y0104690D01*
X0062042Y0104192D02*
X0053631Y0104192D01*
X0053631Y0103693D02*
X0062042Y0103693D01*
X0062042Y0103195D02*
X0053631Y0103195D01*
X0053631Y0102696D02*
X0062042Y0102696D01*
X0062042Y0102198D02*
X0053631Y0102198D01*
X0053631Y0101699D02*
X0062042Y0101699D01*
X0062042Y0101201D02*
X0053631Y0101201D01*
X0053631Y0100702D02*
X0062042Y0100702D01*
X0062042Y0100204D02*
X0053631Y0100204D01*
X0053631Y0099705D02*
X0062042Y0099705D01*
X0062042Y0099207D02*
X0053631Y0099207D01*
X0053631Y0098708D02*
X0062042Y0098708D01*
X0062042Y0098210D02*
X0053631Y0098210D01*
X0053631Y0097711D02*
X0062042Y0097711D01*
X0062042Y0097213D02*
X0053631Y0097213D01*
X0053631Y0096714D02*
X0062042Y0096714D01*
X0062082Y0096216D02*
X0053631Y0096216D01*
X0053631Y0095717D02*
X0062580Y0095717D01*
X0063079Y0095219D02*
X0053631Y0095219D01*
D15*
X0102969Y0109661D02*
X0102969Y0114780D01*
X0103756Y0115567D01*
X0108874Y0115567D01*
X0116917Y0190223D02*
X0116917Y0197350D01*
X0117917Y0197350D01*
X0117917Y0190223D01*
X0118909Y0190353D01*
X0119874Y0190612D01*
X0120798Y0190995D01*
X0121664Y0191495D01*
X0122457Y0192103D01*
X0123164Y0192810D01*
X0123773Y0193604D01*
X0124273Y0194470D01*
X0124656Y0195393D01*
X0124914Y0196359D01*
X0125045Y0197350D01*
X0117917Y0197350D01*
X0117917Y0198350D01*
X0125045Y0198350D01*
X0124914Y0199342D01*
X0124656Y0200307D01*
X0124273Y0201231D01*
X0123773Y0202097D01*
X0123164Y0202890D01*
X0122457Y0203597D01*
X0121664Y0204206D01*
X0120798Y0204706D01*
X0119874Y0205089D01*
X0118909Y0205347D01*
X0117917Y0205478D01*
X0117917Y0198350D01*
X0116917Y0198350D01*
X0116917Y0197350D01*
X0109790Y0197350D01*
X0109920Y0196359D01*
X0110179Y0195393D01*
X0110562Y0194470D01*
X0111062Y0193604D01*
X0111670Y0192810D01*
X0112377Y0192103D01*
X0113171Y0191495D01*
X0114036Y0190995D01*
X0114960Y0190612D01*
X0115926Y0190353D01*
X0116917Y0190223D01*
X0116917Y0190717D02*
X0117917Y0190717D01*
X0117917Y0191716D02*
X0116917Y0191716D01*
X0116917Y0192714D02*
X0117917Y0192714D01*
X0117917Y0193713D02*
X0116917Y0193713D01*
X0116917Y0194711D02*
X0117917Y0194711D01*
X0117917Y0195710D02*
X0116917Y0195710D01*
X0116917Y0196708D02*
X0117917Y0196708D01*
X0117917Y0197707D02*
X0128421Y0197707D01*
X0128421Y0198705D02*
X0124998Y0198705D01*
X0124817Y0199704D02*
X0128421Y0199704D01*
X0128421Y0200702D02*
X0124492Y0200702D01*
X0124002Y0201701D02*
X0128421Y0201701D01*
X0128421Y0202699D02*
X0123311Y0202699D01*
X0122326Y0203698D02*
X0128421Y0203698D01*
X0128421Y0204696D02*
X0120815Y0204696D01*
X0117917Y0204696D02*
X0116917Y0204696D01*
X0116917Y0205478D02*
X0115926Y0205347D01*
X0114960Y0205089D01*
X0114036Y0204706D01*
X0113171Y0204206D01*
X0112377Y0203597D01*
X0111670Y0202890D01*
X0111062Y0202097D01*
X0110562Y0201231D01*
X0110179Y0200307D01*
X0109920Y0199342D01*
X0109790Y0198350D01*
X0116917Y0198350D01*
X0116917Y0205478D01*
X0116917Y0203698D02*
X0117917Y0203698D01*
X0117917Y0202699D02*
X0116917Y0202699D01*
X0116917Y0201701D02*
X0117917Y0201701D01*
X0117917Y0200702D02*
X0116917Y0200702D01*
X0116917Y0199704D02*
X0117917Y0199704D01*
X0117917Y0198705D02*
X0116917Y0198705D01*
X0116917Y0197707D02*
X0066185Y0197707D01*
X0066185Y0197350D02*
X0066185Y0198350D01*
X0073313Y0198350D01*
X0073182Y0199342D01*
X0072923Y0200307D01*
X0072541Y0201231D01*
X0072041Y0202097D01*
X0071432Y0202890D01*
X0070725Y0203597D01*
X0069932Y0204206D01*
X0069066Y0204706D01*
X0068142Y0205089D01*
X0067176Y0205347D01*
X0066185Y0205478D01*
X0066185Y0198350D01*
X0065185Y0198350D01*
X0065185Y0197350D01*
X0066185Y0197350D01*
X0066185Y0190223D01*
X0067176Y0190353D01*
X0068142Y0190612D01*
X0069066Y0190995D01*
X0069932Y0191495D01*
X0070725Y0192103D01*
X0071432Y0192810D01*
X0072041Y0193604D01*
X0072541Y0194470D01*
X0072923Y0195393D01*
X0073182Y0196359D01*
X0073313Y0197350D01*
X0066185Y0197350D01*
X0066185Y0196708D02*
X0065185Y0196708D01*
X0065185Y0197350D02*
X0065185Y0190223D01*
X0064194Y0190353D01*
X0063228Y0190612D01*
X0062304Y0190995D01*
X0061438Y0191495D01*
X0060645Y0192103D01*
X0059938Y0192810D01*
X0059329Y0193604D01*
X0058829Y0194470D01*
X0058447Y0195393D01*
X0058188Y0196359D01*
X0058057Y0197350D01*
X0065185Y0197350D01*
X0065185Y0197707D02*
X0054681Y0197707D01*
X0054681Y0198705D02*
X0058104Y0198705D01*
X0058057Y0198350D02*
X0065185Y0198350D01*
X0065185Y0205478D01*
X0064194Y0205347D01*
X0063228Y0205089D01*
X0062304Y0204706D01*
X0061438Y0204206D01*
X0060645Y0203597D01*
X0059938Y0202890D01*
X0059329Y0202097D01*
X0058829Y0201231D01*
X0058447Y0200307D01*
X0058188Y0199342D01*
X0058057Y0198350D01*
X0058285Y0199704D02*
X0054681Y0199704D01*
X0054681Y0200702D02*
X0058610Y0200702D01*
X0059101Y0201701D02*
X0054681Y0201701D01*
X0054681Y0202699D02*
X0059791Y0202699D01*
X0060776Y0203698D02*
X0054681Y0203698D01*
X0054681Y0204696D02*
X0062287Y0204696D01*
X0065185Y0204696D02*
X0066185Y0204696D01*
X0066185Y0203698D02*
X0065185Y0203698D01*
X0065185Y0202699D02*
X0066185Y0202699D01*
X0066185Y0201701D02*
X0065185Y0201701D01*
X0065185Y0200702D02*
X0066185Y0200702D01*
X0066185Y0199704D02*
X0065185Y0199704D01*
X0065185Y0198705D02*
X0066185Y0198705D01*
X0066185Y0195710D02*
X0065185Y0195710D01*
X0065185Y0194711D02*
X0066185Y0194711D01*
X0066185Y0193713D02*
X0065185Y0193713D01*
X0065185Y0192714D02*
X0066185Y0192714D01*
X0066185Y0191716D02*
X0065185Y0191716D01*
X0065185Y0190717D02*
X0066185Y0190717D01*
X0068396Y0190717D02*
X0114707Y0190717D01*
X0112883Y0191716D02*
X0070220Y0191716D01*
X0071336Y0192714D02*
X0111767Y0192714D01*
X0110999Y0193713D02*
X0072104Y0193713D01*
X0072641Y0194711D02*
X0110462Y0194711D01*
X0110094Y0195710D02*
X0073008Y0195710D01*
X0073228Y0196708D02*
X0109874Y0196708D01*
X0109836Y0198705D02*
X0073266Y0198705D01*
X0073085Y0199704D02*
X0110017Y0199704D01*
X0110343Y0200702D02*
X0072760Y0200702D01*
X0072270Y0201701D02*
X0110833Y0201701D01*
X0111524Y0202699D02*
X0071579Y0202699D01*
X0070594Y0203698D02*
X0112508Y0203698D01*
X0114020Y0204696D02*
X0069083Y0204696D01*
X0060034Y0192714D02*
X0054681Y0192714D01*
X0054681Y0191716D02*
X0061150Y0191716D01*
X0062974Y0190717D02*
X0054681Y0190717D01*
X0054681Y0189976D02*
X0054681Y0218468D01*
X0056269Y0220056D01*
X0056650Y0220975D01*
X0056650Y0220991D01*
X0057117Y0221458D01*
X0057650Y0222745D01*
X0057650Y0230783D01*
X0125453Y0230783D01*
X0125453Y0222745D01*
X0125986Y0221458D01*
X0126453Y0220991D01*
X0126453Y0220975D01*
X0126833Y0220056D01*
X0128421Y0218468D01*
X0128421Y0189976D01*
X0054681Y0189976D01*
X0054681Y0193713D02*
X0059266Y0193713D01*
X0058729Y0194711D02*
X0054681Y0194711D01*
X0054681Y0195710D02*
X0058362Y0195710D01*
X0058142Y0196708D02*
X0054681Y0196708D01*
X0054681Y0205695D02*
X0128421Y0205695D01*
X0128421Y0206693D02*
X0054681Y0206693D01*
X0054681Y0207692D02*
X0128421Y0207692D01*
X0128421Y0208690D02*
X0054681Y0208690D01*
X0054681Y0209689D02*
X0128421Y0209689D01*
X0128421Y0210687D02*
X0054681Y0210687D01*
X0054681Y0211686D02*
X0128421Y0211686D01*
X0128421Y0212684D02*
X0054681Y0212684D01*
X0054681Y0213683D02*
X0128421Y0213683D01*
X0128421Y0214681D02*
X0054681Y0214681D01*
X0054681Y0215680D02*
X0128421Y0215680D01*
X0128421Y0216678D02*
X0054681Y0216678D01*
X0054681Y0217677D02*
X0128421Y0217677D01*
X0128214Y0218675D02*
X0054888Y0218675D01*
X0055887Y0219674D02*
X0127216Y0219674D01*
X0126578Y0220672D02*
X0056524Y0220672D01*
X0057205Y0221671D02*
X0125898Y0221671D01*
X0125484Y0222670D02*
X0057618Y0222670D01*
X0057650Y0223668D02*
X0125453Y0223668D01*
X0125453Y0224667D02*
X0057650Y0224667D01*
X0057650Y0225665D02*
X0125453Y0225665D01*
X0125453Y0226664D02*
X0057650Y0226664D01*
X0057650Y0227662D02*
X0125453Y0227662D01*
X0125453Y0228661D02*
X0057650Y0228661D01*
X0057650Y0229659D02*
X0125453Y0229659D01*
X0125453Y0230658D02*
X0057650Y0230658D01*
X0120128Y0190717D02*
X0128421Y0190717D01*
X0128421Y0191716D02*
X0121952Y0191716D01*
X0123068Y0192714D02*
X0128421Y0192714D01*
X0128421Y0193713D02*
X0123836Y0193713D01*
X0124373Y0194711D02*
X0128421Y0194711D01*
X0128421Y0195710D02*
X0124740Y0195710D01*
X0124960Y0196708D02*
X0128421Y0196708D01*
D16*
X0087044Y0132672D02*
X0081709Y0132672D01*
X0081709Y0132074D02*
X0087643Y0132074D01*
X0088241Y0131475D02*
X0081709Y0131475D01*
X0081709Y0130877D02*
X0088840Y0130877D01*
X0089438Y0130278D02*
X0081709Y0130278D01*
X0081709Y0129680D02*
X0090037Y0129680D01*
X0090635Y0129081D02*
X0081709Y0129081D01*
X0081709Y0128483D02*
X0091234Y0128483D01*
X0091832Y0127884D02*
X0081709Y0127884D01*
X0081709Y0127286D02*
X0092431Y0127286D01*
X0093029Y0126687D02*
X0081709Y0126687D01*
X0081709Y0126089D02*
X0093628Y0126089D01*
X0094226Y0125490D02*
X0081709Y0125490D01*
X0081709Y0125409D02*
X0081709Y0135646D01*
X0084071Y0135646D01*
X0104150Y0115567D01*
X0104150Y0103953D01*
X0101787Y0103953D01*
X0101787Y0109661D01*
X0093126Y0118323D01*
X0088795Y0118323D01*
X0081709Y0125409D01*
X0082226Y0124892D02*
X0094825Y0124892D01*
X0095423Y0124293D02*
X0082825Y0124293D01*
X0083423Y0123695D02*
X0096022Y0123695D01*
X0096620Y0123096D02*
X0084022Y0123096D01*
X0084620Y0122498D02*
X0097219Y0122498D01*
X0097817Y0121899D02*
X0085219Y0121899D01*
X0085817Y0121301D02*
X0098416Y0121301D01*
X0099014Y0120702D02*
X0086416Y0120702D01*
X0087014Y0120104D02*
X0099613Y0120104D01*
X0100211Y0119505D02*
X0087613Y0119505D01*
X0088211Y0118907D02*
X0100810Y0118907D01*
X0101408Y0118308D02*
X0093141Y0118308D01*
X0093739Y0117710D02*
X0102007Y0117710D01*
X0102605Y0117111D02*
X0094338Y0117111D01*
X0094936Y0116513D02*
X0103204Y0116513D01*
X0103802Y0115914D02*
X0095535Y0115914D01*
X0096133Y0115316D02*
X0104150Y0115316D01*
X0104150Y0114717D02*
X0096732Y0114717D01*
X0097330Y0114119D02*
X0104150Y0114119D01*
X0104150Y0113520D02*
X0097929Y0113520D01*
X0098527Y0112922D02*
X0104150Y0112922D01*
X0104150Y0112323D02*
X0099126Y0112323D01*
X0099724Y0111725D02*
X0104150Y0111725D01*
X0104150Y0111126D02*
X0100323Y0111126D01*
X0100921Y0110528D02*
X0104150Y0110528D01*
X0104150Y0109929D02*
X0101520Y0109929D01*
X0101787Y0109331D02*
X0104150Y0109331D01*
X0104150Y0108732D02*
X0101787Y0108732D01*
X0101787Y0108134D02*
X0104150Y0108134D01*
X0104150Y0107535D02*
X0101787Y0107535D01*
X0101787Y0106937D02*
X0104150Y0106937D01*
X0104150Y0106338D02*
X0101787Y0106338D01*
X0101787Y0105739D02*
X0104150Y0105739D01*
X0104150Y0105141D02*
X0101787Y0105141D01*
X0101787Y0104542D02*
X0104150Y0104542D01*
X0086446Y0133271D02*
X0081709Y0133271D01*
X0081709Y0133870D02*
X0085847Y0133870D01*
X0085249Y0134468D02*
X0081709Y0134468D01*
X0081709Y0135067D02*
X0084650Y0135067D01*
M02*
