G75*
%MOIN*%
%OFA0B0*%
%FSLAX25Y25*%
%IPPOS*%
%LPD*%
%AMOC8*
5,1,8,0,0,1.08239X$1,22.5*
%
%ADD10R,0.03750X0.04143*%
%ADD11R,0.04143X0.03750*%
%ADD12R,0.02962X0.02569*%
%ADD13R,0.07687X0.10836*%
%ADD14R,0.02175X0.05915*%
%ADD15R,0.08868X0.08474*%
%ADD16R,0.07687X0.08080*%
%ADD17R,0.08080X0.08080*%
%ADD18C,0.13655*%
%ADD19R,0.05009X0.11939*%
%ADD20R,0.03356X0.04537*%
%ADD21R,0.15167X0.04458*%
%ADD22R,0.02569X0.02962*%
%ADD23R,0.02962X0.02962*%
%ADD24R,0.03356X0.04143*%
%ADD25R,0.02175X0.02962*%
%ADD26R,0.07293X0.04340*%
%ADD27R,0.00983X0.02382*%
%ADD28R,0.00982X0.00991*%
%ADD29R,0.00979X0.02377*%
%ADD30R,0.00984X0.02357*%
%ADD31R,0.00982X0.00978*%
%ADD32R,0.00981X0.02357*%
%ADD33R,0.05314X0.00980*%
%ADD34R,0.06696X0.00986*%
%ADD35R,0.05315X0.00986*%
%ADD36R,0.01386X0.02747*%
%ADD37R,0.01380X0.02750*%
%ADD38R,0.01389X0.02777*%
%ADD39R,0.01381X0.02769*%
%ADD40R,0.02756X0.01382*%
%ADD41R,0.02755X0.01380*%
%ADD42R,0.02763X0.01386*%
%ADD43R,0.02761X0.01389*%
%ADD44C,0.04734*%
%ADD45C,0.16348*%
%ADD46C,0.08671*%
%ADD47C,0.11811*%
%ADD48OC8,0.02569*%
D10*
X0082496Y0075016D03*
X0088008Y0075016D03*
X0092732Y0119110D03*
X0098244Y0119110D03*
X0094307Y0174228D03*
X0088795Y0174228D03*
D11*
X0085646Y0106118D03*
X0085646Y0100606D03*
X0098638Y0091945D03*
X0098638Y0086433D03*
D12*
X0089583Y0101689D03*
X0089583Y0105035D03*
X0081315Y0093913D03*
X0081315Y0089976D03*
X0081315Y0086827D03*
X0081315Y0082890D03*
X0108480Y0126984D03*
X0108480Y0130921D03*
X0112024Y0126984D03*
X0112024Y0123047D03*
X0112024Y0118717D03*
X0112024Y0114780D03*
X0111236Y0111728D03*
X0111236Y0108382D03*
X0110843Y0098638D03*
X0113992Y0098638D03*
X0113992Y0094701D03*
X0110843Y0094701D03*
X0117142Y0094701D03*
X0117142Y0098638D03*
D13*
X0101787Y0130528D03*
X0077378Y0130528D03*
D14*
X0098244Y0068421D03*
X0100803Y0068421D03*
X0103362Y0068421D03*
X0105921Y0068421D03*
X0108480Y0068421D03*
D15*
X0115567Y0067142D03*
X0091157Y0067142D03*
D16*
X0087614Y0057890D03*
X0119110Y0057890D03*
D17*
X0108087Y0057890D03*
X0098638Y0057890D03*
D18*
X0117417Y0197850D03*
X0065685Y0197850D03*
D19*
X0077772Y0183756D03*
X0087614Y0183756D03*
X0095488Y0183756D03*
X0105331Y0183756D03*
D20*
X0098047Y0075016D03*
X0092142Y0075016D03*
D21*
X0073835Y0102634D03*
X0073835Y0111965D03*
D22*
X0073441Y0082102D03*
X0073441Y0078165D03*
X0073441Y0074228D03*
X0073441Y0070291D03*
X0073441Y0066354D03*
X0073441Y0062417D03*
X0073441Y0058480D03*
X0069504Y0058480D03*
X0069504Y0062417D03*
X0069504Y0066354D03*
X0069504Y0074228D03*
X0069504Y0078165D03*
X0069504Y0082102D03*
X0077378Y0070291D03*
X0098638Y0097063D03*
X0102575Y0097063D03*
X0104937Y0118717D03*
X0108874Y0118717D03*
X0073047Y0173835D03*
X0073047Y0177772D03*
X0069110Y0177772D03*
X0069110Y0173835D03*
D23*
X0063205Y0074228D03*
X0063205Y0070291D03*
X0063205Y0066354D03*
D24*
X0057693Y0058874D03*
X0057693Y0081709D03*
D25*
X0087024Y0083776D03*
X0089583Y0083776D03*
X0092142Y0083776D03*
X0092142Y0091453D03*
X0089583Y0091453D03*
X0087024Y0091453D03*
D26*
X0089583Y0087614D03*
D27*
X0100310Y0112821D03*
D28*
X0099326Y0112125D03*
D29*
X0098340Y0112819D03*
D30*
X0100311Y0101785D03*
D31*
X0099326Y0102473D03*
D32*
X0098341Y0101785D03*
D33*
X0098342Y0105328D03*
D34*
X0099033Y0107300D03*
D35*
X0098342Y0109269D03*
D36*
X0104252Y0101783D03*
D37*
X0102281Y0101784D03*
D38*
X0104254Y0112822D03*
D39*
X0102281Y0112817D03*
D40*
X0105923Y0106315D03*
D41*
X0105922Y0104346D03*
D42*
X0105925Y0110255D03*
D43*
X0105927Y0108286D03*
D44*
X0118323Y0147260D03*
X0088323Y0157260D03*
X0068323Y0147260D03*
D45*
X0020685Y0020685D03*
X0062024Y0130921D03*
X0121079Y0172260D03*
X0121079Y0081709D03*
X0160449Y0264780D03*
D46*
X0020685Y0237220D03*
X0162417Y0040370D03*
D47*
X0060055Y0020685D03*
X0160449Y0217535D03*
X0058087Y0264780D03*
D48*
X0056906Y0184858D03*
X0069504Y0184858D03*
X0082890Y0134465D03*
X0082890Y0131709D03*
X0082890Y0128953D03*
X0082890Y0126197D03*
X0089189Y0121866D03*
X0089189Y0119110D03*
X0093913Y0113598D03*
X0092339Y0111630D03*
X0093913Y0109661D03*
X0095488Y0111630D03*
X0093913Y0104937D03*
X0092339Y0102969D03*
X0093913Y0101000D03*
X0095488Y0102969D03*
X0102969Y0104937D03*
X0102969Y0107299D03*
X0102969Y0109661D03*
X0108087Y0112417D03*
X0108874Y0115567D03*
X0104937Y0121866D03*
X0112024Y0130528D03*
X0108874Y0135252D03*
X0126197Y0109268D03*
X0114386Y0101787D03*
X0112811Y0103756D03*
X0111433Y0101591D03*
X0110055Y0103756D03*
X0105528Y0098638D03*
X0105528Y0095882D03*
X0110055Y0091945D03*
X0112811Y0091945D03*
X0115567Y0091945D03*
X0118323Y0091945D03*
X0111236Y0076984D03*
X0111236Y0074228D03*
X0108480Y0073047D03*
X0105724Y0073047D03*
X0105724Y0075803D03*
X0108480Y0075803D03*
X0099819Y0082890D03*
X0097063Y0082890D03*
X0091551Y0087614D03*
X0087614Y0087614D03*
X0080134Y0099031D03*
X0077378Y0099031D03*
X0074622Y0099031D03*
X0076197Y0094307D03*
X0071866Y0099031D03*
X0071866Y0115567D03*
X0074622Y0115567D03*
X0077378Y0115567D03*
X0080134Y0115567D03*
X0069504Y0120685D03*
X0057693Y0085646D03*
X0063205Y0082102D03*
X0066748Y0082102D03*
X0057693Y0077772D03*
X0057693Y0062417D03*
X0057693Y0055331D03*
X0063205Y0058874D03*
X0066748Y0058480D03*
X0077772Y0054543D03*
X0082299Y0057890D03*
X0085252Y0067142D03*
X0082496Y0071472D03*
X0078953Y0075016D03*
X0093126Y0057890D03*
X0098638Y0063598D03*
X0107890Y0063598D03*
X0113598Y0057890D03*
X0121472Y0067142D03*
X0124425Y0057890D03*
M02*
