%
M48
M72
T01C0.01181
T02C0.02756
T03C0.08071
T04C0.08661
T05C0.09055
T06C0.15748
%
T01
X57693Y55331
X57693Y62417
X63205Y58874
X66748Y58480
X77772Y54543
X82299Y57890
X85252Y67142
X82496Y71472
X78953Y75016
X87614Y87614
X91551Y87614
X97063Y82890
X99819Y82890
X105724Y75803
X105724Y73047
X108480Y73047
X108480Y75803
X111236Y76984
X111236Y74228
X107890Y63598
X113598Y57890
X121472Y67142
X124425Y57890
X118323Y91945
X115567Y91945
X112811Y91945
X110055Y91945
X105528Y95882
X105528Y98638
X102969Y104937
X102969Y107299
X102969Y109661
X108087Y112417
X108874Y115567
X104937Y121866
X112024Y130528
X108874Y135252
X95488Y111630
X93913Y113598
X92339Y111630
X93913Y109661
X93913Y104937
X92339Y102969
X93913Y101000
X95488Y102969
X89189Y119110
X89189Y121866
X82890Y126197
X82890Y128953
X82890Y131709
X82890Y134465
X80134Y115567
X77378Y115567
X74622Y115567
X71866Y115567
X69504Y120685
X71866Y99031
X74622Y99031
X77378Y99031
X76197Y94307
X80134Y99031
X66748Y82102
X63205Y82102
X57693Y85646
X57693Y77772
X93126Y57890
X98638Y63598
X111433Y101591
X110055Y103756
X112811Y103756
X114386Y101787
X126197Y109268
X69504Y184858
X56906Y184858
T02
X68323Y147260
X88323Y157260
X118323Y147260
T03
X162417Y40370
X20685Y237220
T04
X62024Y130921
X121079Y172260
X121079Y81709
T05
X117417Y197850
X65685Y197850
T06
X20685Y20685
X160449Y264780
M30
