G75*
%MOIN*%
%OFA0B0*%
%FSLAX25Y25*%
%IPPOS*%
%LPD*%
%AMOC8*
5,1,8,0,0,1.08239X$1,22.5*
%
%ADD10C,0.00000*%
D10*
X0001000Y0020685D02*
X0001000Y0264780D01*
X0001006Y0265256D01*
X0001023Y0265731D01*
X0001052Y0266206D01*
X0001092Y0266680D01*
X0001144Y0267153D01*
X0001207Y0267624D01*
X0001281Y0268094D01*
X0001367Y0268562D01*
X0001464Y0269028D01*
X0001572Y0269491D01*
X0001691Y0269951D01*
X0001822Y0270409D01*
X0001963Y0270863D01*
X0002116Y0271314D01*
X0002279Y0271760D01*
X0002453Y0272203D01*
X0002638Y0272641D01*
X0002833Y0273075D01*
X0003039Y0273504D01*
X0003255Y0273928D01*
X0003481Y0274347D01*
X0003717Y0274760D01*
X0003963Y0275167D01*
X0004219Y0275568D01*
X0004485Y0275962D01*
X0004760Y0276351D01*
X0005044Y0276732D01*
X0005337Y0277106D01*
X0005639Y0277474D01*
X0005951Y0277834D01*
X0006270Y0278186D01*
X0006598Y0278530D01*
X0006935Y0278867D01*
X0007279Y0279195D01*
X0007631Y0279514D01*
X0007991Y0279826D01*
X0008359Y0280128D01*
X0008733Y0280421D01*
X0009114Y0280705D01*
X0009503Y0280980D01*
X0009897Y0281246D01*
X0010298Y0281502D01*
X0010705Y0281748D01*
X0011118Y0281984D01*
X0011537Y0282210D01*
X0011961Y0282426D01*
X0012390Y0282632D01*
X0012824Y0282827D01*
X0013262Y0283012D01*
X0013705Y0283186D01*
X0014151Y0283349D01*
X0014602Y0283502D01*
X0015056Y0283643D01*
X0015514Y0283774D01*
X0015974Y0283893D01*
X0016437Y0284001D01*
X0016903Y0284098D01*
X0017371Y0284184D01*
X0017841Y0284258D01*
X0018312Y0284321D01*
X0018785Y0284373D01*
X0019259Y0284413D01*
X0019734Y0284442D01*
X0020209Y0284459D01*
X0020685Y0284465D01*
X0160449Y0284465D01*
X0152575Y0264780D02*
X0152577Y0264973D01*
X0152584Y0265166D01*
X0152596Y0265359D01*
X0152613Y0265552D01*
X0152634Y0265744D01*
X0152660Y0265935D01*
X0152691Y0266126D01*
X0152726Y0266316D01*
X0152766Y0266505D01*
X0152811Y0266693D01*
X0152860Y0266880D01*
X0152914Y0267066D01*
X0152972Y0267250D01*
X0153035Y0267433D01*
X0153103Y0267614D01*
X0153174Y0267793D01*
X0153251Y0267971D01*
X0153331Y0268147D01*
X0153416Y0268320D01*
X0153505Y0268492D01*
X0153598Y0268661D01*
X0153695Y0268828D01*
X0153797Y0268993D01*
X0153902Y0269155D01*
X0154011Y0269314D01*
X0154125Y0269471D01*
X0154242Y0269624D01*
X0154362Y0269775D01*
X0154487Y0269923D01*
X0154615Y0270068D01*
X0154746Y0270209D01*
X0154881Y0270348D01*
X0155020Y0270483D01*
X0155161Y0270614D01*
X0155306Y0270742D01*
X0155454Y0270867D01*
X0155605Y0270987D01*
X0155758Y0271104D01*
X0155915Y0271218D01*
X0156074Y0271327D01*
X0156236Y0271432D01*
X0156401Y0271534D01*
X0156568Y0271631D01*
X0156737Y0271724D01*
X0156909Y0271813D01*
X0157082Y0271898D01*
X0157258Y0271978D01*
X0157436Y0272055D01*
X0157615Y0272126D01*
X0157796Y0272194D01*
X0157979Y0272257D01*
X0158163Y0272315D01*
X0158349Y0272369D01*
X0158536Y0272418D01*
X0158724Y0272463D01*
X0158913Y0272503D01*
X0159103Y0272538D01*
X0159294Y0272569D01*
X0159485Y0272595D01*
X0159677Y0272616D01*
X0159870Y0272633D01*
X0160063Y0272645D01*
X0160256Y0272652D01*
X0160449Y0272654D01*
X0160642Y0272652D01*
X0160835Y0272645D01*
X0161028Y0272633D01*
X0161221Y0272616D01*
X0161413Y0272595D01*
X0161604Y0272569D01*
X0161795Y0272538D01*
X0161985Y0272503D01*
X0162174Y0272463D01*
X0162362Y0272418D01*
X0162549Y0272369D01*
X0162735Y0272315D01*
X0162919Y0272257D01*
X0163102Y0272194D01*
X0163283Y0272126D01*
X0163462Y0272055D01*
X0163640Y0271978D01*
X0163816Y0271898D01*
X0163989Y0271813D01*
X0164161Y0271724D01*
X0164330Y0271631D01*
X0164497Y0271534D01*
X0164662Y0271432D01*
X0164824Y0271327D01*
X0164983Y0271218D01*
X0165140Y0271104D01*
X0165293Y0270987D01*
X0165444Y0270867D01*
X0165592Y0270742D01*
X0165737Y0270614D01*
X0165878Y0270483D01*
X0166017Y0270348D01*
X0166152Y0270209D01*
X0166283Y0270068D01*
X0166411Y0269923D01*
X0166536Y0269775D01*
X0166656Y0269624D01*
X0166773Y0269471D01*
X0166887Y0269314D01*
X0166996Y0269155D01*
X0167101Y0268993D01*
X0167203Y0268828D01*
X0167300Y0268661D01*
X0167393Y0268492D01*
X0167482Y0268320D01*
X0167567Y0268147D01*
X0167647Y0267971D01*
X0167724Y0267793D01*
X0167795Y0267614D01*
X0167863Y0267433D01*
X0167926Y0267250D01*
X0167984Y0267066D01*
X0168038Y0266880D01*
X0168087Y0266693D01*
X0168132Y0266505D01*
X0168172Y0266316D01*
X0168207Y0266126D01*
X0168238Y0265935D01*
X0168264Y0265744D01*
X0168285Y0265552D01*
X0168302Y0265359D01*
X0168314Y0265166D01*
X0168321Y0264973D01*
X0168323Y0264780D01*
X0168321Y0264587D01*
X0168314Y0264394D01*
X0168302Y0264201D01*
X0168285Y0264008D01*
X0168264Y0263816D01*
X0168238Y0263625D01*
X0168207Y0263434D01*
X0168172Y0263244D01*
X0168132Y0263055D01*
X0168087Y0262867D01*
X0168038Y0262680D01*
X0167984Y0262494D01*
X0167926Y0262310D01*
X0167863Y0262127D01*
X0167795Y0261946D01*
X0167724Y0261767D01*
X0167647Y0261589D01*
X0167567Y0261413D01*
X0167482Y0261240D01*
X0167393Y0261068D01*
X0167300Y0260899D01*
X0167203Y0260732D01*
X0167101Y0260567D01*
X0166996Y0260405D01*
X0166887Y0260246D01*
X0166773Y0260089D01*
X0166656Y0259936D01*
X0166536Y0259785D01*
X0166411Y0259637D01*
X0166283Y0259492D01*
X0166152Y0259351D01*
X0166017Y0259212D01*
X0165878Y0259077D01*
X0165737Y0258946D01*
X0165592Y0258818D01*
X0165444Y0258693D01*
X0165293Y0258573D01*
X0165140Y0258456D01*
X0164983Y0258342D01*
X0164824Y0258233D01*
X0164662Y0258128D01*
X0164497Y0258026D01*
X0164330Y0257929D01*
X0164161Y0257836D01*
X0163989Y0257747D01*
X0163816Y0257662D01*
X0163640Y0257582D01*
X0163462Y0257505D01*
X0163283Y0257434D01*
X0163102Y0257366D01*
X0162919Y0257303D01*
X0162735Y0257245D01*
X0162549Y0257191D01*
X0162362Y0257142D01*
X0162174Y0257097D01*
X0161985Y0257057D01*
X0161795Y0257022D01*
X0161604Y0256991D01*
X0161413Y0256965D01*
X0161221Y0256944D01*
X0161028Y0256927D01*
X0160835Y0256915D01*
X0160642Y0256908D01*
X0160449Y0256906D01*
X0160256Y0256908D01*
X0160063Y0256915D01*
X0159870Y0256927D01*
X0159677Y0256944D01*
X0159485Y0256965D01*
X0159294Y0256991D01*
X0159103Y0257022D01*
X0158913Y0257057D01*
X0158724Y0257097D01*
X0158536Y0257142D01*
X0158349Y0257191D01*
X0158163Y0257245D01*
X0157979Y0257303D01*
X0157796Y0257366D01*
X0157615Y0257434D01*
X0157436Y0257505D01*
X0157258Y0257582D01*
X0157082Y0257662D01*
X0156909Y0257747D01*
X0156737Y0257836D01*
X0156568Y0257929D01*
X0156401Y0258026D01*
X0156236Y0258128D01*
X0156074Y0258233D01*
X0155915Y0258342D01*
X0155758Y0258456D01*
X0155605Y0258573D01*
X0155454Y0258693D01*
X0155306Y0258818D01*
X0155161Y0258946D01*
X0155020Y0259077D01*
X0154881Y0259212D01*
X0154746Y0259351D01*
X0154615Y0259492D01*
X0154487Y0259637D01*
X0154362Y0259785D01*
X0154242Y0259936D01*
X0154125Y0260089D01*
X0154011Y0260246D01*
X0153902Y0260405D01*
X0153797Y0260567D01*
X0153695Y0260732D01*
X0153598Y0260899D01*
X0153505Y0261068D01*
X0153416Y0261240D01*
X0153331Y0261413D01*
X0153251Y0261589D01*
X0153174Y0261767D01*
X0153103Y0261946D01*
X0153035Y0262127D01*
X0152972Y0262310D01*
X0152914Y0262494D01*
X0152860Y0262680D01*
X0152811Y0262867D01*
X0152766Y0263055D01*
X0152726Y0263244D01*
X0152691Y0263434D01*
X0152660Y0263625D01*
X0152634Y0263816D01*
X0152613Y0264008D01*
X0152596Y0264201D01*
X0152584Y0264394D01*
X0152577Y0264587D01*
X0152575Y0264780D01*
X0160449Y0284465D02*
X0160925Y0284459D01*
X0161400Y0284442D01*
X0161875Y0284413D01*
X0162349Y0284373D01*
X0162822Y0284321D01*
X0163293Y0284258D01*
X0163763Y0284184D01*
X0164231Y0284098D01*
X0164697Y0284001D01*
X0165160Y0283893D01*
X0165620Y0283774D01*
X0166078Y0283643D01*
X0166532Y0283502D01*
X0166983Y0283349D01*
X0167429Y0283186D01*
X0167872Y0283012D01*
X0168310Y0282827D01*
X0168744Y0282632D01*
X0169173Y0282426D01*
X0169597Y0282210D01*
X0170016Y0281984D01*
X0170429Y0281748D01*
X0170836Y0281502D01*
X0171237Y0281246D01*
X0171631Y0280980D01*
X0172020Y0280705D01*
X0172401Y0280421D01*
X0172775Y0280128D01*
X0173143Y0279826D01*
X0173503Y0279514D01*
X0173855Y0279195D01*
X0174199Y0278867D01*
X0174536Y0278530D01*
X0174864Y0278186D01*
X0175183Y0277834D01*
X0175495Y0277474D01*
X0175797Y0277106D01*
X0176090Y0276732D01*
X0176374Y0276351D01*
X0176649Y0275962D01*
X0176915Y0275568D01*
X0177171Y0275167D01*
X0177417Y0274760D01*
X0177653Y0274347D01*
X0177879Y0273928D01*
X0178095Y0273504D01*
X0178301Y0273075D01*
X0178496Y0272641D01*
X0178681Y0272203D01*
X0178855Y0271760D01*
X0179018Y0271314D01*
X0179171Y0270863D01*
X0179312Y0270409D01*
X0179443Y0269951D01*
X0179562Y0269491D01*
X0179670Y0269028D01*
X0179767Y0268562D01*
X0179853Y0268094D01*
X0179927Y0267624D01*
X0179990Y0267153D01*
X0180042Y0266680D01*
X0180082Y0266206D01*
X0180111Y0265731D01*
X0180128Y0265256D01*
X0180134Y0264780D01*
X0180134Y0020685D01*
X0158382Y0040370D02*
X0158384Y0040497D01*
X0158390Y0040623D01*
X0158400Y0040750D01*
X0158414Y0040876D01*
X0158432Y0041001D01*
X0158453Y0041126D01*
X0158479Y0041250D01*
X0158509Y0041373D01*
X0158542Y0041496D01*
X0158579Y0041617D01*
X0158621Y0041737D01*
X0158665Y0041855D01*
X0158714Y0041972D01*
X0158766Y0042088D01*
X0158822Y0042202D01*
X0158881Y0042314D01*
X0158944Y0042424D01*
X0159010Y0042532D01*
X0159080Y0042638D01*
X0159153Y0042742D01*
X0159229Y0042843D01*
X0159308Y0042942D01*
X0159390Y0043038D01*
X0159476Y0043132D01*
X0159564Y0043223D01*
X0159655Y0043311D01*
X0159749Y0043397D01*
X0159845Y0043479D01*
X0159944Y0043558D01*
X0160045Y0043634D01*
X0160149Y0043707D01*
X0160255Y0043777D01*
X0160363Y0043843D01*
X0160473Y0043906D01*
X0160585Y0043965D01*
X0160699Y0044021D01*
X0160815Y0044073D01*
X0160932Y0044122D01*
X0161050Y0044166D01*
X0161170Y0044208D01*
X0161291Y0044245D01*
X0161414Y0044278D01*
X0161537Y0044308D01*
X0161661Y0044334D01*
X0161786Y0044355D01*
X0161911Y0044373D01*
X0162037Y0044387D01*
X0162164Y0044397D01*
X0162290Y0044403D01*
X0162417Y0044405D01*
X0162544Y0044403D01*
X0162670Y0044397D01*
X0162797Y0044387D01*
X0162923Y0044373D01*
X0163048Y0044355D01*
X0163173Y0044334D01*
X0163297Y0044308D01*
X0163420Y0044278D01*
X0163543Y0044245D01*
X0163664Y0044208D01*
X0163784Y0044166D01*
X0163902Y0044122D01*
X0164019Y0044073D01*
X0164135Y0044021D01*
X0164249Y0043965D01*
X0164361Y0043906D01*
X0164471Y0043843D01*
X0164579Y0043777D01*
X0164685Y0043707D01*
X0164789Y0043634D01*
X0164890Y0043558D01*
X0164989Y0043479D01*
X0165085Y0043397D01*
X0165179Y0043311D01*
X0165270Y0043223D01*
X0165358Y0043132D01*
X0165444Y0043038D01*
X0165526Y0042942D01*
X0165605Y0042843D01*
X0165681Y0042742D01*
X0165754Y0042638D01*
X0165824Y0042532D01*
X0165890Y0042424D01*
X0165953Y0042314D01*
X0166012Y0042202D01*
X0166068Y0042088D01*
X0166120Y0041972D01*
X0166169Y0041855D01*
X0166213Y0041737D01*
X0166255Y0041617D01*
X0166292Y0041496D01*
X0166325Y0041373D01*
X0166355Y0041250D01*
X0166381Y0041126D01*
X0166402Y0041001D01*
X0166420Y0040876D01*
X0166434Y0040750D01*
X0166444Y0040623D01*
X0166450Y0040497D01*
X0166452Y0040370D01*
X0166450Y0040243D01*
X0166444Y0040117D01*
X0166434Y0039990D01*
X0166420Y0039864D01*
X0166402Y0039739D01*
X0166381Y0039614D01*
X0166355Y0039490D01*
X0166325Y0039367D01*
X0166292Y0039244D01*
X0166255Y0039123D01*
X0166213Y0039003D01*
X0166169Y0038885D01*
X0166120Y0038768D01*
X0166068Y0038652D01*
X0166012Y0038538D01*
X0165953Y0038426D01*
X0165890Y0038316D01*
X0165824Y0038208D01*
X0165754Y0038102D01*
X0165681Y0037998D01*
X0165605Y0037897D01*
X0165526Y0037798D01*
X0165444Y0037702D01*
X0165358Y0037608D01*
X0165270Y0037517D01*
X0165179Y0037429D01*
X0165085Y0037343D01*
X0164989Y0037261D01*
X0164890Y0037182D01*
X0164789Y0037106D01*
X0164685Y0037033D01*
X0164579Y0036963D01*
X0164471Y0036897D01*
X0164361Y0036834D01*
X0164249Y0036775D01*
X0164135Y0036719D01*
X0164019Y0036667D01*
X0163902Y0036618D01*
X0163784Y0036574D01*
X0163664Y0036532D01*
X0163543Y0036495D01*
X0163420Y0036462D01*
X0163297Y0036432D01*
X0163173Y0036406D01*
X0163048Y0036385D01*
X0162923Y0036367D01*
X0162797Y0036353D01*
X0162670Y0036343D01*
X0162544Y0036337D01*
X0162417Y0036335D01*
X0162290Y0036337D01*
X0162164Y0036343D01*
X0162037Y0036353D01*
X0161911Y0036367D01*
X0161786Y0036385D01*
X0161661Y0036406D01*
X0161537Y0036432D01*
X0161414Y0036462D01*
X0161291Y0036495D01*
X0161170Y0036532D01*
X0161050Y0036574D01*
X0160932Y0036618D01*
X0160815Y0036667D01*
X0160699Y0036719D01*
X0160585Y0036775D01*
X0160473Y0036834D01*
X0160363Y0036897D01*
X0160255Y0036963D01*
X0160149Y0037033D01*
X0160045Y0037106D01*
X0159944Y0037182D01*
X0159845Y0037261D01*
X0159749Y0037343D01*
X0159655Y0037429D01*
X0159564Y0037517D01*
X0159476Y0037608D01*
X0159390Y0037702D01*
X0159308Y0037798D01*
X0159229Y0037897D01*
X0159153Y0037998D01*
X0159080Y0038102D01*
X0159010Y0038208D01*
X0158944Y0038316D01*
X0158881Y0038426D01*
X0158822Y0038538D01*
X0158766Y0038652D01*
X0158714Y0038768D01*
X0158665Y0038885D01*
X0158621Y0039003D01*
X0158579Y0039123D01*
X0158542Y0039244D01*
X0158509Y0039367D01*
X0158479Y0039490D01*
X0158453Y0039614D01*
X0158432Y0039739D01*
X0158414Y0039864D01*
X0158400Y0039990D01*
X0158390Y0040117D01*
X0158384Y0040243D01*
X0158382Y0040370D01*
X0180134Y0020685D02*
X0180128Y0020209D01*
X0180111Y0019734D01*
X0180082Y0019259D01*
X0180042Y0018785D01*
X0179990Y0018312D01*
X0179927Y0017841D01*
X0179853Y0017371D01*
X0179767Y0016903D01*
X0179670Y0016437D01*
X0179562Y0015974D01*
X0179443Y0015514D01*
X0179312Y0015056D01*
X0179171Y0014602D01*
X0179018Y0014151D01*
X0178855Y0013705D01*
X0178681Y0013262D01*
X0178496Y0012824D01*
X0178301Y0012390D01*
X0178095Y0011961D01*
X0177879Y0011537D01*
X0177653Y0011118D01*
X0177417Y0010705D01*
X0177171Y0010298D01*
X0176915Y0009897D01*
X0176649Y0009503D01*
X0176374Y0009114D01*
X0176090Y0008733D01*
X0175797Y0008359D01*
X0175495Y0007991D01*
X0175183Y0007631D01*
X0174864Y0007279D01*
X0174536Y0006935D01*
X0174199Y0006598D01*
X0173855Y0006270D01*
X0173503Y0005951D01*
X0173143Y0005639D01*
X0172775Y0005337D01*
X0172401Y0005044D01*
X0172020Y0004760D01*
X0171631Y0004485D01*
X0171237Y0004219D01*
X0170836Y0003963D01*
X0170429Y0003717D01*
X0170016Y0003481D01*
X0169597Y0003255D01*
X0169173Y0003039D01*
X0168744Y0002833D01*
X0168310Y0002638D01*
X0167872Y0002453D01*
X0167429Y0002279D01*
X0166983Y0002116D01*
X0166532Y0001963D01*
X0166078Y0001822D01*
X0165620Y0001691D01*
X0165160Y0001572D01*
X0164697Y0001464D01*
X0164231Y0001367D01*
X0163763Y0001281D01*
X0163293Y0001207D01*
X0162822Y0001144D01*
X0162349Y0001092D01*
X0161875Y0001052D01*
X0161400Y0001023D01*
X0160925Y0001006D01*
X0160449Y0001000D01*
X0020685Y0001000D01*
X0012811Y0020685D02*
X0012813Y0020878D01*
X0012820Y0021071D01*
X0012832Y0021264D01*
X0012849Y0021457D01*
X0012870Y0021649D01*
X0012896Y0021840D01*
X0012927Y0022031D01*
X0012962Y0022221D01*
X0013002Y0022410D01*
X0013047Y0022598D01*
X0013096Y0022785D01*
X0013150Y0022971D01*
X0013208Y0023155D01*
X0013271Y0023338D01*
X0013339Y0023519D01*
X0013410Y0023698D01*
X0013487Y0023876D01*
X0013567Y0024052D01*
X0013652Y0024225D01*
X0013741Y0024397D01*
X0013834Y0024566D01*
X0013931Y0024733D01*
X0014033Y0024898D01*
X0014138Y0025060D01*
X0014247Y0025219D01*
X0014361Y0025376D01*
X0014478Y0025529D01*
X0014598Y0025680D01*
X0014723Y0025828D01*
X0014851Y0025973D01*
X0014982Y0026114D01*
X0015117Y0026253D01*
X0015256Y0026388D01*
X0015397Y0026519D01*
X0015542Y0026647D01*
X0015690Y0026772D01*
X0015841Y0026892D01*
X0015994Y0027009D01*
X0016151Y0027123D01*
X0016310Y0027232D01*
X0016472Y0027337D01*
X0016637Y0027439D01*
X0016804Y0027536D01*
X0016973Y0027629D01*
X0017145Y0027718D01*
X0017318Y0027803D01*
X0017494Y0027883D01*
X0017672Y0027960D01*
X0017851Y0028031D01*
X0018032Y0028099D01*
X0018215Y0028162D01*
X0018399Y0028220D01*
X0018585Y0028274D01*
X0018772Y0028323D01*
X0018960Y0028368D01*
X0019149Y0028408D01*
X0019339Y0028443D01*
X0019530Y0028474D01*
X0019721Y0028500D01*
X0019913Y0028521D01*
X0020106Y0028538D01*
X0020299Y0028550D01*
X0020492Y0028557D01*
X0020685Y0028559D01*
X0020878Y0028557D01*
X0021071Y0028550D01*
X0021264Y0028538D01*
X0021457Y0028521D01*
X0021649Y0028500D01*
X0021840Y0028474D01*
X0022031Y0028443D01*
X0022221Y0028408D01*
X0022410Y0028368D01*
X0022598Y0028323D01*
X0022785Y0028274D01*
X0022971Y0028220D01*
X0023155Y0028162D01*
X0023338Y0028099D01*
X0023519Y0028031D01*
X0023698Y0027960D01*
X0023876Y0027883D01*
X0024052Y0027803D01*
X0024225Y0027718D01*
X0024397Y0027629D01*
X0024566Y0027536D01*
X0024733Y0027439D01*
X0024898Y0027337D01*
X0025060Y0027232D01*
X0025219Y0027123D01*
X0025376Y0027009D01*
X0025529Y0026892D01*
X0025680Y0026772D01*
X0025828Y0026647D01*
X0025973Y0026519D01*
X0026114Y0026388D01*
X0026253Y0026253D01*
X0026388Y0026114D01*
X0026519Y0025973D01*
X0026647Y0025828D01*
X0026772Y0025680D01*
X0026892Y0025529D01*
X0027009Y0025376D01*
X0027123Y0025219D01*
X0027232Y0025060D01*
X0027337Y0024898D01*
X0027439Y0024733D01*
X0027536Y0024566D01*
X0027629Y0024397D01*
X0027718Y0024225D01*
X0027803Y0024052D01*
X0027883Y0023876D01*
X0027960Y0023698D01*
X0028031Y0023519D01*
X0028099Y0023338D01*
X0028162Y0023155D01*
X0028220Y0022971D01*
X0028274Y0022785D01*
X0028323Y0022598D01*
X0028368Y0022410D01*
X0028408Y0022221D01*
X0028443Y0022031D01*
X0028474Y0021840D01*
X0028500Y0021649D01*
X0028521Y0021457D01*
X0028538Y0021264D01*
X0028550Y0021071D01*
X0028557Y0020878D01*
X0028559Y0020685D01*
X0028557Y0020492D01*
X0028550Y0020299D01*
X0028538Y0020106D01*
X0028521Y0019913D01*
X0028500Y0019721D01*
X0028474Y0019530D01*
X0028443Y0019339D01*
X0028408Y0019149D01*
X0028368Y0018960D01*
X0028323Y0018772D01*
X0028274Y0018585D01*
X0028220Y0018399D01*
X0028162Y0018215D01*
X0028099Y0018032D01*
X0028031Y0017851D01*
X0027960Y0017672D01*
X0027883Y0017494D01*
X0027803Y0017318D01*
X0027718Y0017145D01*
X0027629Y0016973D01*
X0027536Y0016804D01*
X0027439Y0016637D01*
X0027337Y0016472D01*
X0027232Y0016310D01*
X0027123Y0016151D01*
X0027009Y0015994D01*
X0026892Y0015841D01*
X0026772Y0015690D01*
X0026647Y0015542D01*
X0026519Y0015397D01*
X0026388Y0015256D01*
X0026253Y0015117D01*
X0026114Y0014982D01*
X0025973Y0014851D01*
X0025828Y0014723D01*
X0025680Y0014598D01*
X0025529Y0014478D01*
X0025376Y0014361D01*
X0025219Y0014247D01*
X0025060Y0014138D01*
X0024898Y0014033D01*
X0024733Y0013931D01*
X0024566Y0013834D01*
X0024397Y0013741D01*
X0024225Y0013652D01*
X0024052Y0013567D01*
X0023876Y0013487D01*
X0023698Y0013410D01*
X0023519Y0013339D01*
X0023338Y0013271D01*
X0023155Y0013208D01*
X0022971Y0013150D01*
X0022785Y0013096D01*
X0022598Y0013047D01*
X0022410Y0013002D01*
X0022221Y0012962D01*
X0022031Y0012927D01*
X0021840Y0012896D01*
X0021649Y0012870D01*
X0021457Y0012849D01*
X0021264Y0012832D01*
X0021071Y0012820D01*
X0020878Y0012813D01*
X0020685Y0012811D01*
X0020492Y0012813D01*
X0020299Y0012820D01*
X0020106Y0012832D01*
X0019913Y0012849D01*
X0019721Y0012870D01*
X0019530Y0012896D01*
X0019339Y0012927D01*
X0019149Y0012962D01*
X0018960Y0013002D01*
X0018772Y0013047D01*
X0018585Y0013096D01*
X0018399Y0013150D01*
X0018215Y0013208D01*
X0018032Y0013271D01*
X0017851Y0013339D01*
X0017672Y0013410D01*
X0017494Y0013487D01*
X0017318Y0013567D01*
X0017145Y0013652D01*
X0016973Y0013741D01*
X0016804Y0013834D01*
X0016637Y0013931D01*
X0016472Y0014033D01*
X0016310Y0014138D01*
X0016151Y0014247D01*
X0015994Y0014361D01*
X0015841Y0014478D01*
X0015690Y0014598D01*
X0015542Y0014723D01*
X0015397Y0014851D01*
X0015256Y0014982D01*
X0015117Y0015117D01*
X0014982Y0015256D01*
X0014851Y0015397D01*
X0014723Y0015542D01*
X0014598Y0015690D01*
X0014478Y0015841D01*
X0014361Y0015994D01*
X0014247Y0016151D01*
X0014138Y0016310D01*
X0014033Y0016472D01*
X0013931Y0016637D01*
X0013834Y0016804D01*
X0013741Y0016973D01*
X0013652Y0017145D01*
X0013567Y0017318D01*
X0013487Y0017494D01*
X0013410Y0017672D01*
X0013339Y0017851D01*
X0013271Y0018032D01*
X0013208Y0018215D01*
X0013150Y0018399D01*
X0013096Y0018585D01*
X0013047Y0018772D01*
X0013002Y0018960D01*
X0012962Y0019149D01*
X0012927Y0019339D01*
X0012896Y0019530D01*
X0012870Y0019721D01*
X0012849Y0019913D01*
X0012832Y0020106D01*
X0012820Y0020299D01*
X0012813Y0020492D01*
X0012811Y0020685D01*
X0001000Y0020685D02*
X0001006Y0020209D01*
X0001023Y0019734D01*
X0001052Y0019259D01*
X0001092Y0018785D01*
X0001144Y0018312D01*
X0001207Y0017841D01*
X0001281Y0017371D01*
X0001367Y0016903D01*
X0001464Y0016437D01*
X0001572Y0015974D01*
X0001691Y0015514D01*
X0001822Y0015056D01*
X0001963Y0014602D01*
X0002116Y0014151D01*
X0002279Y0013705D01*
X0002453Y0013262D01*
X0002638Y0012824D01*
X0002833Y0012390D01*
X0003039Y0011961D01*
X0003255Y0011537D01*
X0003481Y0011118D01*
X0003717Y0010705D01*
X0003963Y0010298D01*
X0004219Y0009897D01*
X0004485Y0009503D01*
X0004760Y0009114D01*
X0005044Y0008733D01*
X0005337Y0008359D01*
X0005639Y0007991D01*
X0005951Y0007631D01*
X0006270Y0007279D01*
X0006598Y0006935D01*
X0006935Y0006598D01*
X0007279Y0006270D01*
X0007631Y0005951D01*
X0007991Y0005639D01*
X0008359Y0005337D01*
X0008733Y0005044D01*
X0009114Y0004760D01*
X0009503Y0004485D01*
X0009897Y0004219D01*
X0010298Y0003963D01*
X0010705Y0003717D01*
X0011118Y0003481D01*
X0011537Y0003255D01*
X0011961Y0003039D01*
X0012390Y0002833D01*
X0012824Y0002638D01*
X0013262Y0002453D01*
X0013705Y0002279D01*
X0014151Y0002116D01*
X0014602Y0001963D01*
X0015056Y0001822D01*
X0015514Y0001691D01*
X0015974Y0001572D01*
X0016437Y0001464D01*
X0016903Y0001367D01*
X0017371Y0001281D01*
X0017841Y0001207D01*
X0018312Y0001144D01*
X0018785Y0001092D01*
X0019259Y0001052D01*
X0019734Y0001023D01*
X0020209Y0001006D01*
X0020685Y0001000D01*
X0040370Y0040370D02*
X0142732Y0040370D01*
X0142732Y0052181D01*
X0040370Y0052181D01*
X0040370Y0040370D01*
X0040370Y0058087D02*
X0054150Y0058087D01*
X0054150Y0063992D01*
X0052181Y0065961D01*
X0052181Y0219504D01*
X0054150Y0221472D01*
X0054150Y0227378D01*
X0040370Y0227378D01*
X0040370Y0058087D01*
X0083362Y0052181D02*
X0123362Y0052181D01*
X0083362Y0052181D01*
X0128953Y0058087D02*
X0128953Y0063992D01*
X0130921Y0065961D01*
X0130921Y0219504D01*
X0128953Y0221472D01*
X0128953Y0227378D01*
X0142732Y0227378D01*
X0142732Y0058087D01*
X0128953Y0058087D01*
X0142732Y0233283D02*
X0040370Y0233283D01*
X0040370Y0245094D01*
X0142732Y0245094D01*
X0142732Y0233283D01*
X0016650Y0237220D02*
X0016652Y0237347D01*
X0016658Y0237473D01*
X0016668Y0237600D01*
X0016682Y0237726D01*
X0016700Y0237851D01*
X0016721Y0237976D01*
X0016747Y0238100D01*
X0016777Y0238223D01*
X0016810Y0238346D01*
X0016847Y0238467D01*
X0016889Y0238587D01*
X0016933Y0238705D01*
X0016982Y0238822D01*
X0017034Y0238938D01*
X0017090Y0239052D01*
X0017149Y0239164D01*
X0017212Y0239274D01*
X0017278Y0239382D01*
X0017348Y0239488D01*
X0017421Y0239592D01*
X0017497Y0239693D01*
X0017576Y0239792D01*
X0017658Y0239888D01*
X0017744Y0239982D01*
X0017832Y0240073D01*
X0017923Y0240161D01*
X0018017Y0240247D01*
X0018113Y0240329D01*
X0018212Y0240408D01*
X0018313Y0240484D01*
X0018417Y0240557D01*
X0018523Y0240627D01*
X0018631Y0240693D01*
X0018741Y0240756D01*
X0018853Y0240815D01*
X0018967Y0240871D01*
X0019083Y0240923D01*
X0019200Y0240972D01*
X0019318Y0241016D01*
X0019438Y0241058D01*
X0019559Y0241095D01*
X0019682Y0241128D01*
X0019805Y0241158D01*
X0019929Y0241184D01*
X0020054Y0241205D01*
X0020179Y0241223D01*
X0020305Y0241237D01*
X0020432Y0241247D01*
X0020558Y0241253D01*
X0020685Y0241255D01*
X0020812Y0241253D01*
X0020938Y0241247D01*
X0021065Y0241237D01*
X0021191Y0241223D01*
X0021316Y0241205D01*
X0021441Y0241184D01*
X0021565Y0241158D01*
X0021688Y0241128D01*
X0021811Y0241095D01*
X0021932Y0241058D01*
X0022052Y0241016D01*
X0022170Y0240972D01*
X0022287Y0240923D01*
X0022403Y0240871D01*
X0022517Y0240815D01*
X0022629Y0240756D01*
X0022739Y0240693D01*
X0022847Y0240627D01*
X0022953Y0240557D01*
X0023057Y0240484D01*
X0023158Y0240408D01*
X0023257Y0240329D01*
X0023353Y0240247D01*
X0023447Y0240161D01*
X0023538Y0240073D01*
X0023626Y0239982D01*
X0023712Y0239888D01*
X0023794Y0239792D01*
X0023873Y0239693D01*
X0023949Y0239592D01*
X0024022Y0239488D01*
X0024092Y0239382D01*
X0024158Y0239274D01*
X0024221Y0239164D01*
X0024280Y0239052D01*
X0024336Y0238938D01*
X0024388Y0238822D01*
X0024437Y0238705D01*
X0024481Y0238587D01*
X0024523Y0238467D01*
X0024560Y0238346D01*
X0024593Y0238223D01*
X0024623Y0238100D01*
X0024649Y0237976D01*
X0024670Y0237851D01*
X0024688Y0237726D01*
X0024702Y0237600D01*
X0024712Y0237473D01*
X0024718Y0237347D01*
X0024720Y0237220D01*
X0024718Y0237093D01*
X0024712Y0236967D01*
X0024702Y0236840D01*
X0024688Y0236714D01*
X0024670Y0236589D01*
X0024649Y0236464D01*
X0024623Y0236340D01*
X0024593Y0236217D01*
X0024560Y0236094D01*
X0024523Y0235973D01*
X0024481Y0235853D01*
X0024437Y0235735D01*
X0024388Y0235618D01*
X0024336Y0235502D01*
X0024280Y0235388D01*
X0024221Y0235276D01*
X0024158Y0235166D01*
X0024092Y0235058D01*
X0024022Y0234952D01*
X0023949Y0234848D01*
X0023873Y0234747D01*
X0023794Y0234648D01*
X0023712Y0234552D01*
X0023626Y0234458D01*
X0023538Y0234367D01*
X0023447Y0234279D01*
X0023353Y0234193D01*
X0023257Y0234111D01*
X0023158Y0234032D01*
X0023057Y0233956D01*
X0022953Y0233883D01*
X0022847Y0233813D01*
X0022739Y0233747D01*
X0022629Y0233684D01*
X0022517Y0233625D01*
X0022403Y0233569D01*
X0022287Y0233517D01*
X0022170Y0233468D01*
X0022052Y0233424D01*
X0021932Y0233382D01*
X0021811Y0233345D01*
X0021688Y0233312D01*
X0021565Y0233282D01*
X0021441Y0233256D01*
X0021316Y0233235D01*
X0021191Y0233217D01*
X0021065Y0233203D01*
X0020938Y0233193D01*
X0020812Y0233187D01*
X0020685Y0233185D01*
X0020558Y0233187D01*
X0020432Y0233193D01*
X0020305Y0233203D01*
X0020179Y0233217D01*
X0020054Y0233235D01*
X0019929Y0233256D01*
X0019805Y0233282D01*
X0019682Y0233312D01*
X0019559Y0233345D01*
X0019438Y0233382D01*
X0019318Y0233424D01*
X0019200Y0233468D01*
X0019083Y0233517D01*
X0018967Y0233569D01*
X0018853Y0233625D01*
X0018741Y0233684D01*
X0018631Y0233747D01*
X0018523Y0233813D01*
X0018417Y0233883D01*
X0018313Y0233956D01*
X0018212Y0234032D01*
X0018113Y0234111D01*
X0018017Y0234193D01*
X0017923Y0234279D01*
X0017832Y0234367D01*
X0017744Y0234458D01*
X0017658Y0234552D01*
X0017576Y0234648D01*
X0017497Y0234747D01*
X0017421Y0234848D01*
X0017348Y0234952D01*
X0017278Y0235058D01*
X0017212Y0235166D01*
X0017149Y0235276D01*
X0017090Y0235388D01*
X0017034Y0235502D01*
X0016982Y0235618D01*
X0016933Y0235735D01*
X0016889Y0235853D01*
X0016847Y0235973D01*
X0016810Y0236094D01*
X0016777Y0236217D01*
X0016747Y0236340D01*
X0016721Y0236464D01*
X0016700Y0236589D01*
X0016682Y0236714D01*
X0016668Y0236840D01*
X0016658Y0236967D01*
X0016652Y0237093D01*
X0016650Y0237220D01*
M02*
