G75*
%MOIN*%
%OFA0B0*%
%FSLAX25Y25*%
%IPPOS*%
%LPD*%
%AMOC8*
5,1,8,0,0,1.08239X$1,22.5*
%
%ADD10C,0.00400*%
%ADD11C,0.00800*%
%ADD12C,0.00500*%
%ADD13C,0.00591*%
%ADD14C,0.00600*%
%ADD15C,0.00300*%
%ADD16C,0.00394*%
D10*
X0015235Y0030885D02*
X0017791Y0030885D01*
X0016513Y0030885D02*
X0016513Y0035485D01*
X0015235Y0034463D01*
X0012929Y0032802D02*
X0011524Y0033568D01*
X0012035Y0035485D02*
X0012117Y0035483D01*
X0012199Y0035478D01*
X0012281Y0035469D01*
X0012362Y0035457D01*
X0012443Y0035441D01*
X0012523Y0035422D01*
X0012602Y0035399D01*
X0012680Y0035373D01*
X0012757Y0035344D01*
X0012832Y0035311D01*
X0012906Y0035275D01*
X0012979Y0035237D01*
X0013050Y0035195D01*
X0013118Y0035150D01*
X0013185Y0035102D01*
X0011524Y0033569D02*
X0011470Y0033603D01*
X0011419Y0033640D01*
X0011370Y0033680D01*
X0011323Y0033723D01*
X0011280Y0033769D01*
X0011239Y0033817D01*
X0011201Y0033868D01*
X0011166Y0033921D01*
X0011134Y0033976D01*
X0011106Y0034033D01*
X0011082Y0034091D01*
X0011061Y0034151D01*
X0011044Y0034212D01*
X0011030Y0034274D01*
X0011021Y0034337D01*
X0011015Y0034400D01*
X0011013Y0034463D01*
X0011015Y0034525D01*
X0011020Y0034586D01*
X0011030Y0034647D01*
X0011043Y0034708D01*
X0011059Y0034767D01*
X0011079Y0034825D01*
X0011103Y0034882D01*
X0011130Y0034938D01*
X0011160Y0034992D01*
X0011194Y0035044D01*
X0011231Y0035093D01*
X0011270Y0035141D01*
X0011312Y0035186D01*
X0011357Y0035228D01*
X0011405Y0035268D01*
X0011454Y0035304D01*
X0011506Y0035338D01*
X0011560Y0035368D01*
X0011616Y0035395D01*
X0011673Y0035419D01*
X0011731Y0035439D01*
X0011790Y0035455D01*
X0011851Y0035468D01*
X0011912Y0035478D01*
X0011973Y0035483D01*
X0012035Y0035485D01*
X0010885Y0031525D02*
X0010949Y0031462D01*
X0011017Y0031403D01*
X0011086Y0031346D01*
X0011158Y0031292D01*
X0011232Y0031241D01*
X0011308Y0031193D01*
X0011385Y0031149D01*
X0011465Y0031108D01*
X0011546Y0031070D01*
X0011629Y0031035D01*
X0011713Y0031004D01*
X0011799Y0030977D01*
X0011885Y0030953D01*
X0011973Y0030932D01*
X0012061Y0030916D01*
X0012150Y0030903D01*
X0012239Y0030893D01*
X0012328Y0030888D01*
X0012418Y0030886D01*
X0012418Y0030885D02*
X0012480Y0030887D01*
X0012541Y0030892D01*
X0012602Y0030902D01*
X0012663Y0030915D01*
X0012722Y0030931D01*
X0012780Y0030951D01*
X0012837Y0030975D01*
X0012893Y0031002D01*
X0012947Y0031032D01*
X0012999Y0031066D01*
X0013048Y0031102D01*
X0013096Y0031142D01*
X0013141Y0031184D01*
X0013183Y0031229D01*
X0013223Y0031277D01*
X0013259Y0031326D01*
X0013293Y0031378D01*
X0013323Y0031432D01*
X0013350Y0031488D01*
X0013374Y0031545D01*
X0013394Y0031603D01*
X0013410Y0031662D01*
X0013423Y0031723D01*
X0013433Y0031784D01*
X0013438Y0031845D01*
X0013440Y0031907D01*
X0013438Y0031970D01*
X0013432Y0032033D01*
X0013423Y0032096D01*
X0013409Y0032158D01*
X0013392Y0032219D01*
X0013371Y0032279D01*
X0013347Y0032337D01*
X0013319Y0032394D01*
X0013287Y0032449D01*
X0013252Y0032502D01*
X0013214Y0032553D01*
X0013173Y0032601D01*
X0013130Y0032647D01*
X0013083Y0032690D01*
X0013034Y0032730D01*
X0012983Y0032767D01*
X0012929Y0032801D01*
X0050894Y0033568D02*
X0052300Y0032802D01*
X0051788Y0030886D02*
X0051698Y0030888D01*
X0051609Y0030893D01*
X0051520Y0030903D01*
X0051431Y0030916D01*
X0051343Y0030932D01*
X0051255Y0030953D01*
X0051169Y0030977D01*
X0051083Y0031004D01*
X0050999Y0031035D01*
X0050916Y0031070D01*
X0050835Y0031108D01*
X0050755Y0031149D01*
X0050678Y0031193D01*
X0050602Y0031241D01*
X0050528Y0031292D01*
X0050456Y0031346D01*
X0050387Y0031403D01*
X0050319Y0031462D01*
X0050255Y0031525D01*
X0052299Y0032801D02*
X0052353Y0032767D01*
X0052404Y0032730D01*
X0052453Y0032690D01*
X0052500Y0032647D01*
X0052543Y0032601D01*
X0052584Y0032553D01*
X0052622Y0032502D01*
X0052657Y0032449D01*
X0052689Y0032394D01*
X0052717Y0032337D01*
X0052741Y0032279D01*
X0052762Y0032219D01*
X0052779Y0032158D01*
X0052793Y0032096D01*
X0052802Y0032033D01*
X0052808Y0031970D01*
X0052810Y0031907D01*
X0052808Y0031845D01*
X0052803Y0031784D01*
X0052793Y0031723D01*
X0052780Y0031662D01*
X0052764Y0031603D01*
X0052744Y0031545D01*
X0052720Y0031488D01*
X0052693Y0031432D01*
X0052663Y0031378D01*
X0052629Y0031326D01*
X0052593Y0031277D01*
X0052553Y0031229D01*
X0052511Y0031184D01*
X0052466Y0031142D01*
X0052418Y0031102D01*
X0052369Y0031066D01*
X0052317Y0031032D01*
X0052263Y0031002D01*
X0052207Y0030975D01*
X0052150Y0030951D01*
X0052092Y0030931D01*
X0052033Y0030915D01*
X0051972Y0030902D01*
X0051911Y0030892D01*
X0051850Y0030887D01*
X0051788Y0030885D01*
X0052555Y0035102D02*
X0052488Y0035150D01*
X0052420Y0035195D01*
X0052349Y0035237D01*
X0052276Y0035275D01*
X0052202Y0035311D01*
X0052127Y0035344D01*
X0052050Y0035373D01*
X0051972Y0035399D01*
X0051893Y0035422D01*
X0051813Y0035441D01*
X0051732Y0035457D01*
X0051651Y0035469D01*
X0051569Y0035478D01*
X0051487Y0035483D01*
X0051405Y0035485D01*
X0051343Y0035483D01*
X0051282Y0035478D01*
X0051221Y0035468D01*
X0051160Y0035455D01*
X0051101Y0035439D01*
X0051043Y0035419D01*
X0050986Y0035395D01*
X0050930Y0035368D01*
X0050876Y0035338D01*
X0050824Y0035304D01*
X0050775Y0035268D01*
X0050727Y0035228D01*
X0050682Y0035186D01*
X0050640Y0035141D01*
X0050601Y0035093D01*
X0050564Y0035044D01*
X0050530Y0034992D01*
X0050500Y0034938D01*
X0050473Y0034882D01*
X0050449Y0034825D01*
X0050429Y0034767D01*
X0050413Y0034708D01*
X0050400Y0034647D01*
X0050390Y0034586D01*
X0050385Y0034525D01*
X0050383Y0034463D01*
X0050385Y0034400D01*
X0050391Y0034337D01*
X0050400Y0034274D01*
X0050414Y0034212D01*
X0050431Y0034151D01*
X0050452Y0034091D01*
X0050476Y0034033D01*
X0050504Y0033976D01*
X0050536Y0033921D01*
X0050571Y0033868D01*
X0050609Y0033817D01*
X0050650Y0033769D01*
X0050693Y0033723D01*
X0050740Y0033680D01*
X0050789Y0033640D01*
X0050840Y0033603D01*
X0050894Y0033569D01*
X0054605Y0033441D02*
X0054605Y0035485D01*
X0057161Y0035485D01*
X0056138Y0033441D02*
X0054605Y0033441D01*
X0056138Y0033440D02*
X0056200Y0033438D01*
X0056261Y0033433D01*
X0056322Y0033423D01*
X0056383Y0033410D01*
X0056442Y0033394D01*
X0056500Y0033374D01*
X0056557Y0033350D01*
X0056613Y0033323D01*
X0056667Y0033293D01*
X0056719Y0033259D01*
X0056768Y0033223D01*
X0056816Y0033183D01*
X0056861Y0033141D01*
X0056903Y0033096D01*
X0056943Y0033048D01*
X0056979Y0032999D01*
X0057013Y0032947D01*
X0057043Y0032893D01*
X0057070Y0032837D01*
X0057094Y0032780D01*
X0057114Y0032722D01*
X0057130Y0032663D01*
X0057143Y0032602D01*
X0057153Y0032541D01*
X0057158Y0032480D01*
X0057160Y0032418D01*
X0057161Y0032418D02*
X0057161Y0031907D01*
X0057160Y0031907D02*
X0057158Y0031845D01*
X0057153Y0031784D01*
X0057143Y0031723D01*
X0057130Y0031662D01*
X0057114Y0031603D01*
X0057094Y0031545D01*
X0057070Y0031488D01*
X0057043Y0031432D01*
X0057013Y0031378D01*
X0056979Y0031326D01*
X0056943Y0031277D01*
X0056903Y0031229D01*
X0056861Y0031184D01*
X0056816Y0031142D01*
X0056768Y0031102D01*
X0056719Y0031066D01*
X0056667Y0031032D01*
X0056613Y0031002D01*
X0056557Y0030975D01*
X0056500Y0030951D01*
X0056442Y0030931D01*
X0056383Y0030915D01*
X0056322Y0030902D01*
X0056261Y0030892D01*
X0056200Y0030887D01*
X0056138Y0030885D01*
X0054605Y0030885D01*
X0083776Y0073638D02*
X0086728Y0073638D01*
X0086728Y0076394D02*
X0083776Y0076394D01*
X0097260Y0087713D02*
X0097260Y0090665D01*
X0100016Y0090665D02*
X0100016Y0087713D01*
X0090370Y0102673D02*
X0090370Y0104051D01*
X0088795Y0104051D02*
X0088795Y0102673D01*
X0087024Y0101886D02*
X0087024Y0104839D01*
X0084268Y0104839D02*
X0084268Y0101886D01*
X0094012Y0117732D02*
X0096965Y0117732D01*
X0096965Y0120488D02*
X0094012Y0120488D01*
X0110449Y0110744D02*
X0110449Y0109366D01*
X0112024Y0109366D02*
X0112024Y0110744D01*
X0093028Y0172850D02*
X0090075Y0172850D01*
X0090075Y0175606D02*
X0093028Y0175606D01*
X0151288Y0230419D02*
X0152693Y0229652D01*
X0152182Y0227736D02*
X0152092Y0227738D01*
X0152003Y0227743D01*
X0151914Y0227753D01*
X0151825Y0227766D01*
X0151737Y0227782D01*
X0151649Y0227803D01*
X0151563Y0227827D01*
X0151477Y0227854D01*
X0151393Y0227885D01*
X0151310Y0227920D01*
X0151229Y0227958D01*
X0151149Y0227999D01*
X0151072Y0228043D01*
X0150996Y0228091D01*
X0150922Y0228142D01*
X0150850Y0228196D01*
X0150781Y0228253D01*
X0150713Y0228312D01*
X0150649Y0228375D01*
X0152693Y0229652D02*
X0152747Y0229618D01*
X0152798Y0229581D01*
X0152847Y0229541D01*
X0152894Y0229498D01*
X0152937Y0229452D01*
X0152978Y0229404D01*
X0153016Y0229353D01*
X0153051Y0229300D01*
X0153083Y0229245D01*
X0153111Y0229188D01*
X0153135Y0229130D01*
X0153156Y0229070D01*
X0153173Y0229009D01*
X0153187Y0228947D01*
X0153196Y0228884D01*
X0153202Y0228821D01*
X0153204Y0228758D01*
X0153202Y0228696D01*
X0153197Y0228635D01*
X0153187Y0228574D01*
X0153174Y0228513D01*
X0153158Y0228454D01*
X0153138Y0228396D01*
X0153114Y0228339D01*
X0153087Y0228283D01*
X0153057Y0228229D01*
X0153023Y0228177D01*
X0152987Y0228128D01*
X0152947Y0228080D01*
X0152905Y0228035D01*
X0152860Y0227993D01*
X0152812Y0227953D01*
X0152763Y0227917D01*
X0152711Y0227883D01*
X0152657Y0227853D01*
X0152601Y0227826D01*
X0152544Y0227802D01*
X0152486Y0227782D01*
X0152427Y0227766D01*
X0152366Y0227753D01*
X0152305Y0227743D01*
X0152244Y0227738D01*
X0152182Y0227736D01*
X0152949Y0231953D02*
X0152882Y0232001D01*
X0152814Y0232046D01*
X0152743Y0232088D01*
X0152670Y0232126D01*
X0152596Y0232162D01*
X0152521Y0232195D01*
X0152444Y0232224D01*
X0152366Y0232250D01*
X0152287Y0232273D01*
X0152207Y0232292D01*
X0152126Y0232308D01*
X0152045Y0232320D01*
X0151963Y0232329D01*
X0151881Y0232334D01*
X0151799Y0232336D01*
X0151799Y0232335D02*
X0151737Y0232333D01*
X0151676Y0232328D01*
X0151615Y0232318D01*
X0151554Y0232305D01*
X0151495Y0232289D01*
X0151437Y0232269D01*
X0151380Y0232245D01*
X0151324Y0232218D01*
X0151270Y0232188D01*
X0151218Y0232154D01*
X0151169Y0232118D01*
X0151121Y0232078D01*
X0151076Y0232036D01*
X0151034Y0231991D01*
X0150995Y0231943D01*
X0150958Y0231894D01*
X0150924Y0231842D01*
X0150894Y0231788D01*
X0150867Y0231732D01*
X0150843Y0231675D01*
X0150823Y0231617D01*
X0150807Y0231558D01*
X0150794Y0231497D01*
X0150784Y0231436D01*
X0150779Y0231375D01*
X0150777Y0231313D01*
X0150779Y0231250D01*
X0150785Y0231187D01*
X0150794Y0231124D01*
X0150808Y0231062D01*
X0150825Y0231001D01*
X0150846Y0230941D01*
X0150870Y0230883D01*
X0150898Y0230826D01*
X0150930Y0230771D01*
X0150965Y0230718D01*
X0151003Y0230667D01*
X0151044Y0230619D01*
X0151087Y0230573D01*
X0151134Y0230530D01*
X0151183Y0230490D01*
X0151234Y0230453D01*
X0151288Y0230419D01*
X0154999Y0231824D02*
X0154999Y0232335D01*
X0157554Y0232335D01*
X0156277Y0227735D01*
X0154999Y0274980D02*
X0157554Y0274980D01*
X0154999Y0274980D02*
X0157171Y0277535D01*
X0156404Y0279579D02*
X0156330Y0279577D01*
X0156256Y0279572D01*
X0156182Y0279562D01*
X0156109Y0279549D01*
X0156036Y0279533D01*
X0155965Y0279512D01*
X0155895Y0279488D01*
X0155826Y0279461D01*
X0155758Y0279430D01*
X0155692Y0279396D01*
X0155628Y0279359D01*
X0155566Y0279318D01*
X0155506Y0279274D01*
X0155448Y0279228D01*
X0155392Y0279178D01*
X0155339Y0279126D01*
X0155289Y0279071D01*
X0155242Y0279014D01*
X0155198Y0278954D01*
X0155156Y0278892D01*
X0155118Y0278829D01*
X0155083Y0278763D01*
X0155052Y0278696D01*
X0155024Y0278627D01*
X0154999Y0278557D01*
X0157171Y0277536D02*
X0157218Y0277583D01*
X0157262Y0277633D01*
X0157304Y0277685D01*
X0157343Y0277739D01*
X0157378Y0277795D01*
X0157411Y0277853D01*
X0157441Y0277913D01*
X0157467Y0277974D01*
X0157490Y0278037D01*
X0157509Y0278101D01*
X0157525Y0278165D01*
X0157538Y0278231D01*
X0157547Y0278297D01*
X0157552Y0278363D01*
X0157554Y0278430D01*
X0157552Y0278497D01*
X0157546Y0278564D01*
X0157537Y0278630D01*
X0157523Y0278695D01*
X0157506Y0278760D01*
X0157485Y0278823D01*
X0157460Y0278885D01*
X0157432Y0278946D01*
X0157400Y0279005D01*
X0157365Y0279062D01*
X0157326Y0279117D01*
X0157285Y0279169D01*
X0157240Y0279219D01*
X0157193Y0279266D01*
X0157143Y0279311D01*
X0157091Y0279352D01*
X0157036Y0279391D01*
X0156979Y0279426D01*
X0156920Y0279458D01*
X0156859Y0279486D01*
X0156797Y0279511D01*
X0156734Y0279532D01*
X0156669Y0279549D01*
X0156604Y0279563D01*
X0156538Y0279572D01*
X0156471Y0279578D01*
X0156404Y0279580D01*
X0152693Y0276896D02*
X0151288Y0277663D01*
X0151799Y0279580D02*
X0151881Y0279578D01*
X0151963Y0279573D01*
X0152045Y0279564D01*
X0152126Y0279552D01*
X0152207Y0279536D01*
X0152287Y0279517D01*
X0152366Y0279494D01*
X0152444Y0279468D01*
X0152521Y0279439D01*
X0152596Y0279406D01*
X0152670Y0279370D01*
X0152743Y0279332D01*
X0152814Y0279290D01*
X0152882Y0279245D01*
X0152949Y0279197D01*
X0151288Y0277663D02*
X0151234Y0277697D01*
X0151183Y0277734D01*
X0151134Y0277774D01*
X0151087Y0277817D01*
X0151044Y0277863D01*
X0151003Y0277911D01*
X0150965Y0277962D01*
X0150930Y0278015D01*
X0150898Y0278070D01*
X0150870Y0278127D01*
X0150846Y0278185D01*
X0150825Y0278245D01*
X0150808Y0278306D01*
X0150794Y0278368D01*
X0150785Y0278431D01*
X0150779Y0278494D01*
X0150777Y0278557D01*
X0150779Y0278619D01*
X0150784Y0278680D01*
X0150794Y0278741D01*
X0150807Y0278802D01*
X0150823Y0278861D01*
X0150843Y0278919D01*
X0150867Y0278976D01*
X0150894Y0279032D01*
X0150924Y0279086D01*
X0150958Y0279138D01*
X0150995Y0279187D01*
X0151034Y0279235D01*
X0151076Y0279280D01*
X0151121Y0279322D01*
X0151169Y0279362D01*
X0151218Y0279398D01*
X0151270Y0279432D01*
X0151324Y0279462D01*
X0151380Y0279489D01*
X0151437Y0279513D01*
X0151495Y0279533D01*
X0151554Y0279549D01*
X0151615Y0279562D01*
X0151676Y0279572D01*
X0151737Y0279577D01*
X0151799Y0279579D01*
X0150649Y0275619D02*
X0150713Y0275556D01*
X0150781Y0275497D01*
X0150850Y0275440D01*
X0150922Y0275386D01*
X0150996Y0275335D01*
X0151072Y0275287D01*
X0151149Y0275243D01*
X0151229Y0275202D01*
X0151310Y0275164D01*
X0151393Y0275129D01*
X0151477Y0275098D01*
X0151563Y0275071D01*
X0151649Y0275047D01*
X0151737Y0275026D01*
X0151825Y0275010D01*
X0151914Y0274997D01*
X0152003Y0274987D01*
X0152092Y0274982D01*
X0152182Y0274980D01*
X0152244Y0274982D01*
X0152305Y0274987D01*
X0152366Y0274997D01*
X0152427Y0275010D01*
X0152486Y0275026D01*
X0152544Y0275046D01*
X0152601Y0275070D01*
X0152657Y0275097D01*
X0152711Y0275127D01*
X0152763Y0275161D01*
X0152812Y0275197D01*
X0152860Y0275237D01*
X0152905Y0275279D01*
X0152947Y0275324D01*
X0152987Y0275372D01*
X0153023Y0275421D01*
X0153057Y0275473D01*
X0153087Y0275527D01*
X0153114Y0275583D01*
X0153138Y0275640D01*
X0153158Y0275698D01*
X0153174Y0275757D01*
X0153187Y0275818D01*
X0153197Y0275879D01*
X0153202Y0275940D01*
X0153204Y0276002D01*
X0153202Y0276065D01*
X0153196Y0276128D01*
X0153187Y0276191D01*
X0153173Y0276253D01*
X0153156Y0276314D01*
X0153135Y0276374D01*
X0153111Y0276432D01*
X0153083Y0276489D01*
X0153051Y0276544D01*
X0153016Y0276597D01*
X0152978Y0276648D01*
X0152937Y0276696D01*
X0152894Y0276742D01*
X0152847Y0276785D01*
X0152798Y0276825D01*
X0152747Y0276862D01*
X0152693Y0276896D01*
X0055192Y0276513D02*
X0055192Y0276257D01*
X0055192Y0276513D02*
X0055190Y0276575D01*
X0055185Y0276636D01*
X0055175Y0276697D01*
X0055162Y0276758D01*
X0055146Y0276817D01*
X0055126Y0276875D01*
X0055102Y0276932D01*
X0055075Y0276988D01*
X0055045Y0277042D01*
X0055011Y0277094D01*
X0054975Y0277143D01*
X0054935Y0277191D01*
X0054893Y0277236D01*
X0054848Y0277278D01*
X0054800Y0277318D01*
X0054751Y0277354D01*
X0054699Y0277388D01*
X0054645Y0277418D01*
X0054589Y0277445D01*
X0054532Y0277469D01*
X0054474Y0277489D01*
X0054415Y0277505D01*
X0054354Y0277518D01*
X0054293Y0277528D01*
X0054232Y0277533D01*
X0054170Y0277535D01*
X0052637Y0277535D01*
X0052637Y0276257D01*
X0052636Y0276257D02*
X0052638Y0276187D01*
X0052644Y0276116D01*
X0052653Y0276047D01*
X0052667Y0275978D01*
X0052684Y0275909D01*
X0052705Y0275842D01*
X0052730Y0275776D01*
X0052758Y0275712D01*
X0052790Y0275649D01*
X0052825Y0275588D01*
X0052864Y0275529D01*
X0052905Y0275472D01*
X0052950Y0275418D01*
X0052998Y0275366D01*
X0053048Y0275317D01*
X0053102Y0275270D01*
X0053157Y0275227D01*
X0053215Y0275187D01*
X0053275Y0275150D01*
X0053337Y0275117D01*
X0053401Y0275087D01*
X0053466Y0275060D01*
X0053532Y0275037D01*
X0053600Y0275018D01*
X0053669Y0275003D01*
X0053738Y0274991D01*
X0053808Y0274983D01*
X0053879Y0274979D01*
X0053949Y0274979D01*
X0054020Y0274983D01*
X0054090Y0274991D01*
X0054159Y0275003D01*
X0054228Y0275018D01*
X0054296Y0275037D01*
X0054362Y0275060D01*
X0054427Y0275087D01*
X0054491Y0275117D01*
X0054553Y0275150D01*
X0054613Y0275187D01*
X0054671Y0275227D01*
X0054726Y0275270D01*
X0054780Y0275317D01*
X0054830Y0275366D01*
X0054878Y0275418D01*
X0054923Y0275472D01*
X0054964Y0275529D01*
X0055003Y0275588D01*
X0055038Y0275649D01*
X0055070Y0275712D01*
X0055098Y0275776D01*
X0055123Y0275842D01*
X0055144Y0275909D01*
X0055161Y0275978D01*
X0055175Y0276047D01*
X0055184Y0276116D01*
X0055190Y0276187D01*
X0055192Y0276257D01*
X0052637Y0277535D02*
X0052639Y0277624D01*
X0052645Y0277713D01*
X0052654Y0277802D01*
X0052668Y0277890D01*
X0052685Y0277977D01*
X0052707Y0278064D01*
X0052732Y0278150D01*
X0052760Y0278234D01*
X0052793Y0278317D01*
X0052829Y0278399D01*
X0052868Y0278479D01*
X0052911Y0278557D01*
X0052957Y0278633D01*
X0053007Y0278707D01*
X0053059Y0278779D01*
X0053115Y0278849D01*
X0053174Y0278916D01*
X0053236Y0278980D01*
X0053300Y0279042D01*
X0053367Y0279101D01*
X0053437Y0279157D01*
X0053509Y0279209D01*
X0053583Y0279259D01*
X0053659Y0279305D01*
X0053737Y0279348D01*
X0053817Y0279387D01*
X0053899Y0279423D01*
X0053982Y0279456D01*
X0054066Y0279484D01*
X0054152Y0279509D01*
X0054239Y0279531D01*
X0054326Y0279548D01*
X0054414Y0279562D01*
X0054503Y0279571D01*
X0054592Y0279577D01*
X0054681Y0279579D01*
X0050331Y0276896D02*
X0048925Y0277663D01*
X0049437Y0279580D02*
X0049519Y0279578D01*
X0049601Y0279573D01*
X0049683Y0279564D01*
X0049764Y0279552D01*
X0049845Y0279536D01*
X0049925Y0279517D01*
X0050004Y0279494D01*
X0050082Y0279468D01*
X0050159Y0279439D01*
X0050234Y0279406D01*
X0050308Y0279370D01*
X0050381Y0279332D01*
X0050452Y0279290D01*
X0050520Y0279245D01*
X0050587Y0279197D01*
X0048926Y0277663D02*
X0048872Y0277697D01*
X0048821Y0277734D01*
X0048772Y0277774D01*
X0048725Y0277817D01*
X0048682Y0277863D01*
X0048641Y0277911D01*
X0048603Y0277962D01*
X0048568Y0278015D01*
X0048536Y0278070D01*
X0048508Y0278127D01*
X0048484Y0278185D01*
X0048463Y0278245D01*
X0048446Y0278306D01*
X0048432Y0278368D01*
X0048423Y0278431D01*
X0048417Y0278494D01*
X0048415Y0278557D01*
X0048417Y0278619D01*
X0048422Y0278680D01*
X0048432Y0278741D01*
X0048445Y0278802D01*
X0048461Y0278861D01*
X0048481Y0278919D01*
X0048505Y0278976D01*
X0048532Y0279032D01*
X0048562Y0279086D01*
X0048596Y0279138D01*
X0048633Y0279187D01*
X0048672Y0279235D01*
X0048714Y0279280D01*
X0048759Y0279322D01*
X0048807Y0279362D01*
X0048856Y0279398D01*
X0048908Y0279432D01*
X0048962Y0279462D01*
X0049018Y0279489D01*
X0049075Y0279513D01*
X0049133Y0279533D01*
X0049192Y0279549D01*
X0049253Y0279562D01*
X0049314Y0279572D01*
X0049375Y0279577D01*
X0049437Y0279579D01*
X0048287Y0275619D02*
X0048351Y0275556D01*
X0048419Y0275497D01*
X0048488Y0275440D01*
X0048560Y0275386D01*
X0048634Y0275335D01*
X0048710Y0275287D01*
X0048787Y0275243D01*
X0048867Y0275202D01*
X0048948Y0275164D01*
X0049031Y0275129D01*
X0049115Y0275098D01*
X0049201Y0275071D01*
X0049287Y0275047D01*
X0049375Y0275026D01*
X0049463Y0275010D01*
X0049552Y0274997D01*
X0049641Y0274987D01*
X0049730Y0274982D01*
X0049820Y0274980D01*
X0049882Y0274982D01*
X0049943Y0274987D01*
X0050004Y0274997D01*
X0050065Y0275010D01*
X0050124Y0275026D01*
X0050182Y0275046D01*
X0050239Y0275070D01*
X0050295Y0275097D01*
X0050349Y0275127D01*
X0050401Y0275161D01*
X0050450Y0275197D01*
X0050498Y0275237D01*
X0050543Y0275279D01*
X0050585Y0275324D01*
X0050625Y0275372D01*
X0050661Y0275421D01*
X0050695Y0275473D01*
X0050725Y0275527D01*
X0050752Y0275583D01*
X0050776Y0275640D01*
X0050796Y0275698D01*
X0050812Y0275757D01*
X0050825Y0275818D01*
X0050835Y0275879D01*
X0050840Y0275940D01*
X0050842Y0276002D01*
X0050840Y0276065D01*
X0050834Y0276128D01*
X0050825Y0276191D01*
X0050811Y0276253D01*
X0050794Y0276314D01*
X0050773Y0276374D01*
X0050749Y0276432D01*
X0050721Y0276489D01*
X0050689Y0276544D01*
X0050654Y0276597D01*
X0050616Y0276648D01*
X0050575Y0276696D01*
X0050532Y0276742D01*
X0050485Y0276785D01*
X0050436Y0276825D01*
X0050385Y0276862D01*
X0050331Y0276896D01*
X0021768Y0247020D02*
X0020235Y0247020D01*
X0021768Y0247020D02*
X0021831Y0247018D01*
X0021894Y0247012D01*
X0021956Y0247003D01*
X0022017Y0246989D01*
X0022078Y0246972D01*
X0022137Y0246951D01*
X0022195Y0246926D01*
X0022252Y0246898D01*
X0022306Y0246867D01*
X0022358Y0246832D01*
X0022409Y0246794D01*
X0022457Y0246753D01*
X0022502Y0246709D01*
X0022544Y0246663D01*
X0022584Y0246614D01*
X0022620Y0246563D01*
X0022653Y0246509D01*
X0022683Y0246454D01*
X0022709Y0246396D01*
X0022732Y0246338D01*
X0022751Y0246278D01*
X0022766Y0246217D01*
X0022778Y0246155D01*
X0022786Y0246092D01*
X0022790Y0246029D01*
X0022790Y0245967D01*
X0022786Y0245904D01*
X0022778Y0245841D01*
X0022766Y0245779D01*
X0022751Y0245718D01*
X0022732Y0245658D01*
X0022709Y0245600D01*
X0022683Y0245542D01*
X0022653Y0245487D01*
X0022620Y0245433D01*
X0022584Y0245382D01*
X0022544Y0245333D01*
X0022502Y0245287D01*
X0022457Y0245243D01*
X0022409Y0245202D01*
X0022358Y0245164D01*
X0022306Y0245129D01*
X0022252Y0245098D01*
X0022195Y0245070D01*
X0022137Y0245045D01*
X0022078Y0245024D01*
X0022017Y0245007D01*
X0021956Y0244993D01*
X0021894Y0244984D01*
X0021831Y0244978D01*
X0021768Y0244976D01*
X0020746Y0244976D01*
X0021513Y0244976D02*
X0021583Y0244974D01*
X0021654Y0244968D01*
X0021723Y0244959D01*
X0021792Y0244945D01*
X0021861Y0244928D01*
X0021928Y0244907D01*
X0021994Y0244882D01*
X0022058Y0244854D01*
X0022121Y0244822D01*
X0022182Y0244787D01*
X0022241Y0244748D01*
X0022298Y0244707D01*
X0022352Y0244662D01*
X0022404Y0244614D01*
X0022453Y0244564D01*
X0022500Y0244510D01*
X0022543Y0244455D01*
X0022583Y0244397D01*
X0022620Y0244337D01*
X0022653Y0244275D01*
X0022683Y0244211D01*
X0022710Y0244146D01*
X0022733Y0244080D01*
X0022752Y0244012D01*
X0022767Y0243943D01*
X0022779Y0243874D01*
X0022787Y0243804D01*
X0022791Y0243733D01*
X0022791Y0243663D01*
X0022787Y0243592D01*
X0022779Y0243522D01*
X0022767Y0243453D01*
X0022752Y0243384D01*
X0022733Y0243316D01*
X0022710Y0243250D01*
X0022683Y0243185D01*
X0022653Y0243121D01*
X0022620Y0243059D01*
X0022583Y0242999D01*
X0022543Y0242941D01*
X0022500Y0242886D01*
X0022453Y0242832D01*
X0022404Y0242782D01*
X0022352Y0242734D01*
X0022298Y0242689D01*
X0022241Y0242648D01*
X0022182Y0242609D01*
X0022121Y0242574D01*
X0022058Y0242542D01*
X0021994Y0242514D01*
X0021928Y0242489D01*
X0021861Y0242468D01*
X0021792Y0242451D01*
X0021723Y0242437D01*
X0021654Y0242428D01*
X0021583Y0242422D01*
X0021513Y0242420D01*
X0020235Y0242420D01*
X0018440Y0243443D02*
X0018438Y0243381D01*
X0018433Y0243320D01*
X0018423Y0243259D01*
X0018410Y0243198D01*
X0018394Y0243139D01*
X0018374Y0243081D01*
X0018350Y0243024D01*
X0018323Y0242968D01*
X0018293Y0242914D01*
X0018259Y0242862D01*
X0018223Y0242813D01*
X0018183Y0242765D01*
X0018141Y0242720D01*
X0018096Y0242678D01*
X0018048Y0242638D01*
X0017999Y0242602D01*
X0017947Y0242568D01*
X0017893Y0242538D01*
X0017837Y0242511D01*
X0017780Y0242487D01*
X0017722Y0242467D01*
X0017663Y0242451D01*
X0017602Y0242438D01*
X0017541Y0242428D01*
X0017480Y0242423D01*
X0017418Y0242421D01*
X0018440Y0243443D02*
X0018438Y0243506D01*
X0018432Y0243569D01*
X0018423Y0243632D01*
X0018409Y0243694D01*
X0018392Y0243755D01*
X0018371Y0243815D01*
X0018347Y0243873D01*
X0018319Y0243930D01*
X0018287Y0243985D01*
X0018252Y0244038D01*
X0018214Y0244089D01*
X0018173Y0244137D01*
X0018130Y0244183D01*
X0018083Y0244226D01*
X0018034Y0244266D01*
X0017983Y0244303D01*
X0017929Y0244337D01*
X0016524Y0245104D01*
X0017035Y0247021D02*
X0017117Y0247019D01*
X0017199Y0247014D01*
X0017281Y0247005D01*
X0017362Y0246993D01*
X0017443Y0246977D01*
X0017523Y0246958D01*
X0017602Y0246935D01*
X0017680Y0246909D01*
X0017757Y0246880D01*
X0017832Y0246847D01*
X0017906Y0246811D01*
X0017979Y0246773D01*
X0018050Y0246731D01*
X0018118Y0246686D01*
X0018185Y0246638D01*
X0016524Y0245104D02*
X0016470Y0245138D01*
X0016419Y0245175D01*
X0016370Y0245215D01*
X0016323Y0245258D01*
X0016280Y0245304D01*
X0016239Y0245352D01*
X0016201Y0245403D01*
X0016166Y0245456D01*
X0016134Y0245511D01*
X0016106Y0245568D01*
X0016082Y0245626D01*
X0016061Y0245686D01*
X0016044Y0245747D01*
X0016030Y0245809D01*
X0016021Y0245872D01*
X0016015Y0245935D01*
X0016013Y0245998D01*
X0016015Y0246060D01*
X0016020Y0246121D01*
X0016030Y0246182D01*
X0016043Y0246243D01*
X0016059Y0246302D01*
X0016079Y0246360D01*
X0016103Y0246417D01*
X0016130Y0246473D01*
X0016160Y0246527D01*
X0016194Y0246579D01*
X0016231Y0246628D01*
X0016270Y0246676D01*
X0016312Y0246721D01*
X0016357Y0246763D01*
X0016405Y0246803D01*
X0016454Y0246839D01*
X0016506Y0246873D01*
X0016560Y0246903D01*
X0016616Y0246930D01*
X0016673Y0246954D01*
X0016731Y0246974D01*
X0016790Y0246990D01*
X0016851Y0247003D01*
X0016912Y0247013D01*
X0016973Y0247018D01*
X0017035Y0247020D01*
X0015885Y0243060D02*
X0015949Y0242997D01*
X0016017Y0242938D01*
X0016086Y0242881D01*
X0016158Y0242827D01*
X0016232Y0242776D01*
X0016308Y0242728D01*
X0016385Y0242684D01*
X0016465Y0242643D01*
X0016546Y0242605D01*
X0016629Y0242570D01*
X0016713Y0242539D01*
X0016799Y0242512D01*
X0016885Y0242488D01*
X0016973Y0242467D01*
X0017061Y0242451D01*
X0017150Y0242438D01*
X0017239Y0242428D01*
X0017328Y0242423D01*
X0017418Y0242421D01*
X0158767Y0050170D02*
X0158705Y0050168D01*
X0158644Y0050163D01*
X0158583Y0050153D01*
X0158522Y0050140D01*
X0158463Y0050124D01*
X0158405Y0050104D01*
X0158348Y0050080D01*
X0158292Y0050053D01*
X0158238Y0050023D01*
X0158186Y0049989D01*
X0158137Y0049953D01*
X0158089Y0049913D01*
X0158044Y0049871D01*
X0158002Y0049826D01*
X0157963Y0049778D01*
X0157926Y0049729D01*
X0157892Y0049677D01*
X0157862Y0049623D01*
X0157835Y0049567D01*
X0157811Y0049510D01*
X0157791Y0049452D01*
X0157775Y0049393D01*
X0157762Y0049332D01*
X0157752Y0049271D01*
X0157747Y0049210D01*
X0157745Y0049148D01*
X0158256Y0048253D02*
X0159662Y0047487D01*
X0159151Y0045571D02*
X0159061Y0045573D01*
X0158972Y0045578D01*
X0158883Y0045588D01*
X0158794Y0045601D01*
X0158706Y0045617D01*
X0158618Y0045638D01*
X0158532Y0045662D01*
X0158446Y0045689D01*
X0158362Y0045720D01*
X0158279Y0045755D01*
X0158198Y0045793D01*
X0158118Y0045834D01*
X0158041Y0045878D01*
X0157965Y0045926D01*
X0157891Y0045977D01*
X0157819Y0046031D01*
X0157750Y0046088D01*
X0157682Y0046147D01*
X0157618Y0046210D01*
X0159662Y0047486D02*
X0159716Y0047452D01*
X0159767Y0047415D01*
X0159816Y0047375D01*
X0159863Y0047332D01*
X0159906Y0047286D01*
X0159947Y0047238D01*
X0159985Y0047187D01*
X0160020Y0047134D01*
X0160052Y0047079D01*
X0160080Y0047022D01*
X0160104Y0046964D01*
X0160125Y0046904D01*
X0160142Y0046843D01*
X0160156Y0046781D01*
X0160165Y0046718D01*
X0160171Y0046655D01*
X0160173Y0046592D01*
X0160171Y0046530D01*
X0160166Y0046469D01*
X0160156Y0046408D01*
X0160143Y0046347D01*
X0160127Y0046288D01*
X0160107Y0046230D01*
X0160083Y0046173D01*
X0160056Y0046117D01*
X0160026Y0046063D01*
X0159992Y0046011D01*
X0159956Y0045962D01*
X0159916Y0045914D01*
X0159874Y0045869D01*
X0159829Y0045827D01*
X0159781Y0045787D01*
X0159732Y0045751D01*
X0159680Y0045717D01*
X0159626Y0045687D01*
X0159570Y0045660D01*
X0159513Y0045636D01*
X0159455Y0045616D01*
X0159396Y0045600D01*
X0159335Y0045587D01*
X0159274Y0045577D01*
X0159213Y0045572D01*
X0159151Y0045570D01*
X0159917Y0049787D02*
X0159850Y0049835D01*
X0159782Y0049880D01*
X0159711Y0049922D01*
X0159638Y0049960D01*
X0159564Y0049996D01*
X0159489Y0050029D01*
X0159412Y0050058D01*
X0159334Y0050084D01*
X0159255Y0050107D01*
X0159175Y0050126D01*
X0159094Y0050142D01*
X0159013Y0050154D01*
X0158931Y0050163D01*
X0158849Y0050168D01*
X0158767Y0050170D01*
X0157745Y0049148D02*
X0157747Y0049085D01*
X0157753Y0049022D01*
X0157762Y0048959D01*
X0157776Y0048897D01*
X0157793Y0048836D01*
X0157814Y0048776D01*
X0157838Y0048718D01*
X0157866Y0048661D01*
X0157898Y0048606D01*
X0157933Y0048553D01*
X0157971Y0048502D01*
X0158012Y0048454D01*
X0158055Y0048408D01*
X0158102Y0048365D01*
X0158151Y0048325D01*
X0158202Y0048288D01*
X0158256Y0048254D01*
X0161967Y0046592D02*
X0164523Y0046592D01*
X0163756Y0045570D02*
X0163756Y0047615D01*
X0161967Y0046592D02*
X0162990Y0050170D01*
D11*
X0128444Y0092013D02*
X0128444Y0092191D01*
X0128442Y0092242D01*
X0128437Y0092292D01*
X0128428Y0092342D01*
X0128415Y0092391D01*
X0128399Y0092439D01*
X0128380Y0092486D01*
X0128357Y0092532D01*
X0128331Y0092575D01*
X0128302Y0092617D01*
X0128270Y0092657D01*
X0128236Y0092694D01*
X0128199Y0092728D01*
X0128159Y0092760D01*
X0128117Y0092789D01*
X0128074Y0092815D01*
X0128028Y0092838D01*
X0127981Y0092857D01*
X0127933Y0092873D01*
X0127884Y0092886D01*
X0127834Y0092895D01*
X0127784Y0092900D01*
X0127733Y0092902D01*
X0126667Y0092902D01*
X0126667Y0092013D01*
X0126669Y0091955D01*
X0126675Y0091897D01*
X0126684Y0091840D01*
X0126697Y0091783D01*
X0126714Y0091727D01*
X0126735Y0091673D01*
X0126759Y0091620D01*
X0126786Y0091569D01*
X0126817Y0091519D01*
X0126851Y0091472D01*
X0126888Y0091427D01*
X0126927Y0091384D01*
X0126970Y0091345D01*
X0127015Y0091308D01*
X0127062Y0091274D01*
X0127112Y0091243D01*
X0127163Y0091216D01*
X0127216Y0091192D01*
X0127270Y0091171D01*
X0127326Y0091154D01*
X0127383Y0091141D01*
X0127440Y0091132D01*
X0127498Y0091126D01*
X0127556Y0091124D01*
X0127614Y0091126D01*
X0127672Y0091132D01*
X0127729Y0091141D01*
X0127786Y0091154D01*
X0127842Y0091171D01*
X0127896Y0091192D01*
X0127949Y0091216D01*
X0128001Y0091243D01*
X0128050Y0091274D01*
X0128097Y0091308D01*
X0128142Y0091345D01*
X0128185Y0091384D01*
X0128224Y0091427D01*
X0128261Y0091472D01*
X0128295Y0091519D01*
X0128326Y0091569D01*
X0128353Y0091620D01*
X0128377Y0091673D01*
X0128398Y0091727D01*
X0128415Y0091783D01*
X0128428Y0091840D01*
X0128437Y0091897D01*
X0128443Y0091955D01*
X0128445Y0092013D01*
X0126667Y0092902D02*
X0126669Y0092976D01*
X0126675Y0093051D01*
X0126685Y0093124D01*
X0126698Y0093198D01*
X0126715Y0093270D01*
X0126737Y0093341D01*
X0126761Y0093412D01*
X0126790Y0093480D01*
X0126822Y0093548D01*
X0126858Y0093613D01*
X0126896Y0093676D01*
X0126939Y0093738D01*
X0126984Y0093797D01*
X0127032Y0093853D01*
X0127083Y0093908D01*
X0127137Y0093959D01*
X0127194Y0094007D01*
X0127253Y0094052D01*
X0127315Y0094095D01*
X0127378Y0094133D01*
X0127443Y0094169D01*
X0127511Y0094201D01*
X0127579Y0094230D01*
X0127650Y0094254D01*
X0127721Y0094276D01*
X0127793Y0094293D01*
X0127867Y0094306D01*
X0127940Y0094316D01*
X0128015Y0094322D01*
X0128089Y0094324D01*
X0127234Y0096931D02*
X0124034Y0096931D01*
X0124034Y0097820D01*
X0124036Y0097878D01*
X0124042Y0097936D01*
X0124051Y0097993D01*
X0124064Y0098050D01*
X0124081Y0098106D01*
X0124102Y0098160D01*
X0124126Y0098213D01*
X0124153Y0098265D01*
X0124184Y0098314D01*
X0124218Y0098361D01*
X0124255Y0098406D01*
X0124294Y0098449D01*
X0124337Y0098488D01*
X0124382Y0098525D01*
X0124429Y0098559D01*
X0124479Y0098590D01*
X0124530Y0098617D01*
X0124583Y0098641D01*
X0124637Y0098662D01*
X0124693Y0098679D01*
X0124750Y0098692D01*
X0124807Y0098701D01*
X0124865Y0098707D01*
X0124923Y0098709D01*
X0124981Y0098707D01*
X0125039Y0098701D01*
X0125096Y0098692D01*
X0125153Y0098679D01*
X0125209Y0098662D01*
X0125263Y0098641D01*
X0125316Y0098617D01*
X0125368Y0098590D01*
X0125417Y0098559D01*
X0125464Y0098525D01*
X0125509Y0098488D01*
X0125552Y0098449D01*
X0125591Y0098406D01*
X0125628Y0098361D01*
X0125662Y0098314D01*
X0125693Y0098265D01*
X0125720Y0098213D01*
X0125744Y0098160D01*
X0125765Y0098106D01*
X0125782Y0098050D01*
X0125795Y0097993D01*
X0125804Y0097936D01*
X0125810Y0097878D01*
X0125812Y0097820D01*
X0125812Y0096931D01*
X0125812Y0097998D02*
X0127234Y0098709D01*
X0127234Y0100491D02*
X0127234Y0102269D01*
X0127234Y0101380D02*
X0124034Y0101380D01*
X0124745Y0100491D01*
X0122509Y0100491D02*
X0122509Y0102269D01*
X0122509Y0101380D02*
X0119309Y0101380D01*
X0120021Y0100491D01*
X0119309Y0097820D02*
X0119311Y0097878D01*
X0119317Y0097936D01*
X0119326Y0097993D01*
X0119339Y0098050D01*
X0119356Y0098106D01*
X0119377Y0098160D01*
X0119401Y0098213D01*
X0119428Y0098265D01*
X0119459Y0098314D01*
X0119493Y0098361D01*
X0119530Y0098406D01*
X0119569Y0098449D01*
X0119612Y0098488D01*
X0119657Y0098525D01*
X0119704Y0098559D01*
X0119754Y0098590D01*
X0119805Y0098617D01*
X0119858Y0098641D01*
X0119912Y0098662D01*
X0119968Y0098679D01*
X0120025Y0098692D01*
X0120082Y0098701D01*
X0120140Y0098707D01*
X0120198Y0098709D01*
X0120256Y0098707D01*
X0120314Y0098701D01*
X0120371Y0098692D01*
X0120428Y0098679D01*
X0120484Y0098662D01*
X0120538Y0098641D01*
X0120591Y0098617D01*
X0120643Y0098590D01*
X0120692Y0098559D01*
X0120739Y0098525D01*
X0120784Y0098488D01*
X0120827Y0098449D01*
X0120866Y0098406D01*
X0120903Y0098361D01*
X0120937Y0098314D01*
X0120968Y0098265D01*
X0120995Y0098213D01*
X0121019Y0098160D01*
X0121040Y0098106D01*
X0121057Y0098050D01*
X0121070Y0097993D01*
X0121079Y0097936D01*
X0121085Y0097878D01*
X0121087Y0097820D01*
X0121087Y0096931D01*
X0121087Y0097998D02*
X0122509Y0098709D01*
X0122509Y0096931D02*
X0119309Y0096931D01*
X0119309Y0097820D01*
X0120909Y0105869D02*
X0121009Y0105867D01*
X0121108Y0105861D01*
X0121207Y0105852D01*
X0121306Y0105839D01*
X0121404Y0105822D01*
X0121502Y0105801D01*
X0121599Y0105777D01*
X0121694Y0105749D01*
X0121789Y0105718D01*
X0121882Y0105683D01*
X0121974Y0105644D01*
X0122065Y0105602D01*
X0122510Y0104980D02*
X0122508Y0104929D01*
X0122502Y0104878D01*
X0122492Y0104828D01*
X0122479Y0104779D01*
X0122461Y0104731D01*
X0122440Y0104685D01*
X0122415Y0104640D01*
X0122387Y0104598D01*
X0122356Y0104557D01*
X0122322Y0104519D01*
X0122285Y0104484D01*
X0122245Y0104452D01*
X0122203Y0104424D01*
X0122159Y0104398D01*
X0122113Y0104376D01*
X0122065Y0104358D01*
X0121798Y0104269D02*
X0120021Y0105691D01*
X0119754Y0105602D02*
X0119706Y0105584D01*
X0119660Y0105562D01*
X0119616Y0105536D01*
X0119574Y0105508D01*
X0119534Y0105476D01*
X0119497Y0105441D01*
X0119463Y0105403D01*
X0119432Y0105362D01*
X0119404Y0105320D01*
X0119379Y0105275D01*
X0119358Y0105229D01*
X0119340Y0105181D01*
X0119327Y0105132D01*
X0119317Y0105082D01*
X0119311Y0105031D01*
X0119309Y0104980D01*
X0119311Y0104929D01*
X0119317Y0104878D01*
X0119327Y0104828D01*
X0119340Y0104779D01*
X0119358Y0104731D01*
X0119379Y0104685D01*
X0119404Y0104640D01*
X0119432Y0104598D01*
X0119463Y0104557D01*
X0119497Y0104519D01*
X0119534Y0104484D01*
X0119574Y0104452D01*
X0119616Y0104424D01*
X0119660Y0104398D01*
X0119706Y0104376D01*
X0119754Y0104358D01*
X0119753Y0105602D02*
X0119844Y0105644D01*
X0119936Y0105683D01*
X0120029Y0105718D01*
X0120124Y0105749D01*
X0120219Y0105777D01*
X0120316Y0105801D01*
X0120414Y0105822D01*
X0120512Y0105839D01*
X0120611Y0105852D01*
X0120710Y0105861D01*
X0120809Y0105867D01*
X0120909Y0105869D01*
X0120909Y0104091D02*
X0120809Y0104093D01*
X0120710Y0104099D01*
X0120611Y0104108D01*
X0120512Y0104121D01*
X0120414Y0104138D01*
X0120316Y0104159D01*
X0120219Y0104183D01*
X0120124Y0104211D01*
X0120029Y0104242D01*
X0119936Y0104277D01*
X0119844Y0104316D01*
X0119753Y0104358D01*
X0122065Y0105602D02*
X0122113Y0105584D01*
X0122159Y0105562D01*
X0122203Y0105536D01*
X0122245Y0105508D01*
X0122285Y0105476D01*
X0122322Y0105441D01*
X0122356Y0105403D01*
X0122387Y0105362D01*
X0122415Y0105320D01*
X0122440Y0105275D01*
X0122461Y0105229D01*
X0122479Y0105181D01*
X0122492Y0105132D01*
X0122502Y0105082D01*
X0122508Y0105031D01*
X0122510Y0104980D01*
X0124834Y0105868D02*
X0124892Y0105866D01*
X0124950Y0105860D01*
X0125007Y0105850D01*
X0125063Y0105837D01*
X0125118Y0105820D01*
X0125172Y0105799D01*
X0125225Y0105774D01*
X0125276Y0105746D01*
X0125324Y0105714D01*
X0125371Y0105680D01*
X0125415Y0105642D01*
X0125456Y0105601D01*
X0125456Y0105602D02*
X0127234Y0104091D01*
X0127234Y0105869D01*
X0124745Y0104091D02*
X0124687Y0104112D01*
X0124631Y0104136D01*
X0124576Y0104163D01*
X0124522Y0104194D01*
X0124471Y0104228D01*
X0124422Y0104265D01*
X0124375Y0104305D01*
X0124330Y0104347D01*
X0124288Y0104392D01*
X0124249Y0104440D01*
X0124213Y0104490D01*
X0124180Y0104541D01*
X0124150Y0104595D01*
X0124123Y0104651D01*
X0124100Y0104708D01*
X0124080Y0104766D01*
X0124063Y0104825D01*
X0124051Y0104885D01*
X0124041Y0104946D01*
X0124036Y0105007D01*
X0124034Y0105069D01*
X0124036Y0105124D01*
X0124041Y0105178D01*
X0124051Y0105232D01*
X0124064Y0105285D01*
X0124080Y0105337D01*
X0124100Y0105388D01*
X0124124Y0105437D01*
X0124150Y0105485D01*
X0124180Y0105530D01*
X0124213Y0105574D01*
X0124249Y0105615D01*
X0124288Y0105654D01*
X0124329Y0105690D01*
X0124373Y0105723D01*
X0124418Y0105753D01*
X0124466Y0105779D01*
X0124515Y0105803D01*
X0124566Y0105823D01*
X0124618Y0105839D01*
X0124671Y0105852D01*
X0124725Y0105862D01*
X0124779Y0105867D01*
X0124834Y0105869D01*
X0122116Y0108349D02*
X0118916Y0108349D01*
X0118916Y0109238D01*
X0118918Y0109296D01*
X0118924Y0109354D01*
X0118933Y0109411D01*
X0118946Y0109468D01*
X0118963Y0109524D01*
X0118984Y0109578D01*
X0119008Y0109631D01*
X0119035Y0109683D01*
X0119066Y0109732D01*
X0119100Y0109779D01*
X0119137Y0109824D01*
X0119176Y0109867D01*
X0119219Y0109906D01*
X0119264Y0109943D01*
X0119311Y0109977D01*
X0119361Y0110008D01*
X0119412Y0110035D01*
X0119465Y0110059D01*
X0119519Y0110080D01*
X0119575Y0110097D01*
X0119632Y0110110D01*
X0119689Y0110119D01*
X0119747Y0110125D01*
X0119805Y0110127D01*
X0119863Y0110125D01*
X0119921Y0110119D01*
X0119978Y0110110D01*
X0120035Y0110097D01*
X0120091Y0110080D01*
X0120145Y0110059D01*
X0120198Y0110035D01*
X0120250Y0110008D01*
X0120299Y0109977D01*
X0120346Y0109943D01*
X0120391Y0109906D01*
X0120434Y0109867D01*
X0120473Y0109824D01*
X0120510Y0109779D01*
X0120544Y0109732D01*
X0120575Y0109683D01*
X0120602Y0109631D01*
X0120626Y0109578D01*
X0120647Y0109524D01*
X0120664Y0109468D01*
X0120677Y0109411D01*
X0120686Y0109354D01*
X0120692Y0109296D01*
X0120694Y0109238D01*
X0120694Y0108349D01*
X0120694Y0109415D02*
X0122116Y0110127D01*
X0122116Y0111908D02*
X0122116Y0113686D01*
X0122116Y0112797D02*
X0118916Y0112797D01*
X0119627Y0111908D01*
X0120338Y0115508D02*
X0118916Y0115508D01*
X0118916Y0117286D01*
X0120338Y0116575D02*
X0120338Y0115508D01*
X0120338Y0116575D02*
X0120340Y0116628D01*
X0120346Y0116681D01*
X0120356Y0116733D01*
X0120370Y0116785D01*
X0120387Y0116835D01*
X0120408Y0116883D01*
X0120433Y0116931D01*
X0120462Y0116976D01*
X0120493Y0117018D01*
X0120528Y0117059D01*
X0120565Y0117096D01*
X0120606Y0117131D01*
X0120648Y0117162D01*
X0120694Y0117191D01*
X0120741Y0117216D01*
X0120789Y0117237D01*
X0120839Y0117254D01*
X0120891Y0117268D01*
X0120943Y0117278D01*
X0120996Y0117284D01*
X0121049Y0117286D01*
X0121405Y0117286D01*
X0121456Y0117284D01*
X0121506Y0117279D01*
X0121556Y0117270D01*
X0121605Y0117257D01*
X0121653Y0117241D01*
X0121700Y0117222D01*
X0121746Y0117199D01*
X0121789Y0117173D01*
X0121831Y0117144D01*
X0121871Y0117112D01*
X0121908Y0117078D01*
X0121942Y0117041D01*
X0121974Y0117001D01*
X0122003Y0116959D01*
X0122029Y0116916D01*
X0122052Y0116870D01*
X0122071Y0116823D01*
X0122087Y0116775D01*
X0122100Y0116726D01*
X0122109Y0116676D01*
X0122114Y0116626D01*
X0122116Y0116575D01*
X0122116Y0115508D01*
X0123446Y0119254D02*
X0123446Y0120677D01*
X0123979Y0119965D02*
X0122201Y0119965D01*
X0122912Y0122454D01*
X0120379Y0119254D02*
X0118601Y0119254D01*
X0119490Y0119254D02*
X0119490Y0122454D01*
X0118601Y0121743D01*
X0115931Y0122454D02*
X0115989Y0122452D01*
X0116047Y0122446D01*
X0116104Y0122437D01*
X0116161Y0122424D01*
X0116217Y0122407D01*
X0116271Y0122386D01*
X0116324Y0122362D01*
X0116375Y0122335D01*
X0116425Y0122304D01*
X0116472Y0122270D01*
X0116517Y0122233D01*
X0116560Y0122194D01*
X0116599Y0122151D01*
X0116636Y0122106D01*
X0116670Y0122059D01*
X0116701Y0122010D01*
X0116728Y0121958D01*
X0116752Y0121905D01*
X0116773Y0121851D01*
X0116790Y0121795D01*
X0116803Y0121738D01*
X0116812Y0121681D01*
X0116818Y0121623D01*
X0116820Y0121565D01*
X0116818Y0121507D01*
X0116812Y0121449D01*
X0116803Y0121392D01*
X0116790Y0121335D01*
X0116773Y0121279D01*
X0116752Y0121225D01*
X0116728Y0121172D01*
X0116701Y0121121D01*
X0116670Y0121071D01*
X0116636Y0121024D01*
X0116599Y0120979D01*
X0116560Y0120936D01*
X0116517Y0120897D01*
X0116472Y0120860D01*
X0116425Y0120826D01*
X0116376Y0120795D01*
X0116324Y0120768D01*
X0116271Y0120744D01*
X0116217Y0120723D01*
X0116161Y0120706D01*
X0116104Y0120693D01*
X0116047Y0120684D01*
X0115989Y0120678D01*
X0115931Y0120676D01*
X0115931Y0120677D02*
X0115042Y0120677D01*
X0116108Y0120677D02*
X0116820Y0119254D01*
X0115042Y0119254D02*
X0115042Y0122454D01*
X0115931Y0122454D01*
X0115372Y0124884D02*
X0115372Y0125773D01*
X0115372Y0124884D02*
X0118572Y0124884D01*
X0117150Y0124884D02*
X0117150Y0125773D01*
X0117150Y0125951D02*
X0118572Y0126662D01*
X0118572Y0128444D02*
X0118572Y0130221D01*
X0118572Y0129333D02*
X0115372Y0129333D01*
X0116084Y0128444D01*
X0115372Y0125773D02*
X0115374Y0125831D01*
X0115380Y0125889D01*
X0115389Y0125946D01*
X0115402Y0126003D01*
X0115419Y0126059D01*
X0115440Y0126113D01*
X0115464Y0126166D01*
X0115491Y0126218D01*
X0115522Y0126267D01*
X0115556Y0126314D01*
X0115593Y0126359D01*
X0115632Y0126402D01*
X0115675Y0126441D01*
X0115720Y0126478D01*
X0115767Y0126512D01*
X0115817Y0126543D01*
X0115868Y0126570D01*
X0115921Y0126594D01*
X0115975Y0126615D01*
X0116031Y0126632D01*
X0116088Y0126645D01*
X0116145Y0126654D01*
X0116203Y0126660D01*
X0116261Y0126662D01*
X0116319Y0126660D01*
X0116377Y0126654D01*
X0116434Y0126645D01*
X0116491Y0126632D01*
X0116547Y0126615D01*
X0116601Y0126594D01*
X0116654Y0126570D01*
X0116706Y0126543D01*
X0116755Y0126512D01*
X0116802Y0126478D01*
X0116847Y0126441D01*
X0116890Y0126402D01*
X0116929Y0126359D01*
X0116966Y0126314D01*
X0117000Y0126267D01*
X0117031Y0126218D01*
X0117058Y0126166D01*
X0117082Y0126113D01*
X0117103Y0126059D01*
X0117120Y0126003D01*
X0117133Y0125946D01*
X0117142Y0125889D01*
X0117148Y0125831D01*
X0117150Y0125773D01*
X0116795Y0132044D02*
X0117684Y0132044D01*
X0117742Y0132046D01*
X0117800Y0132052D01*
X0117857Y0132061D01*
X0117914Y0132074D01*
X0117970Y0132091D01*
X0118024Y0132112D01*
X0118077Y0132136D01*
X0118129Y0132163D01*
X0118178Y0132194D01*
X0118225Y0132228D01*
X0118270Y0132265D01*
X0118313Y0132304D01*
X0118352Y0132347D01*
X0118389Y0132392D01*
X0118423Y0132439D01*
X0118454Y0132489D01*
X0118481Y0132540D01*
X0118505Y0132593D01*
X0118526Y0132647D01*
X0118543Y0132703D01*
X0118556Y0132760D01*
X0118565Y0132817D01*
X0118571Y0132875D01*
X0118573Y0132933D01*
X0118571Y0132991D01*
X0118565Y0133049D01*
X0118556Y0133106D01*
X0118543Y0133163D01*
X0118526Y0133219D01*
X0118505Y0133273D01*
X0118481Y0133326D01*
X0118454Y0133378D01*
X0118423Y0133427D01*
X0118389Y0133474D01*
X0118352Y0133519D01*
X0118313Y0133562D01*
X0118270Y0133601D01*
X0118225Y0133638D01*
X0118178Y0133672D01*
X0118128Y0133703D01*
X0118077Y0133730D01*
X0118024Y0133754D01*
X0117970Y0133775D01*
X0117914Y0133792D01*
X0117857Y0133805D01*
X0117800Y0133814D01*
X0117742Y0133820D01*
X0117684Y0133822D01*
X0117684Y0133821D02*
X0117506Y0133821D01*
X0117455Y0133819D01*
X0117405Y0133814D01*
X0117355Y0133805D01*
X0117306Y0133792D01*
X0117258Y0133776D01*
X0117211Y0133757D01*
X0117165Y0133734D01*
X0117122Y0133708D01*
X0117080Y0133679D01*
X0117040Y0133647D01*
X0117003Y0133613D01*
X0116969Y0133576D01*
X0116937Y0133536D01*
X0116908Y0133494D01*
X0116882Y0133451D01*
X0116859Y0133405D01*
X0116840Y0133358D01*
X0116824Y0133310D01*
X0116811Y0133261D01*
X0116802Y0133211D01*
X0116797Y0133161D01*
X0116795Y0133110D01*
X0116795Y0132044D01*
X0116721Y0132046D01*
X0116646Y0132052D01*
X0116573Y0132062D01*
X0116499Y0132075D01*
X0116427Y0132092D01*
X0116356Y0132114D01*
X0116285Y0132138D01*
X0116217Y0132167D01*
X0116149Y0132199D01*
X0116084Y0132235D01*
X0116021Y0132273D01*
X0115959Y0132316D01*
X0115900Y0132361D01*
X0115844Y0132409D01*
X0115790Y0132460D01*
X0115738Y0132514D01*
X0115690Y0132571D01*
X0115645Y0132630D01*
X0115602Y0132692D01*
X0115564Y0132755D01*
X0115528Y0132820D01*
X0115496Y0132888D01*
X0115467Y0132956D01*
X0115443Y0133027D01*
X0115421Y0133098D01*
X0115404Y0133170D01*
X0115391Y0133244D01*
X0115381Y0133317D01*
X0115375Y0133392D01*
X0115373Y0133466D01*
X0113848Y0134142D02*
X0112426Y0133431D01*
X0112426Y0133253D02*
X0112426Y0132365D01*
X0112426Y0133253D02*
X0112424Y0133311D01*
X0112418Y0133369D01*
X0112409Y0133426D01*
X0112396Y0133483D01*
X0112379Y0133539D01*
X0112358Y0133593D01*
X0112334Y0133646D01*
X0112307Y0133698D01*
X0112276Y0133747D01*
X0112242Y0133794D01*
X0112205Y0133839D01*
X0112166Y0133882D01*
X0112123Y0133921D01*
X0112078Y0133958D01*
X0112031Y0133992D01*
X0111982Y0134023D01*
X0111930Y0134050D01*
X0111877Y0134074D01*
X0111823Y0134095D01*
X0111767Y0134112D01*
X0111710Y0134125D01*
X0111653Y0134134D01*
X0111595Y0134140D01*
X0111537Y0134142D01*
X0111479Y0134140D01*
X0111421Y0134134D01*
X0111364Y0134125D01*
X0111307Y0134112D01*
X0111251Y0134095D01*
X0111197Y0134074D01*
X0111144Y0134050D01*
X0111093Y0134023D01*
X0111043Y0133992D01*
X0110996Y0133958D01*
X0110951Y0133921D01*
X0110908Y0133882D01*
X0110869Y0133839D01*
X0110832Y0133794D01*
X0110798Y0133747D01*
X0110767Y0133698D01*
X0110740Y0133646D01*
X0110716Y0133593D01*
X0110695Y0133539D01*
X0110678Y0133483D01*
X0110665Y0133426D01*
X0110656Y0133369D01*
X0110650Y0133311D01*
X0110648Y0133253D01*
X0110648Y0132365D01*
X0113848Y0132365D01*
X0113848Y0135924D02*
X0113848Y0137702D01*
X0113848Y0136813D02*
X0110648Y0136813D01*
X0111359Y0135924D01*
X0110648Y0139524D02*
X0110648Y0140591D01*
X0110650Y0140643D01*
X0110656Y0140695D01*
X0110665Y0140746D01*
X0110678Y0140796D01*
X0110695Y0140845D01*
X0110715Y0140893D01*
X0110739Y0140939D01*
X0110766Y0140983D01*
X0110796Y0141026D01*
X0110829Y0141065D01*
X0110866Y0141103D01*
X0110904Y0141138D01*
X0110945Y0141169D01*
X0110989Y0141198D01*
X0111034Y0141223D01*
X0111081Y0141245D01*
X0111129Y0141264D01*
X0111179Y0141279D01*
X0111230Y0141290D01*
X0111281Y0141298D01*
X0111333Y0141302D01*
X0111385Y0141302D01*
X0111437Y0141298D01*
X0111488Y0141290D01*
X0111539Y0141279D01*
X0111589Y0141264D01*
X0111637Y0141245D01*
X0111684Y0141223D01*
X0111729Y0141198D01*
X0111773Y0141169D01*
X0111814Y0141138D01*
X0111852Y0141103D01*
X0111889Y0141065D01*
X0111922Y0141026D01*
X0111952Y0140983D01*
X0111979Y0140939D01*
X0112003Y0140893D01*
X0112023Y0140845D01*
X0112040Y0140796D01*
X0112053Y0140746D01*
X0112062Y0140695D01*
X0112068Y0140643D01*
X0112070Y0140591D01*
X0112070Y0139880D01*
X0112070Y0140413D02*
X0112072Y0140471D01*
X0112078Y0140529D01*
X0112087Y0140586D01*
X0112100Y0140643D01*
X0112117Y0140699D01*
X0112138Y0140753D01*
X0112162Y0140806D01*
X0112189Y0140858D01*
X0112220Y0140907D01*
X0112254Y0140954D01*
X0112291Y0140999D01*
X0112330Y0141042D01*
X0112373Y0141081D01*
X0112418Y0141118D01*
X0112465Y0141152D01*
X0112515Y0141183D01*
X0112566Y0141210D01*
X0112619Y0141234D01*
X0112673Y0141255D01*
X0112729Y0141272D01*
X0112786Y0141285D01*
X0112843Y0141294D01*
X0112901Y0141300D01*
X0112959Y0141302D01*
X0113017Y0141300D01*
X0113075Y0141294D01*
X0113132Y0141285D01*
X0113189Y0141272D01*
X0113245Y0141255D01*
X0113299Y0141234D01*
X0113352Y0141210D01*
X0113404Y0141183D01*
X0113453Y0141152D01*
X0113500Y0141118D01*
X0113545Y0141081D01*
X0113588Y0141042D01*
X0113627Y0140999D01*
X0113664Y0140954D01*
X0113698Y0140907D01*
X0113729Y0140858D01*
X0113756Y0140806D01*
X0113780Y0140753D01*
X0113801Y0140699D01*
X0113818Y0140643D01*
X0113831Y0140586D01*
X0113840Y0140529D01*
X0113846Y0140471D01*
X0113848Y0140413D01*
X0113848Y0139524D01*
X0110982Y0165928D02*
X0110982Y0167350D01*
X0111515Y0166639D02*
X0109738Y0166639D01*
X0110449Y0169128D01*
X0107821Y0169128D02*
X0107821Y0166639D01*
X0107819Y0166586D01*
X0107813Y0166533D01*
X0107803Y0166481D01*
X0107789Y0166429D01*
X0107772Y0166379D01*
X0107751Y0166331D01*
X0107726Y0166284D01*
X0107697Y0166238D01*
X0107666Y0166196D01*
X0107631Y0166155D01*
X0107594Y0166118D01*
X0107553Y0166083D01*
X0107511Y0166052D01*
X0107466Y0166023D01*
X0107418Y0165998D01*
X0107370Y0165977D01*
X0107320Y0165960D01*
X0107268Y0165946D01*
X0107216Y0165936D01*
X0107163Y0165930D01*
X0107110Y0165928D01*
X0106754Y0165928D01*
X0102653Y0173352D02*
X0102651Y0173294D01*
X0102645Y0173236D01*
X0102636Y0173179D01*
X0102623Y0173122D01*
X0102606Y0173066D01*
X0102585Y0173012D01*
X0102561Y0172959D01*
X0102534Y0172908D01*
X0102503Y0172858D01*
X0102469Y0172811D01*
X0102432Y0172766D01*
X0102393Y0172723D01*
X0102350Y0172684D01*
X0102305Y0172647D01*
X0102258Y0172613D01*
X0102209Y0172582D01*
X0102157Y0172555D01*
X0102104Y0172531D01*
X0102050Y0172510D01*
X0101994Y0172493D01*
X0101937Y0172480D01*
X0101880Y0172471D01*
X0101822Y0172465D01*
X0101764Y0172463D01*
X0101706Y0172465D01*
X0101648Y0172471D01*
X0101591Y0172480D01*
X0101534Y0172493D01*
X0101478Y0172510D01*
X0101424Y0172531D01*
X0101371Y0172555D01*
X0101320Y0172582D01*
X0101270Y0172613D01*
X0101223Y0172647D01*
X0101178Y0172684D01*
X0101135Y0172723D01*
X0101096Y0172766D01*
X0101059Y0172811D01*
X0101025Y0172858D01*
X0100994Y0172908D01*
X0100967Y0172959D01*
X0100943Y0173012D01*
X0100922Y0173066D01*
X0100905Y0173122D01*
X0100892Y0173179D01*
X0100883Y0173236D01*
X0100877Y0173294D01*
X0100875Y0173352D01*
X0100877Y0173410D01*
X0100883Y0173468D01*
X0100892Y0173525D01*
X0100905Y0173582D01*
X0100922Y0173638D01*
X0100943Y0173692D01*
X0100967Y0173745D01*
X0100994Y0173797D01*
X0101025Y0173846D01*
X0101059Y0173893D01*
X0101096Y0173938D01*
X0101135Y0173981D01*
X0101178Y0174020D01*
X0101223Y0174057D01*
X0101270Y0174091D01*
X0101320Y0174122D01*
X0101371Y0174149D01*
X0101424Y0174173D01*
X0101478Y0174194D01*
X0101534Y0174211D01*
X0101591Y0174224D01*
X0101648Y0174233D01*
X0101706Y0174239D01*
X0101764Y0174241D01*
X0101822Y0174239D01*
X0101880Y0174233D01*
X0101937Y0174224D01*
X0101994Y0174211D01*
X0102050Y0174194D01*
X0102104Y0174173D01*
X0102157Y0174149D01*
X0102209Y0174122D01*
X0102258Y0174091D01*
X0102305Y0174057D01*
X0102350Y0174020D01*
X0102393Y0173981D01*
X0102432Y0173938D01*
X0102469Y0173893D01*
X0102503Y0173846D01*
X0102534Y0173797D01*
X0102561Y0173745D01*
X0102585Y0173692D01*
X0102606Y0173638D01*
X0102623Y0173582D01*
X0102636Y0173525D01*
X0102645Y0173468D01*
X0102651Y0173410D01*
X0102653Y0173352D01*
X0102475Y0174952D02*
X0102473Y0174900D01*
X0102467Y0174848D01*
X0102458Y0174797D01*
X0102445Y0174747D01*
X0102428Y0174698D01*
X0102408Y0174650D01*
X0102384Y0174604D01*
X0102357Y0174560D01*
X0102327Y0174517D01*
X0102294Y0174478D01*
X0102257Y0174440D01*
X0102219Y0174405D01*
X0102178Y0174374D01*
X0102134Y0174345D01*
X0102089Y0174320D01*
X0102042Y0174298D01*
X0101994Y0174279D01*
X0101944Y0174264D01*
X0101893Y0174253D01*
X0101842Y0174245D01*
X0101790Y0174241D01*
X0101738Y0174241D01*
X0101686Y0174245D01*
X0101635Y0174253D01*
X0101584Y0174264D01*
X0101534Y0174279D01*
X0101486Y0174298D01*
X0101439Y0174320D01*
X0101394Y0174345D01*
X0101350Y0174374D01*
X0101309Y0174405D01*
X0101271Y0174440D01*
X0101234Y0174478D01*
X0101201Y0174517D01*
X0101171Y0174560D01*
X0101144Y0174604D01*
X0101120Y0174650D01*
X0101100Y0174698D01*
X0101083Y0174747D01*
X0101070Y0174797D01*
X0101061Y0174848D01*
X0101055Y0174900D01*
X0101053Y0174952D01*
X0101055Y0175004D01*
X0101061Y0175056D01*
X0101070Y0175107D01*
X0101083Y0175157D01*
X0101100Y0175206D01*
X0101120Y0175254D01*
X0101144Y0175300D01*
X0101171Y0175344D01*
X0101201Y0175387D01*
X0101234Y0175426D01*
X0101271Y0175464D01*
X0101309Y0175499D01*
X0101350Y0175530D01*
X0101394Y0175559D01*
X0101439Y0175584D01*
X0101486Y0175606D01*
X0101534Y0175625D01*
X0101584Y0175640D01*
X0101635Y0175651D01*
X0101686Y0175659D01*
X0101738Y0175663D01*
X0101790Y0175663D01*
X0101842Y0175659D01*
X0101893Y0175651D01*
X0101944Y0175640D01*
X0101994Y0175625D01*
X0102042Y0175606D01*
X0102089Y0175584D01*
X0102134Y0175559D01*
X0102178Y0175530D01*
X0102219Y0175499D01*
X0102257Y0175464D01*
X0102294Y0175426D01*
X0102327Y0175387D01*
X0102357Y0175344D01*
X0102384Y0175300D01*
X0102408Y0175254D01*
X0102428Y0175206D01*
X0102445Y0175157D01*
X0102458Y0175107D01*
X0102467Y0175056D01*
X0102473Y0175004D01*
X0102475Y0174952D01*
X0099279Y0175663D02*
X0098568Y0175663D01*
X0098515Y0175661D01*
X0098462Y0175655D01*
X0098410Y0175645D01*
X0098358Y0175631D01*
X0098308Y0175614D01*
X0098260Y0175593D01*
X0098212Y0175568D01*
X0098167Y0175539D01*
X0098125Y0175508D01*
X0098084Y0175473D01*
X0098047Y0175436D01*
X0098012Y0175395D01*
X0097981Y0175353D01*
X0097952Y0175307D01*
X0097927Y0175260D01*
X0097906Y0175212D01*
X0097889Y0175162D01*
X0097875Y0175110D01*
X0097865Y0175058D01*
X0097859Y0175005D01*
X0097857Y0174952D01*
X0097857Y0173174D01*
X0097859Y0173123D01*
X0097864Y0173073D01*
X0097873Y0173023D01*
X0097886Y0172974D01*
X0097902Y0172926D01*
X0097921Y0172879D01*
X0097944Y0172833D01*
X0097970Y0172790D01*
X0097999Y0172748D01*
X0098031Y0172708D01*
X0098065Y0172671D01*
X0098102Y0172637D01*
X0098142Y0172605D01*
X0098184Y0172576D01*
X0098227Y0172550D01*
X0098273Y0172527D01*
X0098320Y0172508D01*
X0098368Y0172492D01*
X0098417Y0172479D01*
X0098467Y0172470D01*
X0098517Y0172465D01*
X0098568Y0172463D01*
X0099279Y0172463D01*
X0120298Y0184077D02*
X0120653Y0184077D01*
X0120706Y0184079D01*
X0120759Y0184085D01*
X0120811Y0184095D01*
X0120863Y0184109D01*
X0120913Y0184126D01*
X0120961Y0184147D01*
X0121009Y0184172D01*
X0121054Y0184201D01*
X0121096Y0184232D01*
X0121137Y0184267D01*
X0121174Y0184304D01*
X0121209Y0184345D01*
X0121240Y0184387D01*
X0121269Y0184433D01*
X0121294Y0184480D01*
X0121315Y0184528D01*
X0121332Y0184578D01*
X0121346Y0184630D01*
X0121356Y0184682D01*
X0121362Y0184735D01*
X0121364Y0184788D01*
X0121364Y0187277D01*
X0124791Y0185855D02*
X0124832Y0185896D01*
X0124870Y0185940D01*
X0124904Y0185987D01*
X0124936Y0186035D01*
X0124964Y0186086D01*
X0124989Y0186139D01*
X0125010Y0186193D01*
X0125027Y0186248D01*
X0125040Y0186304D01*
X0125050Y0186361D01*
X0125056Y0186419D01*
X0125058Y0186477D01*
X0124792Y0185855D02*
X0123281Y0184077D01*
X0125059Y0184077D01*
X0123281Y0186566D02*
X0123302Y0186624D01*
X0123326Y0186680D01*
X0123353Y0186735D01*
X0123384Y0186789D01*
X0123418Y0186840D01*
X0123455Y0186889D01*
X0123495Y0186936D01*
X0123537Y0186981D01*
X0123582Y0187023D01*
X0123630Y0187062D01*
X0123680Y0187098D01*
X0123731Y0187131D01*
X0123785Y0187161D01*
X0123841Y0187188D01*
X0123898Y0187211D01*
X0123956Y0187231D01*
X0124015Y0187248D01*
X0124075Y0187260D01*
X0124136Y0187270D01*
X0124197Y0187275D01*
X0124259Y0187277D01*
X0124314Y0187275D01*
X0124368Y0187270D01*
X0124422Y0187260D01*
X0124475Y0187247D01*
X0124527Y0187231D01*
X0124578Y0187211D01*
X0124627Y0187187D01*
X0124675Y0187161D01*
X0124720Y0187131D01*
X0124764Y0187098D01*
X0124805Y0187062D01*
X0124844Y0187023D01*
X0124880Y0186982D01*
X0124913Y0186938D01*
X0124943Y0186893D01*
X0124969Y0186845D01*
X0124993Y0186796D01*
X0125013Y0186745D01*
X0125029Y0186693D01*
X0125042Y0186640D01*
X0125052Y0186586D01*
X0125057Y0186532D01*
X0125059Y0186477D01*
X0083447Y0120876D02*
X0082736Y0120876D01*
X0082736Y0120875D02*
X0082683Y0120873D01*
X0082630Y0120867D01*
X0082578Y0120857D01*
X0082526Y0120843D01*
X0082476Y0120826D01*
X0082428Y0120805D01*
X0082380Y0120780D01*
X0082335Y0120751D01*
X0082293Y0120720D01*
X0082252Y0120685D01*
X0082215Y0120648D01*
X0082180Y0120607D01*
X0082149Y0120565D01*
X0082120Y0120519D01*
X0082095Y0120472D01*
X0082074Y0120424D01*
X0082057Y0120374D01*
X0082043Y0120322D01*
X0082033Y0120270D01*
X0082027Y0120217D01*
X0082025Y0120164D01*
X0082024Y0120164D02*
X0082024Y0118387D01*
X0082025Y0118387D02*
X0082027Y0118336D01*
X0082032Y0118286D01*
X0082041Y0118236D01*
X0082054Y0118187D01*
X0082070Y0118139D01*
X0082089Y0118092D01*
X0082112Y0118046D01*
X0082138Y0118003D01*
X0082167Y0117961D01*
X0082199Y0117921D01*
X0082233Y0117884D01*
X0082270Y0117850D01*
X0082310Y0117818D01*
X0082352Y0117789D01*
X0082395Y0117763D01*
X0082441Y0117740D01*
X0082488Y0117721D01*
X0082536Y0117705D01*
X0082585Y0117692D01*
X0082635Y0117683D01*
X0082685Y0117678D01*
X0082736Y0117676D01*
X0083447Y0117676D01*
X0085043Y0118564D02*
X0085043Y0119453D01*
X0086109Y0119453D01*
X0085043Y0119453D02*
X0085045Y0119527D01*
X0085051Y0119602D01*
X0085061Y0119675D01*
X0085074Y0119749D01*
X0085091Y0119821D01*
X0085113Y0119892D01*
X0085137Y0119963D01*
X0085166Y0120031D01*
X0085198Y0120099D01*
X0085234Y0120164D01*
X0085272Y0120227D01*
X0085315Y0120289D01*
X0085360Y0120348D01*
X0085408Y0120404D01*
X0085459Y0120459D01*
X0085513Y0120510D01*
X0085570Y0120558D01*
X0085629Y0120603D01*
X0085691Y0120646D01*
X0085754Y0120684D01*
X0085819Y0120720D01*
X0085887Y0120752D01*
X0085955Y0120781D01*
X0086026Y0120805D01*
X0086097Y0120827D01*
X0086169Y0120844D01*
X0086243Y0120857D01*
X0086316Y0120867D01*
X0086391Y0120873D01*
X0086465Y0120875D01*
X0086820Y0118742D02*
X0086820Y0118564D01*
X0086820Y0118742D02*
X0086818Y0118793D01*
X0086813Y0118843D01*
X0086804Y0118893D01*
X0086791Y0118942D01*
X0086775Y0118990D01*
X0086756Y0119037D01*
X0086733Y0119083D01*
X0086707Y0119126D01*
X0086678Y0119168D01*
X0086646Y0119208D01*
X0086612Y0119245D01*
X0086575Y0119279D01*
X0086535Y0119311D01*
X0086493Y0119340D01*
X0086450Y0119366D01*
X0086404Y0119389D01*
X0086357Y0119408D01*
X0086309Y0119424D01*
X0086260Y0119437D01*
X0086210Y0119446D01*
X0086160Y0119451D01*
X0086109Y0119453D01*
X0086821Y0118564D02*
X0086819Y0118506D01*
X0086813Y0118448D01*
X0086804Y0118391D01*
X0086791Y0118334D01*
X0086774Y0118278D01*
X0086753Y0118224D01*
X0086729Y0118171D01*
X0086702Y0118120D01*
X0086671Y0118070D01*
X0086637Y0118023D01*
X0086600Y0117978D01*
X0086561Y0117935D01*
X0086518Y0117896D01*
X0086473Y0117859D01*
X0086426Y0117825D01*
X0086377Y0117794D01*
X0086325Y0117767D01*
X0086272Y0117743D01*
X0086218Y0117722D01*
X0086162Y0117705D01*
X0086105Y0117692D01*
X0086048Y0117683D01*
X0085990Y0117677D01*
X0085932Y0117675D01*
X0085874Y0117677D01*
X0085816Y0117683D01*
X0085759Y0117692D01*
X0085702Y0117705D01*
X0085646Y0117722D01*
X0085592Y0117743D01*
X0085539Y0117767D01*
X0085488Y0117794D01*
X0085438Y0117825D01*
X0085391Y0117859D01*
X0085346Y0117896D01*
X0085303Y0117935D01*
X0085264Y0117978D01*
X0085227Y0118023D01*
X0085193Y0118070D01*
X0085162Y0118120D01*
X0085135Y0118171D01*
X0085111Y0118224D01*
X0085090Y0118278D01*
X0085073Y0118334D01*
X0085060Y0118391D01*
X0085051Y0118448D01*
X0085045Y0118506D01*
X0085043Y0118564D01*
X0085274Y0115939D02*
X0085274Y0113628D01*
X0085276Y0113570D01*
X0085282Y0113512D01*
X0085291Y0113455D01*
X0085304Y0113398D01*
X0085321Y0113342D01*
X0085342Y0113288D01*
X0085366Y0113235D01*
X0085393Y0113184D01*
X0085424Y0113134D01*
X0085458Y0113087D01*
X0085495Y0113042D01*
X0085534Y0112999D01*
X0085577Y0112960D01*
X0085622Y0112923D01*
X0085669Y0112889D01*
X0085719Y0112858D01*
X0085770Y0112831D01*
X0085823Y0112807D01*
X0085877Y0112786D01*
X0085933Y0112769D01*
X0085990Y0112756D01*
X0086047Y0112747D01*
X0086105Y0112741D01*
X0086163Y0112739D01*
X0086221Y0112741D01*
X0086279Y0112747D01*
X0086336Y0112756D01*
X0086393Y0112769D01*
X0086449Y0112786D01*
X0086503Y0112807D01*
X0086556Y0112831D01*
X0086608Y0112858D01*
X0086657Y0112889D01*
X0086704Y0112923D01*
X0086749Y0112960D01*
X0086792Y0112999D01*
X0086831Y0113042D01*
X0086868Y0113087D01*
X0086902Y0113134D01*
X0086933Y0113184D01*
X0086960Y0113235D01*
X0086984Y0113288D01*
X0087005Y0113342D01*
X0087022Y0113398D01*
X0087035Y0113455D01*
X0087044Y0113512D01*
X0087050Y0113570D01*
X0087052Y0113628D01*
X0087051Y0113628D02*
X0087051Y0115939D01*
X0090504Y0114517D02*
X0090545Y0114558D01*
X0090583Y0114602D01*
X0090617Y0114649D01*
X0090649Y0114697D01*
X0090677Y0114748D01*
X0090702Y0114801D01*
X0090723Y0114855D01*
X0090740Y0114910D01*
X0090753Y0114966D01*
X0090763Y0115023D01*
X0090769Y0115081D01*
X0090771Y0115139D01*
X0090505Y0114517D02*
X0088994Y0112739D01*
X0090771Y0112739D01*
X0088993Y0115228D02*
X0089014Y0115286D01*
X0089038Y0115342D01*
X0089065Y0115397D01*
X0089096Y0115451D01*
X0089130Y0115502D01*
X0089167Y0115551D01*
X0089207Y0115598D01*
X0089249Y0115643D01*
X0089294Y0115685D01*
X0089342Y0115724D01*
X0089392Y0115760D01*
X0089443Y0115793D01*
X0089497Y0115823D01*
X0089553Y0115850D01*
X0089610Y0115873D01*
X0089668Y0115893D01*
X0089727Y0115910D01*
X0089787Y0115922D01*
X0089848Y0115932D01*
X0089909Y0115937D01*
X0089971Y0115939D01*
X0090026Y0115937D01*
X0090080Y0115932D01*
X0090134Y0115922D01*
X0090187Y0115909D01*
X0090239Y0115893D01*
X0090290Y0115873D01*
X0090339Y0115849D01*
X0090387Y0115823D01*
X0090432Y0115793D01*
X0090476Y0115760D01*
X0090517Y0115724D01*
X0090556Y0115685D01*
X0090592Y0115644D01*
X0090625Y0115600D01*
X0090655Y0115555D01*
X0090681Y0115507D01*
X0090705Y0115458D01*
X0090725Y0115407D01*
X0090741Y0115355D01*
X0090754Y0115302D01*
X0090764Y0115248D01*
X0090769Y0115194D01*
X0090771Y0115139D01*
X0091129Y0098322D02*
X0091129Y0096544D01*
X0088640Y0097255D01*
X0087411Y0097433D02*
X0087411Y0096544D01*
X0087411Y0097433D02*
X0087409Y0097491D01*
X0087403Y0097549D01*
X0087394Y0097606D01*
X0087381Y0097663D01*
X0087364Y0097719D01*
X0087343Y0097773D01*
X0087319Y0097826D01*
X0087292Y0097878D01*
X0087261Y0097927D01*
X0087227Y0097974D01*
X0087190Y0098019D01*
X0087151Y0098062D01*
X0087108Y0098101D01*
X0087063Y0098138D01*
X0087016Y0098172D01*
X0086967Y0098203D01*
X0086915Y0098230D01*
X0086862Y0098254D01*
X0086808Y0098275D01*
X0086752Y0098292D01*
X0086695Y0098305D01*
X0086638Y0098314D01*
X0086580Y0098320D01*
X0086522Y0098322D01*
X0086464Y0098320D01*
X0086406Y0098314D01*
X0086349Y0098305D01*
X0086292Y0098292D01*
X0086236Y0098275D01*
X0086182Y0098254D01*
X0086129Y0098230D01*
X0086078Y0098203D01*
X0086028Y0098172D01*
X0085981Y0098138D01*
X0085936Y0098101D01*
X0085893Y0098062D01*
X0085854Y0098019D01*
X0085817Y0097974D01*
X0085783Y0097927D01*
X0085752Y0097878D01*
X0085725Y0097826D01*
X0085701Y0097773D01*
X0085680Y0097719D01*
X0085663Y0097663D01*
X0085650Y0097606D01*
X0085641Y0097549D01*
X0085635Y0097491D01*
X0085633Y0097433D01*
X0085633Y0097611D02*
X0085633Y0096900D01*
X0085633Y0097611D02*
X0085631Y0097663D01*
X0085625Y0097715D01*
X0085616Y0097766D01*
X0085603Y0097816D01*
X0085586Y0097865D01*
X0085566Y0097913D01*
X0085542Y0097959D01*
X0085515Y0098003D01*
X0085485Y0098046D01*
X0085452Y0098085D01*
X0085415Y0098123D01*
X0085377Y0098158D01*
X0085336Y0098189D01*
X0085292Y0098218D01*
X0085247Y0098243D01*
X0085200Y0098265D01*
X0085152Y0098284D01*
X0085102Y0098299D01*
X0085051Y0098310D01*
X0085000Y0098318D01*
X0084948Y0098322D01*
X0084896Y0098322D01*
X0084844Y0098318D01*
X0084793Y0098310D01*
X0084742Y0098299D01*
X0084692Y0098284D01*
X0084644Y0098265D01*
X0084597Y0098243D01*
X0084552Y0098218D01*
X0084508Y0098189D01*
X0084467Y0098158D01*
X0084429Y0098123D01*
X0084392Y0098085D01*
X0084359Y0098046D01*
X0084329Y0098003D01*
X0084302Y0097959D01*
X0084278Y0097913D01*
X0084258Y0097865D01*
X0084241Y0097816D01*
X0084228Y0097766D01*
X0084219Y0097715D01*
X0084213Y0097663D01*
X0084211Y0097611D01*
X0084211Y0096544D01*
X0084211Y0094948D02*
X0084211Y0094237D01*
X0084213Y0094184D01*
X0084219Y0094131D01*
X0084229Y0094079D01*
X0084243Y0094027D01*
X0084260Y0093977D01*
X0084281Y0093929D01*
X0084306Y0093881D01*
X0084335Y0093836D01*
X0084366Y0093794D01*
X0084401Y0093753D01*
X0084438Y0093716D01*
X0084479Y0093681D01*
X0084521Y0093650D01*
X0084567Y0093621D01*
X0084614Y0093596D01*
X0084662Y0093575D01*
X0084712Y0093558D01*
X0084764Y0093544D01*
X0084816Y0093534D01*
X0084869Y0093528D01*
X0084922Y0093526D01*
X0086700Y0093526D01*
X0086753Y0093528D01*
X0086806Y0093534D01*
X0086858Y0093544D01*
X0086910Y0093558D01*
X0086960Y0093575D01*
X0087008Y0093596D01*
X0087056Y0093621D01*
X0087101Y0093650D01*
X0087143Y0093681D01*
X0087184Y0093716D01*
X0087221Y0093753D01*
X0087256Y0093794D01*
X0087287Y0093836D01*
X0087316Y0093882D01*
X0087341Y0093929D01*
X0087362Y0093977D01*
X0087379Y0094027D01*
X0087393Y0094079D01*
X0087403Y0094131D01*
X0087409Y0094184D01*
X0087411Y0094237D01*
X0087411Y0094948D01*
X0088640Y0094948D02*
X0088640Y0094237D01*
X0088642Y0094184D01*
X0088648Y0094131D01*
X0088658Y0094079D01*
X0088672Y0094027D01*
X0088689Y0093977D01*
X0088710Y0093929D01*
X0088735Y0093881D01*
X0088764Y0093836D01*
X0088795Y0093794D01*
X0088830Y0093753D01*
X0088867Y0093716D01*
X0088908Y0093681D01*
X0088950Y0093650D01*
X0088996Y0093621D01*
X0089043Y0093596D01*
X0089091Y0093575D01*
X0089141Y0093558D01*
X0089193Y0093544D01*
X0089245Y0093534D01*
X0089298Y0093528D01*
X0089351Y0093526D01*
X0091129Y0093526D01*
X0091182Y0093528D01*
X0091235Y0093534D01*
X0091287Y0093544D01*
X0091339Y0093558D01*
X0091389Y0093575D01*
X0091437Y0093596D01*
X0091485Y0093621D01*
X0091530Y0093650D01*
X0091572Y0093681D01*
X0091613Y0093716D01*
X0091650Y0093753D01*
X0091685Y0093794D01*
X0091716Y0093836D01*
X0091745Y0093882D01*
X0091770Y0093929D01*
X0091791Y0093977D01*
X0091808Y0094027D01*
X0091822Y0094079D01*
X0091832Y0094131D01*
X0091838Y0094184D01*
X0091840Y0094237D01*
X0091840Y0094948D01*
X0091840Y0097789D02*
X0090418Y0097789D01*
X0078946Y0093243D02*
X0078946Y0091466D01*
X0078946Y0092355D02*
X0075746Y0092355D01*
X0076458Y0091466D01*
X0076635Y0089523D02*
X0078058Y0089523D01*
X0078058Y0089524D02*
X0078116Y0089522D01*
X0078174Y0089516D01*
X0078231Y0089507D01*
X0078288Y0089494D01*
X0078344Y0089477D01*
X0078398Y0089456D01*
X0078451Y0089432D01*
X0078503Y0089405D01*
X0078552Y0089374D01*
X0078599Y0089340D01*
X0078644Y0089303D01*
X0078687Y0089264D01*
X0078726Y0089221D01*
X0078763Y0089176D01*
X0078797Y0089129D01*
X0078828Y0089080D01*
X0078855Y0089028D01*
X0078879Y0088975D01*
X0078900Y0088921D01*
X0078917Y0088865D01*
X0078930Y0088808D01*
X0078939Y0088751D01*
X0078945Y0088693D01*
X0078947Y0088635D01*
X0078946Y0088635D02*
X0078946Y0087746D01*
X0075746Y0087746D01*
X0075746Y0088635D01*
X0075748Y0088693D01*
X0075754Y0088751D01*
X0075763Y0088808D01*
X0075776Y0088865D01*
X0075793Y0088921D01*
X0075814Y0088975D01*
X0075838Y0089028D01*
X0075865Y0089080D01*
X0075896Y0089129D01*
X0075930Y0089176D01*
X0075967Y0089221D01*
X0076006Y0089264D01*
X0076049Y0089303D01*
X0076094Y0089340D01*
X0076141Y0089374D01*
X0076191Y0089405D01*
X0076242Y0089432D01*
X0076295Y0089456D01*
X0076349Y0089477D01*
X0076405Y0089494D01*
X0076462Y0089507D01*
X0076519Y0089516D01*
X0076577Y0089522D01*
X0076635Y0089524D01*
X0074478Y0091813D02*
X0071278Y0091813D01*
X0071278Y0092702D01*
X0071280Y0092760D01*
X0071286Y0092818D01*
X0071295Y0092875D01*
X0071308Y0092932D01*
X0071325Y0092988D01*
X0071346Y0093042D01*
X0071370Y0093095D01*
X0071397Y0093147D01*
X0071428Y0093196D01*
X0071462Y0093243D01*
X0071499Y0093288D01*
X0071538Y0093331D01*
X0071581Y0093370D01*
X0071626Y0093407D01*
X0071673Y0093441D01*
X0071723Y0093472D01*
X0071774Y0093499D01*
X0071827Y0093523D01*
X0071881Y0093544D01*
X0071937Y0093561D01*
X0071994Y0093574D01*
X0072051Y0093583D01*
X0072109Y0093589D01*
X0072167Y0093591D01*
X0072225Y0093589D01*
X0072283Y0093583D01*
X0072340Y0093574D01*
X0072397Y0093561D01*
X0072453Y0093544D01*
X0072507Y0093523D01*
X0072560Y0093499D01*
X0072612Y0093472D01*
X0072661Y0093441D01*
X0072708Y0093407D01*
X0072753Y0093370D01*
X0072796Y0093331D01*
X0072835Y0093288D01*
X0072872Y0093243D01*
X0072906Y0093196D01*
X0072937Y0093147D01*
X0072964Y0093095D01*
X0072988Y0093042D01*
X0073009Y0092988D01*
X0073026Y0092932D01*
X0073039Y0092875D01*
X0073048Y0092818D01*
X0073054Y0092760D01*
X0073056Y0092702D01*
X0073056Y0091813D01*
X0073056Y0092880D02*
X0074478Y0093591D01*
X0074478Y0095373D02*
X0074478Y0097151D01*
X0074478Y0096262D02*
X0071278Y0096262D01*
X0071989Y0095373D01*
X0069592Y0094375D02*
X0067814Y0094375D01*
X0068525Y0096864D01*
X0069058Y0095086D02*
X0069058Y0093664D01*
X0068880Y0092139D02*
X0067814Y0092139D01*
X0068880Y0092139D02*
X0068932Y0092137D01*
X0068984Y0092131D01*
X0069035Y0092122D01*
X0069085Y0092109D01*
X0069134Y0092092D01*
X0069182Y0092072D01*
X0069228Y0092048D01*
X0069272Y0092021D01*
X0069315Y0091991D01*
X0069354Y0091958D01*
X0069392Y0091921D01*
X0069427Y0091883D01*
X0069458Y0091842D01*
X0069487Y0091798D01*
X0069512Y0091753D01*
X0069534Y0091706D01*
X0069553Y0091658D01*
X0069568Y0091608D01*
X0069579Y0091557D01*
X0069587Y0091506D01*
X0069591Y0091454D01*
X0069591Y0091402D01*
X0069587Y0091350D01*
X0069579Y0091299D01*
X0069568Y0091248D01*
X0069553Y0091198D01*
X0069534Y0091150D01*
X0069512Y0091103D01*
X0069487Y0091058D01*
X0069458Y0091014D01*
X0069427Y0090973D01*
X0069392Y0090935D01*
X0069354Y0090898D01*
X0069315Y0090865D01*
X0069272Y0090835D01*
X0069228Y0090808D01*
X0069182Y0090784D01*
X0069134Y0090764D01*
X0069085Y0090747D01*
X0069035Y0090734D01*
X0068984Y0090725D01*
X0068932Y0090719D01*
X0068880Y0090717D01*
X0068169Y0090717D01*
X0068703Y0090717D02*
X0068761Y0090715D01*
X0068819Y0090709D01*
X0068876Y0090700D01*
X0068933Y0090687D01*
X0068989Y0090670D01*
X0069043Y0090649D01*
X0069096Y0090625D01*
X0069147Y0090598D01*
X0069197Y0090567D01*
X0069244Y0090533D01*
X0069289Y0090496D01*
X0069332Y0090457D01*
X0069371Y0090414D01*
X0069408Y0090369D01*
X0069442Y0090322D01*
X0069473Y0090273D01*
X0069500Y0090221D01*
X0069524Y0090168D01*
X0069545Y0090114D01*
X0069562Y0090058D01*
X0069575Y0090001D01*
X0069584Y0089944D01*
X0069590Y0089886D01*
X0069592Y0089828D01*
X0069590Y0089770D01*
X0069584Y0089712D01*
X0069575Y0089655D01*
X0069562Y0089598D01*
X0069545Y0089542D01*
X0069524Y0089488D01*
X0069500Y0089435D01*
X0069473Y0089384D01*
X0069442Y0089334D01*
X0069408Y0089287D01*
X0069371Y0089242D01*
X0069332Y0089199D01*
X0069289Y0089160D01*
X0069244Y0089123D01*
X0069197Y0089089D01*
X0069148Y0089058D01*
X0069096Y0089031D01*
X0069043Y0089007D01*
X0068989Y0088986D01*
X0068933Y0088969D01*
X0068876Y0088956D01*
X0068819Y0088947D01*
X0068761Y0088941D01*
X0068703Y0088939D01*
X0067814Y0088939D01*
X0066032Y0088939D02*
X0065321Y0090362D01*
X0065143Y0090362D02*
X0064254Y0090362D01*
X0065143Y0090361D02*
X0065201Y0090363D01*
X0065259Y0090369D01*
X0065316Y0090378D01*
X0065373Y0090391D01*
X0065429Y0090408D01*
X0065483Y0090429D01*
X0065536Y0090453D01*
X0065588Y0090480D01*
X0065637Y0090511D01*
X0065684Y0090545D01*
X0065729Y0090582D01*
X0065772Y0090621D01*
X0065811Y0090664D01*
X0065848Y0090709D01*
X0065882Y0090756D01*
X0065913Y0090806D01*
X0065940Y0090857D01*
X0065964Y0090910D01*
X0065985Y0090964D01*
X0066002Y0091020D01*
X0066015Y0091077D01*
X0066024Y0091134D01*
X0066030Y0091192D01*
X0066032Y0091250D01*
X0066030Y0091308D01*
X0066024Y0091366D01*
X0066015Y0091423D01*
X0066002Y0091480D01*
X0065985Y0091536D01*
X0065964Y0091590D01*
X0065940Y0091643D01*
X0065913Y0091695D01*
X0065882Y0091744D01*
X0065848Y0091791D01*
X0065811Y0091836D01*
X0065772Y0091879D01*
X0065729Y0091918D01*
X0065684Y0091955D01*
X0065637Y0091989D01*
X0065587Y0092020D01*
X0065536Y0092047D01*
X0065483Y0092071D01*
X0065429Y0092092D01*
X0065373Y0092109D01*
X0065316Y0092122D01*
X0065259Y0092131D01*
X0065201Y0092137D01*
X0065143Y0092139D01*
X0064254Y0092139D01*
X0064254Y0088939D01*
X0064254Y0087415D02*
X0065143Y0087415D01*
X0064254Y0087415D02*
X0064254Y0084215D01*
X0064254Y0085637D02*
X0065143Y0085637D01*
X0065321Y0085637D02*
X0066032Y0084215D01*
X0067814Y0084215D02*
X0069592Y0084215D01*
X0067814Y0084215D02*
X0069325Y0085993D01*
X0068792Y0087415D02*
X0068730Y0087413D01*
X0068669Y0087408D01*
X0068608Y0087398D01*
X0068548Y0087386D01*
X0068489Y0087369D01*
X0068431Y0087349D01*
X0068374Y0087326D01*
X0068318Y0087299D01*
X0068264Y0087269D01*
X0068213Y0087236D01*
X0068163Y0087200D01*
X0068115Y0087161D01*
X0068070Y0087119D01*
X0068028Y0087074D01*
X0067988Y0087027D01*
X0067951Y0086978D01*
X0067917Y0086927D01*
X0067886Y0086873D01*
X0067859Y0086818D01*
X0067835Y0086762D01*
X0067814Y0086704D01*
X0069324Y0085993D02*
X0069365Y0086034D01*
X0069403Y0086078D01*
X0069437Y0086125D01*
X0069469Y0086173D01*
X0069497Y0086224D01*
X0069522Y0086277D01*
X0069543Y0086331D01*
X0069560Y0086386D01*
X0069573Y0086442D01*
X0069583Y0086499D01*
X0069589Y0086557D01*
X0069591Y0086615D01*
X0069592Y0086615D02*
X0069590Y0086670D01*
X0069585Y0086724D01*
X0069575Y0086778D01*
X0069562Y0086831D01*
X0069546Y0086883D01*
X0069526Y0086934D01*
X0069502Y0086983D01*
X0069476Y0087031D01*
X0069446Y0087076D01*
X0069413Y0087120D01*
X0069377Y0087161D01*
X0069338Y0087200D01*
X0069297Y0087236D01*
X0069253Y0087269D01*
X0069208Y0087299D01*
X0069160Y0087325D01*
X0069111Y0087349D01*
X0069060Y0087369D01*
X0069008Y0087385D01*
X0068955Y0087398D01*
X0068901Y0087408D01*
X0068847Y0087413D01*
X0068792Y0087415D01*
X0065143Y0087415D02*
X0065201Y0087413D01*
X0065259Y0087407D01*
X0065316Y0087398D01*
X0065373Y0087385D01*
X0065429Y0087368D01*
X0065483Y0087347D01*
X0065536Y0087323D01*
X0065587Y0087296D01*
X0065637Y0087265D01*
X0065684Y0087231D01*
X0065729Y0087194D01*
X0065772Y0087155D01*
X0065811Y0087112D01*
X0065848Y0087067D01*
X0065882Y0087020D01*
X0065913Y0086971D01*
X0065940Y0086919D01*
X0065964Y0086866D01*
X0065985Y0086812D01*
X0066002Y0086756D01*
X0066015Y0086699D01*
X0066024Y0086642D01*
X0066030Y0086584D01*
X0066032Y0086526D01*
X0066030Y0086468D01*
X0066024Y0086410D01*
X0066015Y0086353D01*
X0066002Y0086296D01*
X0065985Y0086240D01*
X0065964Y0086186D01*
X0065940Y0086133D01*
X0065913Y0086082D01*
X0065882Y0086032D01*
X0065848Y0085985D01*
X0065811Y0085940D01*
X0065772Y0085897D01*
X0065729Y0085858D01*
X0065684Y0085821D01*
X0065637Y0085787D01*
X0065588Y0085756D01*
X0065536Y0085729D01*
X0065483Y0085705D01*
X0065429Y0085684D01*
X0065373Y0085667D01*
X0065316Y0085654D01*
X0065259Y0085645D01*
X0065201Y0085639D01*
X0065143Y0085637D01*
X0058157Y0089792D02*
X0058107Y0089790D01*
X0058057Y0089785D01*
X0058008Y0089776D01*
X0057960Y0089765D01*
X0057912Y0089749D01*
X0057866Y0089731D01*
X0057821Y0089709D01*
X0057777Y0089684D01*
X0057736Y0089656D01*
X0057696Y0089626D01*
X0057659Y0089593D01*
X0057624Y0089557D01*
X0057592Y0089519D01*
X0057562Y0089479D01*
X0057535Y0089437D01*
X0057534Y0089436D02*
X0057001Y0088459D01*
X0055668Y0088814D02*
X0055670Y0088885D01*
X0055676Y0088957D01*
X0055685Y0089028D01*
X0055699Y0089098D01*
X0055716Y0089167D01*
X0055736Y0089236D01*
X0055761Y0089303D01*
X0055789Y0089368D01*
X0055820Y0089433D01*
X0055855Y0089495D01*
X0055893Y0089556D01*
X0055935Y0089614D01*
X0057001Y0088458D02*
X0056974Y0088416D01*
X0056945Y0088376D01*
X0056912Y0088338D01*
X0056877Y0088302D01*
X0056840Y0088269D01*
X0056800Y0088239D01*
X0056759Y0088211D01*
X0056715Y0088186D01*
X0056670Y0088164D01*
X0056624Y0088146D01*
X0056576Y0088130D01*
X0056528Y0088119D01*
X0056479Y0088110D01*
X0056429Y0088105D01*
X0056379Y0088103D01*
X0056328Y0088105D01*
X0056278Y0088110D01*
X0056228Y0088119D01*
X0056179Y0088132D01*
X0056131Y0088148D01*
X0056084Y0088167D01*
X0056038Y0088190D01*
X0055995Y0088216D01*
X0055953Y0088245D01*
X0055913Y0088277D01*
X0055876Y0088311D01*
X0055842Y0088348D01*
X0055810Y0088388D01*
X0055781Y0088430D01*
X0055755Y0088473D01*
X0055732Y0088519D01*
X0055713Y0088566D01*
X0055697Y0088614D01*
X0055684Y0088663D01*
X0055675Y0088713D01*
X0055670Y0088763D01*
X0055668Y0088814D01*
X0058424Y0088014D02*
X0058475Y0088068D01*
X0058524Y0088124D01*
X0058569Y0088182D01*
X0058612Y0088243D01*
X0058652Y0088305D01*
X0058689Y0088370D01*
X0058722Y0088436D01*
X0058752Y0088503D01*
X0058779Y0088572D01*
X0058803Y0088643D01*
X0058823Y0088714D01*
X0058839Y0088786D01*
X0058852Y0088859D01*
X0058861Y0088933D01*
X0058866Y0089007D01*
X0058868Y0089081D01*
X0058866Y0089132D01*
X0058861Y0089182D01*
X0058852Y0089232D01*
X0058839Y0089281D01*
X0058823Y0089329D01*
X0058804Y0089376D01*
X0058781Y0089422D01*
X0058755Y0089465D01*
X0058726Y0089507D01*
X0058694Y0089547D01*
X0058660Y0089584D01*
X0058623Y0089618D01*
X0058583Y0089650D01*
X0058541Y0089679D01*
X0058498Y0089705D01*
X0058452Y0089728D01*
X0058405Y0089747D01*
X0058357Y0089763D01*
X0058308Y0089776D01*
X0058258Y0089785D01*
X0058208Y0089790D01*
X0058157Y0089792D01*
X0058868Y0092152D02*
X0056734Y0092863D01*
X0058868Y0093574D01*
X0055668Y0094285D01*
X0056379Y0096054D02*
X0055668Y0096943D01*
X0058868Y0096943D01*
X0058868Y0096054D02*
X0058868Y0097832D01*
X0058868Y0092152D02*
X0055668Y0091441D01*
X0064254Y0093664D02*
X0064254Y0096864D01*
X0065143Y0096864D01*
X0065201Y0096862D01*
X0065259Y0096856D01*
X0065316Y0096847D01*
X0065373Y0096834D01*
X0065429Y0096817D01*
X0065483Y0096796D01*
X0065536Y0096772D01*
X0065587Y0096745D01*
X0065637Y0096714D01*
X0065684Y0096680D01*
X0065729Y0096643D01*
X0065772Y0096604D01*
X0065811Y0096561D01*
X0065848Y0096516D01*
X0065882Y0096469D01*
X0065913Y0096420D01*
X0065940Y0096368D01*
X0065964Y0096315D01*
X0065985Y0096261D01*
X0066002Y0096205D01*
X0066015Y0096148D01*
X0066024Y0096091D01*
X0066030Y0096033D01*
X0066032Y0095975D01*
X0066030Y0095917D01*
X0066024Y0095859D01*
X0066015Y0095802D01*
X0066002Y0095745D01*
X0065985Y0095689D01*
X0065964Y0095635D01*
X0065940Y0095582D01*
X0065913Y0095531D01*
X0065882Y0095481D01*
X0065848Y0095434D01*
X0065811Y0095389D01*
X0065772Y0095346D01*
X0065729Y0095307D01*
X0065684Y0095270D01*
X0065637Y0095236D01*
X0065588Y0095205D01*
X0065536Y0095178D01*
X0065483Y0095154D01*
X0065429Y0095133D01*
X0065373Y0095116D01*
X0065316Y0095103D01*
X0065259Y0095094D01*
X0065201Y0095088D01*
X0065143Y0095086D01*
X0064254Y0095086D01*
X0065321Y0095086D02*
X0066032Y0093664D01*
X0075746Y0086060D02*
X0075746Y0084638D01*
X0078946Y0084638D01*
X0078946Y0086060D01*
X0077169Y0085705D02*
X0077169Y0084638D01*
X0078946Y0082940D02*
X0078946Y0081518D01*
X0075746Y0081518D01*
X0075672Y0080328D02*
X0076561Y0080328D01*
X0076619Y0080326D01*
X0076677Y0080320D01*
X0076734Y0080311D01*
X0076791Y0080298D01*
X0076847Y0080281D01*
X0076901Y0080260D01*
X0076954Y0080236D01*
X0077005Y0080209D01*
X0077055Y0080178D01*
X0077102Y0080144D01*
X0077147Y0080107D01*
X0077190Y0080068D01*
X0077229Y0080025D01*
X0077266Y0079980D01*
X0077300Y0079933D01*
X0077331Y0079884D01*
X0077358Y0079832D01*
X0077382Y0079779D01*
X0077403Y0079725D01*
X0077420Y0079669D01*
X0077433Y0079612D01*
X0077442Y0079555D01*
X0077448Y0079497D01*
X0077450Y0079439D01*
X0077448Y0079381D01*
X0077442Y0079323D01*
X0077433Y0079266D01*
X0077420Y0079209D01*
X0077403Y0079153D01*
X0077382Y0079099D01*
X0077358Y0079046D01*
X0077331Y0078995D01*
X0077300Y0078945D01*
X0077266Y0078898D01*
X0077229Y0078853D01*
X0077190Y0078810D01*
X0077147Y0078771D01*
X0077102Y0078734D01*
X0077055Y0078700D01*
X0077006Y0078669D01*
X0076954Y0078642D01*
X0076901Y0078618D01*
X0076847Y0078597D01*
X0076791Y0078580D01*
X0076734Y0078567D01*
X0076677Y0078558D01*
X0076619Y0078552D01*
X0076561Y0078550D01*
X0076561Y0078551D02*
X0075672Y0078551D01*
X0076738Y0078551D02*
X0077449Y0077128D01*
X0075672Y0077128D02*
X0075672Y0080328D01*
X0079231Y0080328D02*
X0079231Y0078906D01*
X0080298Y0078906D01*
X0080349Y0078904D01*
X0080399Y0078899D01*
X0080449Y0078890D01*
X0080498Y0078877D01*
X0080546Y0078861D01*
X0080593Y0078842D01*
X0080639Y0078819D01*
X0080682Y0078793D01*
X0080724Y0078764D01*
X0080764Y0078732D01*
X0080801Y0078698D01*
X0080835Y0078661D01*
X0080867Y0078621D01*
X0080896Y0078579D01*
X0080922Y0078536D01*
X0080945Y0078490D01*
X0080964Y0078443D01*
X0080980Y0078395D01*
X0080993Y0078346D01*
X0081002Y0078296D01*
X0081007Y0078246D01*
X0081009Y0078195D01*
X0081009Y0077839D01*
X0081007Y0077788D01*
X0081002Y0077738D01*
X0080993Y0077688D01*
X0080980Y0077639D01*
X0080964Y0077591D01*
X0080945Y0077544D01*
X0080922Y0077498D01*
X0080896Y0077455D01*
X0080867Y0077413D01*
X0080835Y0077373D01*
X0080801Y0077336D01*
X0080764Y0077302D01*
X0080724Y0077270D01*
X0080682Y0077241D01*
X0080639Y0077215D01*
X0080593Y0077192D01*
X0080546Y0077173D01*
X0080498Y0077157D01*
X0080449Y0077144D01*
X0080399Y0077135D01*
X0080349Y0077130D01*
X0080298Y0077128D01*
X0079231Y0077128D01*
X0079231Y0080328D02*
X0081009Y0080328D01*
X0082896Y0080464D02*
X0082896Y0078686D01*
X0082898Y0078635D01*
X0082903Y0078585D01*
X0082912Y0078535D01*
X0082925Y0078486D01*
X0082941Y0078438D01*
X0082960Y0078391D01*
X0082983Y0078345D01*
X0083009Y0078302D01*
X0083038Y0078260D01*
X0083070Y0078220D01*
X0083104Y0078183D01*
X0083141Y0078149D01*
X0083181Y0078117D01*
X0083223Y0078088D01*
X0083266Y0078062D01*
X0083312Y0078039D01*
X0083359Y0078020D01*
X0083407Y0078004D01*
X0083456Y0077991D01*
X0083506Y0077982D01*
X0083556Y0077977D01*
X0083607Y0077975D01*
X0084318Y0077975D01*
X0085914Y0077975D02*
X0087692Y0077975D01*
X0086803Y0077975D02*
X0086803Y0081175D01*
X0085914Y0080464D01*
X0084318Y0081175D02*
X0083607Y0081175D01*
X0083554Y0081173D01*
X0083501Y0081167D01*
X0083449Y0081157D01*
X0083397Y0081143D01*
X0083347Y0081126D01*
X0083299Y0081105D01*
X0083251Y0081080D01*
X0083206Y0081051D01*
X0083164Y0081020D01*
X0083123Y0080985D01*
X0083086Y0080948D01*
X0083051Y0080907D01*
X0083020Y0080865D01*
X0082991Y0080819D01*
X0082966Y0080772D01*
X0082945Y0080724D01*
X0082928Y0080674D01*
X0082914Y0080622D01*
X0082904Y0080570D01*
X0082898Y0080517D01*
X0082896Y0080464D01*
X0080437Y0067413D02*
X0080435Y0067361D01*
X0080429Y0067309D01*
X0080420Y0067258D01*
X0080407Y0067208D01*
X0080390Y0067159D01*
X0080370Y0067111D01*
X0080346Y0067065D01*
X0080319Y0067021D01*
X0080289Y0066978D01*
X0080256Y0066939D01*
X0080219Y0066901D01*
X0080181Y0066866D01*
X0080140Y0066835D01*
X0080096Y0066806D01*
X0080051Y0066781D01*
X0080004Y0066759D01*
X0079956Y0066740D01*
X0079906Y0066725D01*
X0079855Y0066714D01*
X0079804Y0066706D01*
X0079752Y0066702D01*
X0079700Y0066702D01*
X0079648Y0066706D01*
X0079597Y0066714D01*
X0079546Y0066725D01*
X0079496Y0066740D01*
X0079448Y0066759D01*
X0079401Y0066781D01*
X0079356Y0066806D01*
X0079312Y0066835D01*
X0079271Y0066866D01*
X0079233Y0066901D01*
X0079196Y0066939D01*
X0079163Y0066978D01*
X0079133Y0067021D01*
X0079106Y0067065D01*
X0079082Y0067111D01*
X0079062Y0067159D01*
X0079045Y0067208D01*
X0079032Y0067258D01*
X0079023Y0067309D01*
X0079017Y0067361D01*
X0079015Y0067413D01*
X0079017Y0067465D01*
X0079023Y0067517D01*
X0079032Y0067568D01*
X0079045Y0067618D01*
X0079062Y0067667D01*
X0079082Y0067715D01*
X0079106Y0067761D01*
X0079133Y0067805D01*
X0079163Y0067848D01*
X0079196Y0067887D01*
X0079233Y0067925D01*
X0079271Y0067960D01*
X0079312Y0067991D01*
X0079356Y0068020D01*
X0079401Y0068045D01*
X0079448Y0068067D01*
X0079496Y0068086D01*
X0079546Y0068101D01*
X0079597Y0068112D01*
X0079648Y0068120D01*
X0079700Y0068124D01*
X0079752Y0068124D01*
X0079804Y0068120D01*
X0079855Y0068112D01*
X0079906Y0068101D01*
X0079956Y0068086D01*
X0080004Y0068067D01*
X0080051Y0068045D01*
X0080096Y0068020D01*
X0080140Y0067991D01*
X0080181Y0067960D01*
X0080219Y0067925D01*
X0080256Y0067887D01*
X0080289Y0067848D01*
X0080319Y0067805D01*
X0080346Y0067761D01*
X0080370Y0067715D01*
X0080390Y0067667D01*
X0080407Y0067618D01*
X0080420Y0067568D01*
X0080429Y0067517D01*
X0080435Y0067465D01*
X0080437Y0067413D01*
X0080615Y0065813D02*
X0080613Y0065755D01*
X0080607Y0065697D01*
X0080598Y0065640D01*
X0080585Y0065583D01*
X0080568Y0065527D01*
X0080547Y0065473D01*
X0080523Y0065420D01*
X0080496Y0065369D01*
X0080465Y0065319D01*
X0080431Y0065272D01*
X0080394Y0065227D01*
X0080355Y0065184D01*
X0080312Y0065145D01*
X0080267Y0065108D01*
X0080220Y0065074D01*
X0080171Y0065043D01*
X0080119Y0065016D01*
X0080066Y0064992D01*
X0080012Y0064971D01*
X0079956Y0064954D01*
X0079899Y0064941D01*
X0079842Y0064932D01*
X0079784Y0064926D01*
X0079726Y0064924D01*
X0079668Y0064926D01*
X0079610Y0064932D01*
X0079553Y0064941D01*
X0079496Y0064954D01*
X0079440Y0064971D01*
X0079386Y0064992D01*
X0079333Y0065016D01*
X0079282Y0065043D01*
X0079232Y0065074D01*
X0079185Y0065108D01*
X0079140Y0065145D01*
X0079097Y0065184D01*
X0079058Y0065227D01*
X0079021Y0065272D01*
X0078987Y0065319D01*
X0078956Y0065369D01*
X0078929Y0065420D01*
X0078905Y0065473D01*
X0078884Y0065527D01*
X0078867Y0065583D01*
X0078854Y0065640D01*
X0078845Y0065697D01*
X0078839Y0065755D01*
X0078837Y0065813D01*
X0078839Y0065871D01*
X0078845Y0065929D01*
X0078854Y0065986D01*
X0078867Y0066043D01*
X0078884Y0066099D01*
X0078905Y0066153D01*
X0078929Y0066206D01*
X0078956Y0066258D01*
X0078987Y0066307D01*
X0079021Y0066354D01*
X0079058Y0066399D01*
X0079097Y0066442D01*
X0079140Y0066481D01*
X0079185Y0066518D01*
X0079232Y0066552D01*
X0079282Y0066583D01*
X0079333Y0066610D01*
X0079386Y0066634D01*
X0079440Y0066655D01*
X0079496Y0066672D01*
X0079553Y0066685D01*
X0079610Y0066694D01*
X0079668Y0066700D01*
X0079726Y0066702D01*
X0079784Y0066700D01*
X0079842Y0066694D01*
X0079899Y0066685D01*
X0079956Y0066672D01*
X0080012Y0066655D01*
X0080066Y0066634D01*
X0080119Y0066610D01*
X0080171Y0066583D01*
X0080220Y0066552D01*
X0080267Y0066518D01*
X0080312Y0066481D01*
X0080355Y0066442D01*
X0080394Y0066399D01*
X0080431Y0066354D01*
X0080465Y0066307D01*
X0080496Y0066258D01*
X0080523Y0066206D01*
X0080547Y0066153D01*
X0080568Y0066099D01*
X0080585Y0066043D01*
X0080598Y0065986D01*
X0080607Y0065929D01*
X0080613Y0065871D01*
X0080615Y0065813D01*
X0080615Y0063793D02*
X0078837Y0063793D01*
X0078837Y0063437D01*
X0080615Y0063793D02*
X0079726Y0060593D01*
X0079904Y0058040D02*
X0078837Y0058040D01*
X0078837Y0057151D01*
X0078839Y0057093D01*
X0078845Y0057035D01*
X0078854Y0056978D01*
X0078867Y0056921D01*
X0078884Y0056865D01*
X0078905Y0056811D01*
X0078929Y0056758D01*
X0078956Y0056707D01*
X0078987Y0056657D01*
X0079021Y0056610D01*
X0079058Y0056565D01*
X0079097Y0056522D01*
X0079140Y0056483D01*
X0079185Y0056446D01*
X0079232Y0056412D01*
X0079282Y0056381D01*
X0079333Y0056354D01*
X0079386Y0056330D01*
X0079440Y0056309D01*
X0079496Y0056292D01*
X0079553Y0056279D01*
X0079610Y0056270D01*
X0079668Y0056264D01*
X0079726Y0056262D01*
X0079784Y0056264D01*
X0079842Y0056270D01*
X0079899Y0056279D01*
X0079956Y0056292D01*
X0080012Y0056309D01*
X0080066Y0056330D01*
X0080119Y0056354D01*
X0080171Y0056381D01*
X0080220Y0056412D01*
X0080267Y0056446D01*
X0080312Y0056483D01*
X0080355Y0056522D01*
X0080394Y0056565D01*
X0080431Y0056610D01*
X0080465Y0056657D01*
X0080496Y0056707D01*
X0080523Y0056758D01*
X0080547Y0056811D01*
X0080568Y0056865D01*
X0080585Y0056921D01*
X0080598Y0056978D01*
X0080607Y0057035D01*
X0080613Y0057093D01*
X0080615Y0057151D01*
X0080615Y0057329D01*
X0080613Y0057380D01*
X0080608Y0057430D01*
X0080599Y0057480D01*
X0080586Y0057529D01*
X0080570Y0057577D01*
X0080551Y0057624D01*
X0080528Y0057670D01*
X0080502Y0057713D01*
X0080473Y0057755D01*
X0080441Y0057795D01*
X0080407Y0057832D01*
X0080370Y0057866D01*
X0080330Y0057898D01*
X0080288Y0057927D01*
X0080245Y0057953D01*
X0080199Y0057976D01*
X0080152Y0057995D01*
X0080104Y0058011D01*
X0080055Y0058024D01*
X0080005Y0058033D01*
X0079955Y0058038D01*
X0079904Y0058040D01*
X0078838Y0058040D02*
X0078840Y0058114D01*
X0078846Y0058189D01*
X0078856Y0058262D01*
X0078869Y0058336D01*
X0078886Y0058408D01*
X0078908Y0058479D01*
X0078932Y0058550D01*
X0078961Y0058618D01*
X0078993Y0058686D01*
X0079029Y0058751D01*
X0079067Y0058814D01*
X0079110Y0058876D01*
X0079155Y0058935D01*
X0079203Y0058991D01*
X0079254Y0059046D01*
X0079308Y0059097D01*
X0079365Y0059145D01*
X0079424Y0059190D01*
X0079486Y0059233D01*
X0079549Y0059271D01*
X0079614Y0059307D01*
X0079682Y0059339D01*
X0079750Y0059368D01*
X0079821Y0059392D01*
X0079892Y0059414D01*
X0079964Y0059431D01*
X0080038Y0059444D01*
X0080111Y0059454D01*
X0080186Y0059460D01*
X0080260Y0059462D01*
X0077056Y0060593D02*
X0076345Y0062015D01*
X0076167Y0062015D02*
X0075278Y0062015D01*
X0076167Y0062015D02*
X0076225Y0062017D01*
X0076283Y0062023D01*
X0076340Y0062032D01*
X0076397Y0062045D01*
X0076453Y0062062D01*
X0076507Y0062083D01*
X0076560Y0062107D01*
X0076612Y0062134D01*
X0076661Y0062165D01*
X0076708Y0062199D01*
X0076753Y0062236D01*
X0076796Y0062275D01*
X0076835Y0062318D01*
X0076872Y0062363D01*
X0076906Y0062410D01*
X0076937Y0062460D01*
X0076964Y0062511D01*
X0076988Y0062564D01*
X0077009Y0062618D01*
X0077026Y0062674D01*
X0077039Y0062731D01*
X0077048Y0062788D01*
X0077054Y0062846D01*
X0077056Y0062904D01*
X0077054Y0062962D01*
X0077048Y0063020D01*
X0077039Y0063077D01*
X0077026Y0063134D01*
X0077009Y0063190D01*
X0076988Y0063244D01*
X0076964Y0063297D01*
X0076937Y0063349D01*
X0076906Y0063398D01*
X0076872Y0063445D01*
X0076835Y0063490D01*
X0076796Y0063533D01*
X0076753Y0063572D01*
X0076708Y0063609D01*
X0076661Y0063643D01*
X0076611Y0063674D01*
X0076560Y0063701D01*
X0076507Y0063725D01*
X0076453Y0063746D01*
X0076397Y0063763D01*
X0076340Y0063776D01*
X0076283Y0063785D01*
X0076225Y0063791D01*
X0076167Y0063793D01*
X0075278Y0063793D01*
X0075278Y0060593D01*
X0075278Y0059462D02*
X0076167Y0059462D01*
X0076225Y0059460D01*
X0076283Y0059454D01*
X0076340Y0059445D01*
X0076397Y0059432D01*
X0076453Y0059415D01*
X0076507Y0059394D01*
X0076560Y0059370D01*
X0076611Y0059343D01*
X0076661Y0059312D01*
X0076708Y0059278D01*
X0076753Y0059241D01*
X0076796Y0059202D01*
X0076835Y0059159D01*
X0076872Y0059114D01*
X0076906Y0059067D01*
X0076937Y0059018D01*
X0076964Y0058966D01*
X0076988Y0058913D01*
X0077009Y0058859D01*
X0077026Y0058803D01*
X0077039Y0058746D01*
X0077048Y0058689D01*
X0077054Y0058631D01*
X0077056Y0058573D01*
X0077054Y0058515D01*
X0077048Y0058457D01*
X0077039Y0058400D01*
X0077026Y0058343D01*
X0077009Y0058287D01*
X0076988Y0058233D01*
X0076964Y0058180D01*
X0076937Y0058129D01*
X0076906Y0058079D01*
X0076872Y0058032D01*
X0076835Y0057987D01*
X0076796Y0057944D01*
X0076753Y0057905D01*
X0076708Y0057868D01*
X0076661Y0057834D01*
X0076612Y0057803D01*
X0076560Y0057776D01*
X0076507Y0057752D01*
X0076453Y0057731D01*
X0076397Y0057714D01*
X0076340Y0057701D01*
X0076283Y0057692D01*
X0076225Y0057686D01*
X0076167Y0057684D01*
X0075278Y0057684D01*
X0076345Y0057684D02*
X0077056Y0056262D01*
X0075278Y0056262D02*
X0075278Y0059462D01*
X0075278Y0064924D02*
X0075278Y0068124D01*
X0076167Y0068124D01*
X0076225Y0068122D01*
X0076283Y0068116D01*
X0076340Y0068107D01*
X0076397Y0068094D01*
X0076453Y0068077D01*
X0076507Y0068056D01*
X0076560Y0068032D01*
X0076611Y0068005D01*
X0076661Y0067974D01*
X0076708Y0067940D01*
X0076753Y0067903D01*
X0076796Y0067864D01*
X0076835Y0067821D01*
X0076872Y0067776D01*
X0076906Y0067729D01*
X0076937Y0067680D01*
X0076964Y0067628D01*
X0076988Y0067575D01*
X0077009Y0067521D01*
X0077026Y0067465D01*
X0077039Y0067408D01*
X0077048Y0067351D01*
X0077054Y0067293D01*
X0077056Y0067235D01*
X0077054Y0067177D01*
X0077048Y0067119D01*
X0077039Y0067062D01*
X0077026Y0067005D01*
X0077009Y0066949D01*
X0076988Y0066895D01*
X0076964Y0066842D01*
X0076937Y0066791D01*
X0076906Y0066741D01*
X0076872Y0066694D01*
X0076835Y0066649D01*
X0076796Y0066606D01*
X0076753Y0066567D01*
X0076708Y0066530D01*
X0076661Y0066496D01*
X0076612Y0066465D01*
X0076560Y0066438D01*
X0076507Y0066414D01*
X0076453Y0066393D01*
X0076397Y0066376D01*
X0076340Y0066363D01*
X0076283Y0066354D01*
X0076225Y0066348D01*
X0076167Y0066346D01*
X0075278Y0066346D01*
X0076345Y0066346D02*
X0077056Y0064924D01*
X0092994Y0077916D02*
X0094417Y0077916D01*
X0092994Y0077916D02*
X0092994Y0081116D01*
X0095982Y0080405D02*
X0096871Y0081116D01*
X0096871Y0077916D01*
X0095982Y0077916D02*
X0097760Y0077916D01*
X0100869Y0077103D02*
X0100869Y0075325D01*
X0100869Y0076214D02*
X0104069Y0076214D01*
X0103357Y0077103D01*
X0104069Y0079045D02*
X0101757Y0079045D01*
X0101699Y0079047D01*
X0101641Y0079053D01*
X0101584Y0079062D01*
X0101527Y0079075D01*
X0101471Y0079092D01*
X0101417Y0079113D01*
X0101364Y0079137D01*
X0101313Y0079164D01*
X0101263Y0079195D01*
X0101216Y0079229D01*
X0101171Y0079266D01*
X0101128Y0079305D01*
X0101089Y0079348D01*
X0101052Y0079393D01*
X0101018Y0079440D01*
X0100987Y0079490D01*
X0100960Y0079541D01*
X0100936Y0079594D01*
X0100915Y0079648D01*
X0100898Y0079704D01*
X0100885Y0079761D01*
X0100876Y0079818D01*
X0100870Y0079876D01*
X0100868Y0079934D01*
X0100870Y0079992D01*
X0100876Y0080050D01*
X0100885Y0080107D01*
X0100898Y0080164D01*
X0100915Y0080220D01*
X0100936Y0080274D01*
X0100960Y0080327D01*
X0100987Y0080379D01*
X0101018Y0080428D01*
X0101052Y0080475D01*
X0101089Y0080520D01*
X0101128Y0080563D01*
X0101171Y0080602D01*
X0101216Y0080639D01*
X0101263Y0080673D01*
X0101313Y0080704D01*
X0101364Y0080731D01*
X0101417Y0080755D01*
X0101471Y0080776D01*
X0101527Y0080793D01*
X0101584Y0080806D01*
X0101641Y0080815D01*
X0101699Y0080821D01*
X0101757Y0080823D01*
X0104069Y0080823D01*
X0106711Y0080891D02*
X0106711Y0080002D01*
X0109911Y0080002D01*
X0108489Y0080002D02*
X0108489Y0080891D01*
X0108489Y0081069D02*
X0109911Y0081780D01*
X0109911Y0083562D02*
X0109911Y0085340D01*
X0109911Y0084451D02*
X0106711Y0084451D01*
X0107422Y0083562D01*
X0105191Y0084310D02*
X0105191Y0085021D01*
X0105190Y0084310D02*
X0105188Y0084257D01*
X0105182Y0084204D01*
X0105172Y0084152D01*
X0105158Y0084100D01*
X0105141Y0084050D01*
X0105120Y0084002D01*
X0105095Y0083955D01*
X0105066Y0083909D01*
X0105035Y0083867D01*
X0105000Y0083826D01*
X0104963Y0083789D01*
X0104922Y0083754D01*
X0104880Y0083723D01*
X0104835Y0083694D01*
X0104787Y0083669D01*
X0104739Y0083648D01*
X0104689Y0083631D01*
X0104637Y0083617D01*
X0104585Y0083607D01*
X0104532Y0083601D01*
X0104479Y0083599D01*
X0102702Y0083599D01*
X0102649Y0083601D01*
X0102596Y0083607D01*
X0102544Y0083617D01*
X0102492Y0083631D01*
X0102442Y0083648D01*
X0102394Y0083669D01*
X0102347Y0083694D01*
X0102301Y0083723D01*
X0102259Y0083754D01*
X0102218Y0083789D01*
X0102181Y0083826D01*
X0102146Y0083867D01*
X0102115Y0083909D01*
X0102086Y0083954D01*
X0102061Y0084002D01*
X0102040Y0084050D01*
X0102023Y0084100D01*
X0102009Y0084152D01*
X0101999Y0084204D01*
X0101993Y0084257D01*
X0101991Y0084310D01*
X0101991Y0085021D01*
X0103413Y0088128D02*
X0103372Y0088169D01*
X0103328Y0088207D01*
X0103281Y0088241D01*
X0103233Y0088273D01*
X0103182Y0088301D01*
X0103129Y0088326D01*
X0103075Y0088347D01*
X0103020Y0088364D01*
X0102964Y0088377D01*
X0102907Y0088387D01*
X0102849Y0088393D01*
X0102791Y0088395D01*
X0103413Y0088129D02*
X0105191Y0086618D01*
X0105191Y0088395D01*
X0106711Y0088051D02*
X0109911Y0088051D01*
X0109911Y0087162D02*
X0109911Y0088940D01*
X0107422Y0087162D02*
X0106711Y0088051D01*
X0103871Y0090569D02*
X0103160Y0091992D01*
X0102982Y0091992D02*
X0102094Y0091992D01*
X0102982Y0091991D02*
X0103040Y0091993D01*
X0103098Y0091999D01*
X0103155Y0092008D01*
X0103212Y0092021D01*
X0103268Y0092038D01*
X0103322Y0092059D01*
X0103375Y0092083D01*
X0103427Y0092110D01*
X0103476Y0092141D01*
X0103523Y0092175D01*
X0103568Y0092212D01*
X0103611Y0092251D01*
X0103650Y0092294D01*
X0103687Y0092339D01*
X0103721Y0092386D01*
X0103752Y0092436D01*
X0103779Y0092487D01*
X0103803Y0092540D01*
X0103824Y0092594D01*
X0103841Y0092650D01*
X0103854Y0092707D01*
X0103863Y0092764D01*
X0103869Y0092822D01*
X0103871Y0092880D01*
X0103869Y0092938D01*
X0103863Y0092996D01*
X0103854Y0093053D01*
X0103841Y0093110D01*
X0103824Y0093166D01*
X0103803Y0093220D01*
X0103779Y0093273D01*
X0103752Y0093325D01*
X0103721Y0093374D01*
X0103687Y0093421D01*
X0103650Y0093466D01*
X0103611Y0093509D01*
X0103568Y0093548D01*
X0103523Y0093585D01*
X0103476Y0093619D01*
X0103426Y0093650D01*
X0103375Y0093677D01*
X0103322Y0093701D01*
X0103268Y0093722D01*
X0103212Y0093739D01*
X0103155Y0093752D01*
X0103098Y0093761D01*
X0103040Y0093767D01*
X0102982Y0093769D01*
X0102094Y0093769D01*
X0102094Y0090569D01*
X0102791Y0088395D02*
X0102736Y0088393D01*
X0102682Y0088388D01*
X0102628Y0088378D01*
X0102575Y0088365D01*
X0102523Y0088349D01*
X0102472Y0088329D01*
X0102423Y0088305D01*
X0102375Y0088279D01*
X0102330Y0088249D01*
X0102286Y0088216D01*
X0102245Y0088180D01*
X0102206Y0088141D01*
X0102170Y0088100D01*
X0102137Y0088056D01*
X0102107Y0088011D01*
X0102081Y0087963D01*
X0102057Y0087914D01*
X0102037Y0087863D01*
X0102021Y0087811D01*
X0102008Y0087758D01*
X0101998Y0087704D01*
X0101993Y0087650D01*
X0101991Y0087595D01*
X0101990Y0087595D02*
X0101992Y0087533D01*
X0101997Y0087472D01*
X0102007Y0087411D01*
X0102019Y0087351D01*
X0102036Y0087292D01*
X0102056Y0087234D01*
X0102079Y0087177D01*
X0102106Y0087121D01*
X0102136Y0087067D01*
X0102169Y0087016D01*
X0102205Y0086966D01*
X0102244Y0086918D01*
X0102286Y0086873D01*
X0102331Y0086831D01*
X0102378Y0086791D01*
X0102427Y0086754D01*
X0102478Y0086720D01*
X0102532Y0086689D01*
X0102587Y0086662D01*
X0102643Y0086638D01*
X0102701Y0086617D01*
X0106008Y0090570D02*
X0106082Y0090572D01*
X0106157Y0090578D01*
X0106230Y0090588D01*
X0106304Y0090601D01*
X0106376Y0090618D01*
X0106447Y0090640D01*
X0106518Y0090664D01*
X0106586Y0090693D01*
X0106654Y0090725D01*
X0106719Y0090761D01*
X0106782Y0090799D01*
X0106844Y0090842D01*
X0106903Y0090887D01*
X0106960Y0090935D01*
X0107014Y0090986D01*
X0107065Y0091040D01*
X0107113Y0091097D01*
X0107158Y0091156D01*
X0107201Y0091218D01*
X0107239Y0091281D01*
X0107275Y0091346D01*
X0107307Y0091414D01*
X0107336Y0091482D01*
X0107360Y0091553D01*
X0107382Y0091624D01*
X0107399Y0091696D01*
X0107412Y0091770D01*
X0107422Y0091843D01*
X0107428Y0091918D01*
X0107430Y0091992D01*
X0107431Y0091992D02*
X0107431Y0092880D01*
X0107431Y0091992D02*
X0106364Y0091992D01*
X0106313Y0091994D01*
X0106263Y0091999D01*
X0106213Y0092008D01*
X0106164Y0092021D01*
X0106116Y0092037D01*
X0106069Y0092056D01*
X0106023Y0092079D01*
X0105980Y0092105D01*
X0105938Y0092134D01*
X0105898Y0092166D01*
X0105861Y0092200D01*
X0105827Y0092237D01*
X0105795Y0092277D01*
X0105766Y0092319D01*
X0105740Y0092362D01*
X0105717Y0092408D01*
X0105698Y0092455D01*
X0105682Y0092503D01*
X0105669Y0092552D01*
X0105660Y0092602D01*
X0105655Y0092652D01*
X0105653Y0092703D01*
X0105653Y0092880D01*
X0105655Y0092938D01*
X0105661Y0092996D01*
X0105670Y0093053D01*
X0105683Y0093110D01*
X0105700Y0093166D01*
X0105721Y0093220D01*
X0105745Y0093273D01*
X0105772Y0093325D01*
X0105803Y0093374D01*
X0105837Y0093421D01*
X0105874Y0093466D01*
X0105913Y0093509D01*
X0105956Y0093548D01*
X0106001Y0093585D01*
X0106048Y0093619D01*
X0106098Y0093650D01*
X0106149Y0093677D01*
X0106202Y0093701D01*
X0106256Y0093722D01*
X0106312Y0093739D01*
X0106369Y0093752D01*
X0106426Y0093761D01*
X0106484Y0093767D01*
X0106542Y0093769D01*
X0106600Y0093767D01*
X0106658Y0093761D01*
X0106715Y0093752D01*
X0106772Y0093739D01*
X0106828Y0093722D01*
X0106882Y0093701D01*
X0106935Y0093677D01*
X0106987Y0093650D01*
X0107036Y0093619D01*
X0107083Y0093585D01*
X0107128Y0093548D01*
X0107171Y0093509D01*
X0107210Y0093466D01*
X0107247Y0093421D01*
X0107281Y0093374D01*
X0107312Y0093325D01*
X0107339Y0093273D01*
X0107363Y0093220D01*
X0107384Y0093166D01*
X0107401Y0093110D01*
X0107414Y0093053D01*
X0107423Y0092996D01*
X0107429Y0092938D01*
X0107431Y0092880D01*
X0106711Y0080891D02*
X0106713Y0080949D01*
X0106719Y0081007D01*
X0106728Y0081064D01*
X0106741Y0081121D01*
X0106758Y0081177D01*
X0106779Y0081231D01*
X0106803Y0081284D01*
X0106830Y0081336D01*
X0106861Y0081385D01*
X0106895Y0081432D01*
X0106932Y0081477D01*
X0106971Y0081520D01*
X0107014Y0081559D01*
X0107059Y0081596D01*
X0107106Y0081630D01*
X0107156Y0081661D01*
X0107207Y0081688D01*
X0107260Y0081712D01*
X0107314Y0081733D01*
X0107370Y0081750D01*
X0107427Y0081763D01*
X0107484Y0081772D01*
X0107542Y0081778D01*
X0107600Y0081780D01*
X0107658Y0081778D01*
X0107716Y0081772D01*
X0107773Y0081763D01*
X0107830Y0081750D01*
X0107886Y0081733D01*
X0107940Y0081712D01*
X0107993Y0081688D01*
X0108045Y0081661D01*
X0108094Y0081630D01*
X0108141Y0081596D01*
X0108186Y0081559D01*
X0108229Y0081520D01*
X0108268Y0081477D01*
X0108305Y0081432D01*
X0108339Y0081385D01*
X0108370Y0081336D01*
X0108397Y0081284D01*
X0108421Y0081231D01*
X0108442Y0081177D01*
X0108459Y0081121D01*
X0108472Y0081064D01*
X0108481Y0081007D01*
X0108487Y0080949D01*
X0108489Y0080891D01*
X0123054Y0065877D02*
X0126254Y0065877D01*
X0126254Y0064989D02*
X0126254Y0066766D01*
X0123765Y0064989D02*
X0123054Y0065877D01*
X0123054Y0063072D02*
X0125542Y0063072D01*
X0125593Y0063070D01*
X0125643Y0063065D01*
X0125693Y0063056D01*
X0125742Y0063043D01*
X0125790Y0063027D01*
X0125837Y0063008D01*
X0125883Y0062985D01*
X0125926Y0062959D01*
X0125968Y0062930D01*
X0126008Y0062898D01*
X0126045Y0062864D01*
X0126079Y0062827D01*
X0126111Y0062787D01*
X0126140Y0062745D01*
X0126166Y0062702D01*
X0126189Y0062656D01*
X0126208Y0062609D01*
X0126224Y0062561D01*
X0126237Y0062512D01*
X0126246Y0062462D01*
X0126251Y0062412D01*
X0126253Y0062361D01*
X0126254Y0062361D02*
X0126254Y0062005D01*
X0124039Y0091124D02*
X0123683Y0091124D01*
X0124039Y0091125D02*
X0124092Y0091127D01*
X0124145Y0091133D01*
X0124197Y0091143D01*
X0124249Y0091157D01*
X0124299Y0091174D01*
X0124347Y0091195D01*
X0124395Y0091220D01*
X0124440Y0091249D01*
X0124482Y0091280D01*
X0124523Y0091315D01*
X0124560Y0091352D01*
X0124595Y0091393D01*
X0124626Y0091435D01*
X0124655Y0091481D01*
X0124680Y0091528D01*
X0124701Y0091576D01*
X0124718Y0091626D01*
X0124732Y0091678D01*
X0124742Y0091730D01*
X0124748Y0091783D01*
X0124750Y0091836D01*
X0124750Y0094324D01*
X0122065Y0104358D02*
X0121974Y0104316D01*
X0121882Y0104277D01*
X0121789Y0104242D01*
X0121694Y0104211D01*
X0121599Y0104183D01*
X0121502Y0104159D01*
X0121404Y0104138D01*
X0121306Y0104121D01*
X0121207Y0104108D01*
X0121108Y0104099D01*
X0121009Y0104093D01*
X0120909Y0104091D01*
X0117037Y0106048D02*
X0117037Y0106759D01*
X0117037Y0106048D02*
X0117035Y0105995D01*
X0117029Y0105942D01*
X0117019Y0105890D01*
X0117005Y0105838D01*
X0116988Y0105788D01*
X0116967Y0105740D01*
X0116942Y0105693D01*
X0116913Y0105647D01*
X0116882Y0105605D01*
X0116847Y0105564D01*
X0116810Y0105527D01*
X0116769Y0105492D01*
X0116727Y0105461D01*
X0116682Y0105432D01*
X0116634Y0105407D01*
X0116586Y0105386D01*
X0116536Y0105369D01*
X0116484Y0105355D01*
X0116432Y0105345D01*
X0116379Y0105339D01*
X0116326Y0105337D01*
X0114548Y0105337D01*
X0114495Y0105339D01*
X0114442Y0105345D01*
X0114390Y0105355D01*
X0114338Y0105369D01*
X0114288Y0105386D01*
X0114240Y0105407D01*
X0114193Y0105432D01*
X0114147Y0105461D01*
X0114105Y0105492D01*
X0114064Y0105527D01*
X0114027Y0105564D01*
X0113992Y0105605D01*
X0113961Y0105647D01*
X0113932Y0105692D01*
X0113907Y0105740D01*
X0113886Y0105788D01*
X0113869Y0105838D01*
X0113855Y0105890D01*
X0113845Y0105942D01*
X0113839Y0105995D01*
X0113837Y0106048D01*
X0113837Y0106759D01*
X0113837Y0108355D02*
X0113837Y0110133D01*
X0115259Y0109422D02*
X0115259Y0108355D01*
X0113837Y0108355D01*
X0115259Y0109422D02*
X0115261Y0109475D01*
X0115267Y0109528D01*
X0115277Y0109580D01*
X0115291Y0109632D01*
X0115308Y0109682D01*
X0115329Y0109730D01*
X0115354Y0109778D01*
X0115383Y0109823D01*
X0115414Y0109865D01*
X0115449Y0109906D01*
X0115486Y0109943D01*
X0115527Y0109978D01*
X0115569Y0110009D01*
X0115615Y0110038D01*
X0115662Y0110063D01*
X0115710Y0110084D01*
X0115760Y0110101D01*
X0115812Y0110115D01*
X0115864Y0110125D01*
X0115917Y0110131D01*
X0115970Y0110133D01*
X0116326Y0110133D01*
X0116377Y0110131D01*
X0116427Y0110126D01*
X0116477Y0110117D01*
X0116526Y0110104D01*
X0116574Y0110088D01*
X0116621Y0110069D01*
X0116667Y0110046D01*
X0116710Y0110020D01*
X0116752Y0109991D01*
X0116792Y0109959D01*
X0116829Y0109925D01*
X0116863Y0109888D01*
X0116895Y0109848D01*
X0116924Y0109806D01*
X0116950Y0109763D01*
X0116973Y0109717D01*
X0116992Y0109670D01*
X0117008Y0109622D01*
X0117021Y0109573D01*
X0117030Y0109523D01*
X0117035Y0109473D01*
X0117037Y0109422D01*
X0117037Y0108355D01*
X0073491Y0138187D02*
X0074380Y0141387D01*
X0072602Y0141387D01*
X0072602Y0141032D01*
X0071006Y0141387D02*
X0070295Y0141387D01*
X0070242Y0141385D01*
X0070189Y0141379D01*
X0070137Y0141369D01*
X0070085Y0141355D01*
X0070035Y0141338D01*
X0069987Y0141317D01*
X0069939Y0141292D01*
X0069894Y0141263D01*
X0069852Y0141232D01*
X0069811Y0141197D01*
X0069774Y0141160D01*
X0069739Y0141119D01*
X0069708Y0141077D01*
X0069679Y0141031D01*
X0069654Y0140984D01*
X0069633Y0140936D01*
X0069616Y0140886D01*
X0069602Y0140834D01*
X0069592Y0140782D01*
X0069586Y0140729D01*
X0069584Y0140676D01*
X0069583Y0140676D02*
X0069583Y0138899D01*
X0069584Y0138899D02*
X0069586Y0138848D01*
X0069591Y0138798D01*
X0069600Y0138748D01*
X0069613Y0138699D01*
X0069629Y0138651D01*
X0069648Y0138604D01*
X0069671Y0138558D01*
X0069697Y0138515D01*
X0069726Y0138473D01*
X0069758Y0138433D01*
X0069792Y0138396D01*
X0069829Y0138362D01*
X0069869Y0138330D01*
X0069911Y0138301D01*
X0069954Y0138275D01*
X0070000Y0138252D01*
X0070047Y0138233D01*
X0070095Y0138217D01*
X0070144Y0138204D01*
X0070194Y0138195D01*
X0070244Y0138190D01*
X0070295Y0138188D01*
X0070295Y0138187D02*
X0071006Y0138187D01*
X0059547Y0121883D02*
X0057769Y0121883D01*
X0057769Y0120461D01*
X0058836Y0120461D01*
X0058887Y0120459D01*
X0058937Y0120454D01*
X0058987Y0120445D01*
X0059036Y0120432D01*
X0059084Y0120416D01*
X0059131Y0120397D01*
X0059177Y0120374D01*
X0059220Y0120348D01*
X0059262Y0120319D01*
X0059302Y0120287D01*
X0059339Y0120253D01*
X0059373Y0120216D01*
X0059405Y0120176D01*
X0059434Y0120134D01*
X0059460Y0120091D01*
X0059483Y0120045D01*
X0059502Y0119998D01*
X0059518Y0119950D01*
X0059531Y0119901D01*
X0059540Y0119851D01*
X0059545Y0119801D01*
X0059547Y0119750D01*
X0059547Y0119395D01*
X0059545Y0119344D01*
X0059540Y0119294D01*
X0059531Y0119244D01*
X0059518Y0119195D01*
X0059502Y0119147D01*
X0059483Y0119100D01*
X0059460Y0119054D01*
X0059434Y0119011D01*
X0059405Y0118969D01*
X0059373Y0118929D01*
X0059339Y0118892D01*
X0059302Y0118858D01*
X0059262Y0118826D01*
X0059220Y0118797D01*
X0059177Y0118771D01*
X0059131Y0118748D01*
X0059084Y0118729D01*
X0059036Y0118713D01*
X0058987Y0118700D01*
X0058937Y0118691D01*
X0058887Y0118686D01*
X0058836Y0118684D01*
X0058836Y0118683D02*
X0057769Y0118683D01*
X0055852Y0119395D02*
X0055852Y0121883D01*
X0055852Y0119395D02*
X0055850Y0119342D01*
X0055844Y0119289D01*
X0055834Y0119237D01*
X0055820Y0119185D01*
X0055803Y0119135D01*
X0055782Y0119087D01*
X0055757Y0119040D01*
X0055728Y0118994D01*
X0055697Y0118952D01*
X0055662Y0118911D01*
X0055625Y0118874D01*
X0055584Y0118839D01*
X0055542Y0118808D01*
X0055497Y0118779D01*
X0055449Y0118754D01*
X0055401Y0118733D01*
X0055351Y0118716D01*
X0055299Y0118702D01*
X0055247Y0118692D01*
X0055194Y0118686D01*
X0055141Y0118684D01*
X0055141Y0118683D02*
X0054786Y0118683D01*
X0059846Y0111017D02*
X0061624Y0109506D01*
X0061624Y0111283D01*
X0061624Y0107940D02*
X0061624Y0106518D01*
X0058424Y0106518D01*
X0059846Y0111016D02*
X0059805Y0111057D01*
X0059761Y0111095D01*
X0059714Y0111129D01*
X0059666Y0111161D01*
X0059615Y0111189D01*
X0059562Y0111214D01*
X0059508Y0111235D01*
X0059453Y0111252D01*
X0059397Y0111265D01*
X0059340Y0111275D01*
X0059282Y0111281D01*
X0059224Y0111283D01*
X0059169Y0111281D01*
X0059115Y0111276D01*
X0059061Y0111266D01*
X0059008Y0111253D01*
X0058956Y0111237D01*
X0058905Y0111217D01*
X0058856Y0111193D01*
X0058808Y0111167D01*
X0058763Y0111137D01*
X0058719Y0111104D01*
X0058678Y0111068D01*
X0058639Y0111029D01*
X0058603Y0110988D01*
X0058570Y0110944D01*
X0058540Y0110899D01*
X0058514Y0110851D01*
X0058490Y0110802D01*
X0058470Y0110751D01*
X0058454Y0110699D01*
X0058441Y0110646D01*
X0058431Y0110592D01*
X0058426Y0110538D01*
X0058424Y0110483D01*
X0058423Y0110483D02*
X0058425Y0110421D01*
X0058430Y0110360D01*
X0058440Y0110299D01*
X0058452Y0110239D01*
X0058469Y0110180D01*
X0058489Y0110122D01*
X0058512Y0110065D01*
X0058539Y0110009D01*
X0058569Y0109955D01*
X0058602Y0109904D01*
X0058638Y0109854D01*
X0058677Y0109806D01*
X0058719Y0109761D01*
X0058764Y0109719D01*
X0058811Y0109679D01*
X0058860Y0109642D01*
X0058911Y0109608D01*
X0058965Y0109577D01*
X0059020Y0109550D01*
X0059076Y0109526D01*
X0059134Y0109505D01*
X0060816Y0163620D02*
X0061883Y0166820D01*
X0063688Y0166820D02*
X0063688Y0163620D01*
X0063688Y0165043D02*
X0064577Y0165043D01*
X0064755Y0165043D02*
X0065466Y0163620D01*
X0067247Y0163620D02*
X0069025Y0163620D01*
X0068136Y0163620D02*
X0068136Y0166820D01*
X0067247Y0166109D01*
X0064577Y0166821D02*
X0064635Y0166819D01*
X0064693Y0166813D01*
X0064750Y0166804D01*
X0064807Y0166791D01*
X0064863Y0166774D01*
X0064917Y0166753D01*
X0064970Y0166729D01*
X0065021Y0166702D01*
X0065071Y0166671D01*
X0065118Y0166637D01*
X0065163Y0166600D01*
X0065206Y0166561D01*
X0065245Y0166518D01*
X0065282Y0166473D01*
X0065316Y0166426D01*
X0065347Y0166377D01*
X0065374Y0166325D01*
X0065398Y0166272D01*
X0065419Y0166218D01*
X0065436Y0166162D01*
X0065449Y0166105D01*
X0065458Y0166048D01*
X0065464Y0165990D01*
X0065466Y0165932D01*
X0065464Y0165874D01*
X0065458Y0165816D01*
X0065449Y0165759D01*
X0065436Y0165702D01*
X0065419Y0165646D01*
X0065398Y0165592D01*
X0065374Y0165539D01*
X0065347Y0165488D01*
X0065316Y0165438D01*
X0065282Y0165391D01*
X0065245Y0165346D01*
X0065206Y0165303D01*
X0065163Y0165264D01*
X0065118Y0165227D01*
X0065071Y0165193D01*
X0065022Y0165162D01*
X0064970Y0165135D01*
X0064917Y0165111D01*
X0064863Y0165090D01*
X0064807Y0165073D01*
X0064750Y0165060D01*
X0064693Y0165051D01*
X0064635Y0165045D01*
X0064577Y0165043D01*
X0064577Y0166820D02*
X0063688Y0166820D01*
X0059750Y0166820D02*
X0060816Y0163620D01*
X0061515Y0171617D02*
X0063292Y0171617D01*
X0062403Y0171617D02*
X0062403Y0174817D01*
X0061515Y0174105D01*
X0058844Y0174817D02*
X0058902Y0174815D01*
X0058960Y0174809D01*
X0059017Y0174800D01*
X0059074Y0174787D01*
X0059130Y0174770D01*
X0059184Y0174749D01*
X0059237Y0174725D01*
X0059288Y0174698D01*
X0059338Y0174667D01*
X0059385Y0174633D01*
X0059430Y0174596D01*
X0059473Y0174557D01*
X0059512Y0174514D01*
X0059549Y0174469D01*
X0059583Y0174422D01*
X0059614Y0174373D01*
X0059641Y0174321D01*
X0059665Y0174268D01*
X0059686Y0174214D01*
X0059703Y0174158D01*
X0059716Y0174101D01*
X0059725Y0174044D01*
X0059731Y0173986D01*
X0059733Y0173928D01*
X0059731Y0173870D01*
X0059725Y0173812D01*
X0059716Y0173755D01*
X0059703Y0173698D01*
X0059686Y0173642D01*
X0059665Y0173588D01*
X0059641Y0173535D01*
X0059614Y0173484D01*
X0059583Y0173434D01*
X0059549Y0173387D01*
X0059512Y0173342D01*
X0059473Y0173299D01*
X0059430Y0173260D01*
X0059385Y0173223D01*
X0059338Y0173189D01*
X0059289Y0173158D01*
X0059237Y0173131D01*
X0059184Y0173107D01*
X0059130Y0173086D01*
X0059074Y0173069D01*
X0059017Y0173056D01*
X0058960Y0173047D01*
X0058902Y0173041D01*
X0058844Y0173039D01*
X0057955Y0173039D01*
X0059022Y0173039D02*
X0059733Y0171617D01*
X0057955Y0171617D02*
X0057955Y0174817D01*
X0058844Y0174817D01*
X0057955Y0177128D02*
X0057955Y0180328D01*
X0058844Y0180328D01*
X0058902Y0180326D01*
X0058960Y0180320D01*
X0059017Y0180311D01*
X0059074Y0180298D01*
X0059130Y0180281D01*
X0059184Y0180260D01*
X0059237Y0180236D01*
X0059288Y0180209D01*
X0059338Y0180178D01*
X0059385Y0180144D01*
X0059430Y0180107D01*
X0059473Y0180068D01*
X0059512Y0180025D01*
X0059549Y0179980D01*
X0059583Y0179933D01*
X0059614Y0179884D01*
X0059641Y0179832D01*
X0059665Y0179779D01*
X0059686Y0179725D01*
X0059703Y0179669D01*
X0059716Y0179612D01*
X0059725Y0179555D01*
X0059731Y0179497D01*
X0059733Y0179439D01*
X0059731Y0179381D01*
X0059725Y0179323D01*
X0059716Y0179266D01*
X0059703Y0179209D01*
X0059686Y0179153D01*
X0059665Y0179099D01*
X0059641Y0179046D01*
X0059614Y0178995D01*
X0059583Y0178945D01*
X0059549Y0178898D01*
X0059512Y0178853D01*
X0059473Y0178810D01*
X0059430Y0178771D01*
X0059385Y0178734D01*
X0059338Y0178700D01*
X0059289Y0178669D01*
X0059237Y0178642D01*
X0059184Y0178618D01*
X0059130Y0178597D01*
X0059074Y0178580D01*
X0059017Y0178567D01*
X0058960Y0178558D01*
X0058902Y0178552D01*
X0058844Y0178550D01*
X0058844Y0178551D02*
X0057955Y0178551D01*
X0059022Y0178551D02*
X0059733Y0177128D01*
X0061515Y0177128D02*
X0063292Y0177128D01*
X0062403Y0177128D02*
X0062403Y0180328D01*
X0061515Y0179617D01*
X0065115Y0179973D02*
X0065115Y0180328D01*
X0066892Y0180328D01*
X0066003Y0177128D01*
X0065292Y0174105D02*
X0065294Y0174053D01*
X0065300Y0174001D01*
X0065309Y0173950D01*
X0065322Y0173900D01*
X0065339Y0173851D01*
X0065359Y0173803D01*
X0065383Y0173757D01*
X0065410Y0173713D01*
X0065440Y0173670D01*
X0065473Y0173631D01*
X0065510Y0173593D01*
X0065548Y0173558D01*
X0065589Y0173527D01*
X0065633Y0173498D01*
X0065678Y0173473D01*
X0065725Y0173451D01*
X0065773Y0173432D01*
X0065823Y0173417D01*
X0065874Y0173406D01*
X0065925Y0173398D01*
X0065977Y0173394D01*
X0066029Y0173394D01*
X0066081Y0173398D01*
X0066132Y0173406D01*
X0066183Y0173417D01*
X0066233Y0173432D01*
X0066281Y0173451D01*
X0066328Y0173473D01*
X0066373Y0173498D01*
X0066417Y0173527D01*
X0066458Y0173558D01*
X0066496Y0173593D01*
X0066533Y0173631D01*
X0066566Y0173670D01*
X0066596Y0173713D01*
X0066623Y0173757D01*
X0066647Y0173803D01*
X0066667Y0173851D01*
X0066684Y0173900D01*
X0066697Y0173950D01*
X0066706Y0174001D01*
X0066712Y0174053D01*
X0066714Y0174105D01*
X0066712Y0174157D01*
X0066706Y0174209D01*
X0066697Y0174260D01*
X0066684Y0174310D01*
X0066667Y0174359D01*
X0066647Y0174407D01*
X0066623Y0174453D01*
X0066596Y0174497D01*
X0066566Y0174540D01*
X0066533Y0174579D01*
X0066496Y0174617D01*
X0066458Y0174652D01*
X0066417Y0174683D01*
X0066373Y0174712D01*
X0066328Y0174737D01*
X0066281Y0174759D01*
X0066233Y0174778D01*
X0066183Y0174793D01*
X0066132Y0174804D01*
X0066081Y0174812D01*
X0066029Y0174816D01*
X0065977Y0174816D01*
X0065925Y0174812D01*
X0065874Y0174804D01*
X0065823Y0174793D01*
X0065773Y0174778D01*
X0065725Y0174759D01*
X0065678Y0174737D01*
X0065633Y0174712D01*
X0065589Y0174683D01*
X0065548Y0174652D01*
X0065510Y0174617D01*
X0065473Y0174579D01*
X0065440Y0174540D01*
X0065410Y0174497D01*
X0065383Y0174453D01*
X0065359Y0174407D01*
X0065339Y0174359D01*
X0065322Y0174310D01*
X0065309Y0174260D01*
X0065300Y0174209D01*
X0065294Y0174157D01*
X0065292Y0174105D01*
X0065114Y0172505D02*
X0065116Y0172447D01*
X0065122Y0172389D01*
X0065131Y0172332D01*
X0065144Y0172275D01*
X0065161Y0172219D01*
X0065182Y0172165D01*
X0065206Y0172112D01*
X0065233Y0172061D01*
X0065264Y0172011D01*
X0065298Y0171964D01*
X0065335Y0171919D01*
X0065374Y0171876D01*
X0065417Y0171837D01*
X0065462Y0171800D01*
X0065509Y0171766D01*
X0065559Y0171735D01*
X0065610Y0171708D01*
X0065663Y0171684D01*
X0065717Y0171663D01*
X0065773Y0171646D01*
X0065830Y0171633D01*
X0065887Y0171624D01*
X0065945Y0171618D01*
X0066003Y0171616D01*
X0066061Y0171618D01*
X0066119Y0171624D01*
X0066176Y0171633D01*
X0066233Y0171646D01*
X0066289Y0171663D01*
X0066343Y0171684D01*
X0066396Y0171708D01*
X0066448Y0171735D01*
X0066497Y0171766D01*
X0066544Y0171800D01*
X0066589Y0171837D01*
X0066632Y0171876D01*
X0066671Y0171919D01*
X0066708Y0171964D01*
X0066742Y0172011D01*
X0066773Y0172061D01*
X0066800Y0172112D01*
X0066824Y0172165D01*
X0066845Y0172219D01*
X0066862Y0172275D01*
X0066875Y0172332D01*
X0066884Y0172389D01*
X0066890Y0172447D01*
X0066892Y0172505D01*
X0066890Y0172563D01*
X0066884Y0172621D01*
X0066875Y0172678D01*
X0066862Y0172735D01*
X0066845Y0172791D01*
X0066824Y0172845D01*
X0066800Y0172898D01*
X0066773Y0172950D01*
X0066742Y0172999D01*
X0066708Y0173046D01*
X0066671Y0173091D01*
X0066632Y0173134D01*
X0066589Y0173173D01*
X0066544Y0173210D01*
X0066497Y0173244D01*
X0066448Y0173275D01*
X0066396Y0173302D01*
X0066343Y0173326D01*
X0066289Y0173347D01*
X0066233Y0173364D01*
X0066176Y0173377D01*
X0066119Y0173386D01*
X0066061Y0173392D01*
X0066003Y0173394D01*
X0065945Y0173392D01*
X0065887Y0173386D01*
X0065830Y0173377D01*
X0065773Y0173364D01*
X0065717Y0173347D01*
X0065663Y0173326D01*
X0065610Y0173302D01*
X0065559Y0173275D01*
X0065509Y0173244D01*
X0065462Y0173210D01*
X0065417Y0173173D01*
X0065374Y0173134D01*
X0065335Y0173091D01*
X0065298Y0173046D01*
X0065264Y0172999D01*
X0065233Y0172950D01*
X0065206Y0172898D01*
X0065182Y0172845D01*
X0065161Y0172791D01*
X0065144Y0172735D01*
X0065131Y0172678D01*
X0065122Y0172621D01*
X0065116Y0172563D01*
X0065114Y0172505D01*
D12*
X0075409Y0139189D02*
X0103756Y0139189D01*
X0103756Y0122654D01*
X0075409Y0122654D01*
X0075409Y0139189D01*
X0082102Y0115567D02*
X0065567Y0115567D01*
X0065567Y0099031D01*
X0082102Y0099031D01*
X0082102Y0115567D01*
X0096472Y0113205D02*
X0096472Y0111039D01*
X0096472Y0113205D02*
X0096866Y0113205D01*
X0100606Y0118323D02*
X0100606Y0122260D01*
X0098638Y0120291D02*
X0102575Y0120291D01*
X0105724Y0113205D02*
X0106315Y0113205D01*
X0106315Y0111827D01*
X0106315Y0102772D02*
X0106315Y0101394D01*
X0105724Y0101394D01*
X0096866Y0101394D02*
X0096472Y0101394D01*
X0096472Y0103559D01*
X0082299Y0086827D02*
X0082299Y0084268D01*
X0081315Y0085252D01*
X0080331Y0084268D01*
X0080331Y0086827D01*
X0082299Y0086827D01*
X0082299Y0084268D02*
X0082299Y0082890D01*
X0080331Y0082890D01*
X0080331Y0084268D01*
X0088598Y0069504D02*
X0118126Y0069504D01*
X0118126Y0049819D01*
X0117929Y0049819D01*
X0119504Y0047850D01*
X0117929Y0049819D02*
X0088795Y0049819D01*
X0087220Y0047850D01*
X0088598Y0049819D02*
X0088795Y0049819D01*
X0088598Y0049819D02*
X0088598Y0069504D01*
X0062811Y0059268D02*
X0052575Y0059268D01*
X0052575Y0065961D01*
X0047457Y0065961D01*
X0047457Y0070685D01*
X0052575Y0070685D01*
X0052575Y0081315D01*
X0062811Y0081315D01*
X0062811Y0059268D01*
X0052575Y0065961D02*
X0052575Y0070685D01*
D13*
X0055252Y0142693D02*
X0055252Y0146748D01*
X0048953Y0146748D01*
X0048953Y0157772D01*
X0055252Y0157772D01*
X0055252Y0161984D01*
X0130449Y0161984D01*
X0130449Y0142693D01*
X0055252Y0142693D01*
X0055252Y0146748D02*
X0055252Y0157772D01*
X0065173Y0183283D02*
X0065173Y0238402D01*
X0117929Y0238402D01*
X0117929Y0183283D01*
X0065173Y0183283D01*
D14*
X0070508Y0178457D02*
X0071650Y0178457D01*
X0071650Y0177087D02*
X0070508Y0177087D01*
X0070508Y0174520D02*
X0071650Y0174520D01*
X0071650Y0173150D02*
X0070508Y0173150D01*
X0106335Y0119402D02*
X0107476Y0119402D01*
X0107476Y0118031D02*
X0106335Y0118031D01*
X0111339Y0117319D02*
X0111339Y0116177D01*
X0112709Y0116177D02*
X0112709Y0117319D01*
X0112709Y0124445D02*
X0112709Y0125587D01*
X0111339Y0125587D02*
X0111339Y0124445D01*
X0109165Y0128382D02*
X0109165Y0129524D01*
X0107795Y0129524D02*
X0107795Y0128382D01*
X0110157Y0097240D02*
X0110157Y0096098D01*
X0111528Y0096098D02*
X0111528Y0097240D01*
X0113307Y0097240D02*
X0113307Y0096098D01*
X0114677Y0096098D02*
X0114677Y0097240D01*
X0116457Y0097240D02*
X0116457Y0096098D01*
X0117827Y0096098D02*
X0117827Y0097240D01*
X0101177Y0097748D02*
X0100035Y0097748D01*
X0100035Y0096378D02*
X0101177Y0096378D01*
X0095094Y0093126D02*
X0094307Y0093126D01*
X0095094Y0093126D02*
X0095094Y0082102D01*
X0094307Y0082102D01*
X0093520Y0076197D02*
X0096669Y0076197D01*
X0096669Y0073835D02*
X0093520Y0073835D01*
X0084858Y0082102D02*
X0084071Y0082102D01*
X0084071Y0093126D01*
X0084858Y0093126D01*
X0082000Y0092516D02*
X0082000Y0091374D01*
X0080630Y0091374D02*
X0080630Y0092516D01*
X0072043Y0082787D02*
X0070902Y0082787D01*
X0070902Y0081417D02*
X0072043Y0081417D01*
X0072043Y0078850D02*
X0070902Y0078850D01*
X0070902Y0077480D02*
X0072043Y0077480D01*
X0072043Y0074913D02*
X0070902Y0074913D01*
X0070902Y0073543D02*
X0072043Y0073543D01*
X0074839Y0070976D02*
X0075980Y0070976D01*
X0075980Y0069606D02*
X0074839Y0069606D01*
X0072043Y0067039D02*
X0070902Y0067039D01*
X0070902Y0065669D02*
X0072043Y0065669D01*
X0072043Y0063102D02*
X0070902Y0063102D01*
X0070902Y0061732D02*
X0072043Y0061732D01*
X0072043Y0059165D02*
X0070902Y0059165D01*
X0070902Y0057795D02*
X0072043Y0057795D01*
D15*
X0094051Y0094631D02*
X0094573Y0096067D01*
X0094051Y0097504D01*
X0094573Y0096067D02*
X0093007Y0096067D01*
X0094573Y0096067D02*
X0095748Y0095154D01*
X0094573Y0096067D02*
X0095748Y0096981D01*
D16*
X0107102Y0102772D02*
X0107104Y0102799D01*
X0107110Y0102826D01*
X0107119Y0102852D01*
X0107132Y0102876D01*
X0107148Y0102899D01*
X0107167Y0102918D01*
X0107189Y0102935D01*
X0107213Y0102949D01*
X0107238Y0102959D01*
X0107265Y0102966D01*
X0107292Y0102969D01*
X0107320Y0102968D01*
X0107347Y0102963D01*
X0107373Y0102955D01*
X0107397Y0102943D01*
X0107420Y0102927D01*
X0107441Y0102909D01*
X0107458Y0102888D01*
X0107473Y0102864D01*
X0107484Y0102839D01*
X0107492Y0102813D01*
X0107496Y0102786D01*
X0107496Y0102758D01*
X0107492Y0102731D01*
X0107484Y0102705D01*
X0107473Y0102680D01*
X0107458Y0102656D01*
X0107441Y0102635D01*
X0107420Y0102617D01*
X0107398Y0102601D01*
X0107373Y0102589D01*
X0107347Y0102581D01*
X0107320Y0102576D01*
X0107292Y0102575D01*
X0107265Y0102578D01*
X0107238Y0102585D01*
X0107213Y0102595D01*
X0107189Y0102609D01*
X0107167Y0102626D01*
X0107148Y0102645D01*
X0107132Y0102668D01*
X0107119Y0102692D01*
X0107110Y0102718D01*
X0107104Y0102745D01*
X0107102Y0102772D01*
M02*
