G75*
%MOIN*%
%OFA0B0*%
%FSLAX25Y25*%
%IPPOS*%
%LPD*%
%AMOC8*
5,1,8,0,0,1.08239X$1,22.5*
%
%ADD10R,0.03150X0.03543*%
%ADD11R,0.03543X0.03150*%
%ADD12R,0.02362X0.01969*%
%ADD13R,0.07087X0.10236*%
%ADD14R,0.01575X0.05315*%
%ADD15R,0.08268X0.07874*%
%ADD16R,0.07087X0.07480*%
%ADD17R,0.07480X0.07480*%
%ADD18C,0.13055*%
%ADD19R,0.04409X0.11339*%
%ADD20R,0.02756X0.03937*%
%ADD21R,0.14567X0.03858*%
%ADD22R,0.01969X0.02362*%
%ADD23R,0.02362X0.02362*%
%ADD24R,0.02756X0.03543*%
%ADD25R,0.01575X0.02362*%
%ADD26R,0.06693X0.03740*%
%ADD27R,0.02362X0.00984*%
%ADD28R,0.00984X0.02362*%
%ADD29R,0.03346X0.02756*%
%ADD30R,0.05709X0.01378*%
%ADD31R,0.07087X0.01378*%
%ADD32C,0.04134*%
%ADD33C,0.15748*%
%ADD34C,0.03937*%
%ADD35C,0.01181*%
%ADD36C,0.00800*%
%ADD37OC8,0.01969*%
%ADD38C,0.01000*%
%ADD39C,0.00500*%
%ADD40C,0.00600*%
D10*
X0082496Y0075016D03*
X0088008Y0075016D03*
X0092732Y0119110D03*
X0098244Y0119110D03*
X0094307Y0174228D03*
X0088795Y0174228D03*
D11*
X0085646Y0106118D03*
X0085646Y0100606D03*
X0098638Y0091945D03*
X0098638Y0086433D03*
D12*
X0089583Y0101689D03*
X0089583Y0105035D03*
X0081315Y0093913D03*
X0081315Y0089976D03*
X0081315Y0086827D03*
X0081315Y0082890D03*
X0108480Y0126984D03*
X0108480Y0130921D03*
X0112024Y0126984D03*
X0112024Y0123047D03*
X0112024Y0118717D03*
X0112024Y0114780D03*
X0111236Y0111728D03*
X0111236Y0108382D03*
X0110843Y0098638D03*
X0113992Y0098638D03*
X0113992Y0094701D03*
X0110843Y0094701D03*
X0117142Y0094701D03*
X0117142Y0098638D03*
D13*
X0101787Y0130528D03*
X0077378Y0130528D03*
D14*
X0098244Y0068421D03*
X0100803Y0068421D03*
X0103362Y0068421D03*
X0105921Y0068421D03*
X0108480Y0068421D03*
D15*
X0115567Y0067142D03*
X0091157Y0067142D03*
D16*
X0087614Y0057890D03*
X0119110Y0057890D03*
D17*
X0108087Y0057890D03*
X0098638Y0057890D03*
D18*
X0117417Y0197850D03*
X0065685Y0197850D03*
D19*
X0077772Y0183756D03*
X0087614Y0183756D03*
X0095488Y0183756D03*
X0105331Y0183756D03*
D20*
X0098047Y0075016D03*
X0092142Y0075016D03*
D21*
X0073835Y0102634D03*
X0073835Y0111965D03*
D22*
X0073441Y0082102D03*
X0073441Y0078165D03*
X0073441Y0074228D03*
X0073441Y0070291D03*
X0073441Y0066354D03*
X0073441Y0062417D03*
X0073441Y0058480D03*
X0069504Y0058480D03*
X0069504Y0062417D03*
X0069504Y0066354D03*
X0069504Y0074228D03*
X0069504Y0078165D03*
X0069504Y0082102D03*
X0077378Y0070291D03*
X0098638Y0097063D03*
X0102575Y0097063D03*
X0104937Y0118717D03*
X0108874Y0118717D03*
X0073047Y0173835D03*
X0073047Y0177772D03*
X0069110Y0177772D03*
X0069110Y0173835D03*
D23*
X0063205Y0074228D03*
X0063205Y0070291D03*
X0063205Y0066354D03*
D24*
X0057693Y0058874D03*
X0057693Y0081709D03*
D25*
X0087024Y0083776D03*
X0089583Y0083776D03*
X0092142Y0083776D03*
X0092142Y0091453D03*
X0089583Y0091453D03*
X0087024Y0091453D03*
D26*
X0089583Y0087614D03*
D27*
X0105921Y0104346D03*
X0105921Y0106315D03*
X0105921Y0108283D03*
X0105921Y0110252D03*
D28*
X0104248Y0112811D03*
X0102280Y0112811D03*
X0102280Y0101787D03*
X0104248Y0101787D03*
D29*
X0099327Y0101787D03*
X0099327Y0112811D03*
D30*
X0098343Y0109268D03*
X0098343Y0105331D03*
D31*
X0099031Y0107299D03*
D32*
X0118323Y0147260D03*
X0088323Y0157260D03*
X0068323Y0147260D03*
D33*
X0062024Y0130921D03*
X0121079Y0172260D03*
X0121079Y0081709D03*
D34*
X0060055Y0020685D03*
X0160449Y0217535D03*
X0058087Y0264780D03*
D35*
X0051000Y0264780D02*
X0051002Y0264954D01*
X0051009Y0265128D01*
X0051019Y0265301D01*
X0051034Y0265475D01*
X0051053Y0265648D01*
X0051077Y0265820D01*
X0051104Y0265992D01*
X0051136Y0266163D01*
X0051172Y0266333D01*
X0051212Y0266502D01*
X0051257Y0266670D01*
X0051305Y0266837D01*
X0051358Y0267003D01*
X0051414Y0267168D01*
X0051475Y0267331D01*
X0051539Y0267492D01*
X0051608Y0267652D01*
X0051680Y0267810D01*
X0051757Y0267966D01*
X0051837Y0268121D01*
X0051921Y0268273D01*
X0052008Y0268423D01*
X0052100Y0268572D01*
X0052194Y0268717D01*
X0052293Y0268861D01*
X0052395Y0269002D01*
X0052500Y0269140D01*
X0052609Y0269276D01*
X0052721Y0269409D01*
X0052836Y0269539D01*
X0052954Y0269667D01*
X0053076Y0269791D01*
X0053200Y0269913D01*
X0053328Y0270031D01*
X0053458Y0270146D01*
X0053591Y0270258D01*
X0053727Y0270367D01*
X0053865Y0270472D01*
X0054006Y0270574D01*
X0054150Y0270673D01*
X0054295Y0270767D01*
X0054444Y0270859D01*
X0054594Y0270946D01*
X0054746Y0271030D01*
X0054901Y0271110D01*
X0055057Y0271187D01*
X0055215Y0271259D01*
X0055375Y0271328D01*
X0055536Y0271392D01*
X0055699Y0271453D01*
X0055864Y0271509D01*
X0056030Y0271562D01*
X0056197Y0271610D01*
X0056365Y0271655D01*
X0056534Y0271695D01*
X0056704Y0271731D01*
X0056875Y0271763D01*
X0057047Y0271790D01*
X0057219Y0271814D01*
X0057392Y0271833D01*
X0057566Y0271848D01*
X0057739Y0271858D01*
X0057913Y0271865D01*
X0058087Y0271867D01*
X0058261Y0271865D01*
X0058435Y0271858D01*
X0058608Y0271848D01*
X0058782Y0271833D01*
X0058955Y0271814D01*
X0059127Y0271790D01*
X0059299Y0271763D01*
X0059470Y0271731D01*
X0059640Y0271695D01*
X0059809Y0271655D01*
X0059977Y0271610D01*
X0060144Y0271562D01*
X0060310Y0271509D01*
X0060475Y0271453D01*
X0060638Y0271392D01*
X0060799Y0271328D01*
X0060959Y0271259D01*
X0061117Y0271187D01*
X0061273Y0271110D01*
X0061428Y0271030D01*
X0061580Y0270946D01*
X0061730Y0270859D01*
X0061879Y0270767D01*
X0062024Y0270673D01*
X0062168Y0270574D01*
X0062309Y0270472D01*
X0062447Y0270367D01*
X0062583Y0270258D01*
X0062716Y0270146D01*
X0062846Y0270031D01*
X0062974Y0269913D01*
X0063098Y0269791D01*
X0063220Y0269667D01*
X0063338Y0269539D01*
X0063453Y0269409D01*
X0063565Y0269276D01*
X0063674Y0269140D01*
X0063779Y0269002D01*
X0063881Y0268861D01*
X0063980Y0268717D01*
X0064074Y0268572D01*
X0064166Y0268423D01*
X0064253Y0268273D01*
X0064337Y0268121D01*
X0064417Y0267966D01*
X0064494Y0267810D01*
X0064566Y0267652D01*
X0064635Y0267492D01*
X0064699Y0267331D01*
X0064760Y0267168D01*
X0064816Y0267003D01*
X0064869Y0266837D01*
X0064917Y0266670D01*
X0064962Y0266502D01*
X0065002Y0266333D01*
X0065038Y0266163D01*
X0065070Y0265992D01*
X0065097Y0265820D01*
X0065121Y0265648D01*
X0065140Y0265475D01*
X0065155Y0265301D01*
X0065165Y0265128D01*
X0065172Y0264954D01*
X0065174Y0264780D01*
X0065172Y0264606D01*
X0065165Y0264432D01*
X0065155Y0264259D01*
X0065140Y0264085D01*
X0065121Y0263912D01*
X0065097Y0263740D01*
X0065070Y0263568D01*
X0065038Y0263397D01*
X0065002Y0263227D01*
X0064962Y0263058D01*
X0064917Y0262890D01*
X0064869Y0262723D01*
X0064816Y0262557D01*
X0064760Y0262392D01*
X0064699Y0262229D01*
X0064635Y0262068D01*
X0064566Y0261908D01*
X0064494Y0261750D01*
X0064417Y0261594D01*
X0064337Y0261439D01*
X0064253Y0261287D01*
X0064166Y0261137D01*
X0064074Y0260988D01*
X0063980Y0260843D01*
X0063881Y0260699D01*
X0063779Y0260558D01*
X0063674Y0260420D01*
X0063565Y0260284D01*
X0063453Y0260151D01*
X0063338Y0260021D01*
X0063220Y0259893D01*
X0063098Y0259769D01*
X0062974Y0259647D01*
X0062846Y0259529D01*
X0062716Y0259414D01*
X0062583Y0259302D01*
X0062447Y0259193D01*
X0062309Y0259088D01*
X0062168Y0258986D01*
X0062024Y0258887D01*
X0061879Y0258793D01*
X0061730Y0258701D01*
X0061580Y0258614D01*
X0061428Y0258530D01*
X0061273Y0258450D01*
X0061117Y0258373D01*
X0060959Y0258301D01*
X0060799Y0258232D01*
X0060638Y0258168D01*
X0060475Y0258107D01*
X0060310Y0258051D01*
X0060144Y0257998D01*
X0059977Y0257950D01*
X0059809Y0257905D01*
X0059640Y0257865D01*
X0059470Y0257829D01*
X0059299Y0257797D01*
X0059127Y0257770D01*
X0058955Y0257746D01*
X0058782Y0257727D01*
X0058608Y0257712D01*
X0058435Y0257702D01*
X0058261Y0257695D01*
X0058087Y0257693D01*
X0057913Y0257695D01*
X0057739Y0257702D01*
X0057566Y0257712D01*
X0057392Y0257727D01*
X0057219Y0257746D01*
X0057047Y0257770D01*
X0056875Y0257797D01*
X0056704Y0257829D01*
X0056534Y0257865D01*
X0056365Y0257905D01*
X0056197Y0257950D01*
X0056030Y0257998D01*
X0055864Y0258051D01*
X0055699Y0258107D01*
X0055536Y0258168D01*
X0055375Y0258232D01*
X0055215Y0258301D01*
X0055057Y0258373D01*
X0054901Y0258450D01*
X0054746Y0258530D01*
X0054594Y0258614D01*
X0054444Y0258701D01*
X0054295Y0258793D01*
X0054150Y0258887D01*
X0054006Y0258986D01*
X0053865Y0259088D01*
X0053727Y0259193D01*
X0053591Y0259302D01*
X0053458Y0259414D01*
X0053328Y0259529D01*
X0053200Y0259647D01*
X0053076Y0259769D01*
X0052954Y0259893D01*
X0052836Y0260021D01*
X0052721Y0260151D01*
X0052609Y0260284D01*
X0052500Y0260420D01*
X0052395Y0260558D01*
X0052293Y0260699D01*
X0052194Y0260843D01*
X0052100Y0260988D01*
X0052008Y0261137D01*
X0051921Y0261287D01*
X0051837Y0261439D01*
X0051757Y0261594D01*
X0051680Y0261750D01*
X0051608Y0261908D01*
X0051539Y0262068D01*
X0051475Y0262229D01*
X0051414Y0262392D01*
X0051358Y0262557D01*
X0051305Y0262723D01*
X0051257Y0262890D01*
X0051212Y0263058D01*
X0051172Y0263227D01*
X0051136Y0263397D01*
X0051104Y0263568D01*
X0051077Y0263740D01*
X0051053Y0263912D01*
X0051034Y0264085D01*
X0051019Y0264259D01*
X0051009Y0264432D01*
X0051002Y0264606D01*
X0051000Y0264780D01*
X0153362Y0217535D02*
X0153364Y0217709D01*
X0153371Y0217883D01*
X0153381Y0218056D01*
X0153396Y0218230D01*
X0153415Y0218403D01*
X0153439Y0218575D01*
X0153466Y0218747D01*
X0153498Y0218918D01*
X0153534Y0219088D01*
X0153574Y0219257D01*
X0153619Y0219425D01*
X0153667Y0219592D01*
X0153720Y0219758D01*
X0153776Y0219923D01*
X0153837Y0220086D01*
X0153901Y0220247D01*
X0153970Y0220407D01*
X0154042Y0220565D01*
X0154119Y0220721D01*
X0154199Y0220876D01*
X0154283Y0221028D01*
X0154370Y0221178D01*
X0154462Y0221327D01*
X0154556Y0221472D01*
X0154655Y0221616D01*
X0154757Y0221757D01*
X0154862Y0221895D01*
X0154971Y0222031D01*
X0155083Y0222164D01*
X0155198Y0222294D01*
X0155316Y0222422D01*
X0155438Y0222546D01*
X0155562Y0222668D01*
X0155690Y0222786D01*
X0155820Y0222901D01*
X0155953Y0223013D01*
X0156089Y0223122D01*
X0156227Y0223227D01*
X0156368Y0223329D01*
X0156512Y0223428D01*
X0156657Y0223522D01*
X0156806Y0223614D01*
X0156956Y0223701D01*
X0157108Y0223785D01*
X0157263Y0223865D01*
X0157419Y0223942D01*
X0157577Y0224014D01*
X0157737Y0224083D01*
X0157898Y0224147D01*
X0158061Y0224208D01*
X0158226Y0224264D01*
X0158392Y0224317D01*
X0158559Y0224365D01*
X0158727Y0224410D01*
X0158896Y0224450D01*
X0159066Y0224486D01*
X0159237Y0224518D01*
X0159409Y0224545D01*
X0159581Y0224569D01*
X0159754Y0224588D01*
X0159928Y0224603D01*
X0160101Y0224613D01*
X0160275Y0224620D01*
X0160449Y0224622D01*
X0160623Y0224620D01*
X0160797Y0224613D01*
X0160970Y0224603D01*
X0161144Y0224588D01*
X0161317Y0224569D01*
X0161489Y0224545D01*
X0161661Y0224518D01*
X0161832Y0224486D01*
X0162002Y0224450D01*
X0162171Y0224410D01*
X0162339Y0224365D01*
X0162506Y0224317D01*
X0162672Y0224264D01*
X0162837Y0224208D01*
X0163000Y0224147D01*
X0163161Y0224083D01*
X0163321Y0224014D01*
X0163479Y0223942D01*
X0163635Y0223865D01*
X0163790Y0223785D01*
X0163942Y0223701D01*
X0164092Y0223614D01*
X0164241Y0223522D01*
X0164386Y0223428D01*
X0164530Y0223329D01*
X0164671Y0223227D01*
X0164809Y0223122D01*
X0164945Y0223013D01*
X0165078Y0222901D01*
X0165208Y0222786D01*
X0165336Y0222668D01*
X0165460Y0222546D01*
X0165582Y0222422D01*
X0165700Y0222294D01*
X0165815Y0222164D01*
X0165927Y0222031D01*
X0166036Y0221895D01*
X0166141Y0221757D01*
X0166243Y0221616D01*
X0166342Y0221472D01*
X0166436Y0221327D01*
X0166528Y0221178D01*
X0166615Y0221028D01*
X0166699Y0220876D01*
X0166779Y0220721D01*
X0166856Y0220565D01*
X0166928Y0220407D01*
X0166997Y0220247D01*
X0167061Y0220086D01*
X0167122Y0219923D01*
X0167178Y0219758D01*
X0167231Y0219592D01*
X0167279Y0219425D01*
X0167324Y0219257D01*
X0167364Y0219088D01*
X0167400Y0218918D01*
X0167432Y0218747D01*
X0167459Y0218575D01*
X0167483Y0218403D01*
X0167502Y0218230D01*
X0167517Y0218056D01*
X0167527Y0217883D01*
X0167534Y0217709D01*
X0167536Y0217535D01*
X0167534Y0217361D01*
X0167527Y0217187D01*
X0167517Y0217014D01*
X0167502Y0216840D01*
X0167483Y0216667D01*
X0167459Y0216495D01*
X0167432Y0216323D01*
X0167400Y0216152D01*
X0167364Y0215982D01*
X0167324Y0215813D01*
X0167279Y0215645D01*
X0167231Y0215478D01*
X0167178Y0215312D01*
X0167122Y0215147D01*
X0167061Y0214984D01*
X0166997Y0214823D01*
X0166928Y0214663D01*
X0166856Y0214505D01*
X0166779Y0214349D01*
X0166699Y0214194D01*
X0166615Y0214042D01*
X0166528Y0213892D01*
X0166436Y0213743D01*
X0166342Y0213598D01*
X0166243Y0213454D01*
X0166141Y0213313D01*
X0166036Y0213175D01*
X0165927Y0213039D01*
X0165815Y0212906D01*
X0165700Y0212776D01*
X0165582Y0212648D01*
X0165460Y0212524D01*
X0165336Y0212402D01*
X0165208Y0212284D01*
X0165078Y0212169D01*
X0164945Y0212057D01*
X0164809Y0211948D01*
X0164671Y0211843D01*
X0164530Y0211741D01*
X0164386Y0211642D01*
X0164241Y0211548D01*
X0164092Y0211456D01*
X0163942Y0211369D01*
X0163790Y0211285D01*
X0163635Y0211205D01*
X0163479Y0211128D01*
X0163321Y0211056D01*
X0163161Y0210987D01*
X0163000Y0210923D01*
X0162837Y0210862D01*
X0162672Y0210806D01*
X0162506Y0210753D01*
X0162339Y0210705D01*
X0162171Y0210660D01*
X0162002Y0210620D01*
X0161832Y0210584D01*
X0161661Y0210552D01*
X0161489Y0210525D01*
X0161317Y0210501D01*
X0161144Y0210482D01*
X0160970Y0210467D01*
X0160797Y0210457D01*
X0160623Y0210450D01*
X0160449Y0210448D01*
X0160275Y0210450D01*
X0160101Y0210457D01*
X0159928Y0210467D01*
X0159754Y0210482D01*
X0159581Y0210501D01*
X0159409Y0210525D01*
X0159237Y0210552D01*
X0159066Y0210584D01*
X0158896Y0210620D01*
X0158727Y0210660D01*
X0158559Y0210705D01*
X0158392Y0210753D01*
X0158226Y0210806D01*
X0158061Y0210862D01*
X0157898Y0210923D01*
X0157737Y0210987D01*
X0157577Y0211056D01*
X0157419Y0211128D01*
X0157263Y0211205D01*
X0157108Y0211285D01*
X0156956Y0211369D01*
X0156806Y0211456D01*
X0156657Y0211548D01*
X0156512Y0211642D01*
X0156368Y0211741D01*
X0156227Y0211843D01*
X0156089Y0211948D01*
X0155953Y0212057D01*
X0155820Y0212169D01*
X0155690Y0212284D01*
X0155562Y0212402D01*
X0155438Y0212524D01*
X0155316Y0212648D01*
X0155198Y0212776D01*
X0155083Y0212906D01*
X0154971Y0213039D01*
X0154862Y0213175D01*
X0154757Y0213313D01*
X0154655Y0213454D01*
X0154556Y0213598D01*
X0154462Y0213743D01*
X0154370Y0213892D01*
X0154283Y0214042D01*
X0154199Y0214194D01*
X0154119Y0214349D01*
X0154042Y0214505D01*
X0153970Y0214663D01*
X0153901Y0214823D01*
X0153837Y0214984D01*
X0153776Y0215147D01*
X0153720Y0215312D01*
X0153667Y0215478D01*
X0153619Y0215645D01*
X0153574Y0215813D01*
X0153534Y0215982D01*
X0153498Y0216152D01*
X0153466Y0216323D01*
X0153439Y0216495D01*
X0153415Y0216667D01*
X0153396Y0216840D01*
X0153381Y0217014D01*
X0153371Y0217187D01*
X0153364Y0217361D01*
X0153362Y0217535D01*
X0052968Y0020685D02*
X0052970Y0020859D01*
X0052977Y0021033D01*
X0052987Y0021206D01*
X0053002Y0021380D01*
X0053021Y0021553D01*
X0053045Y0021725D01*
X0053072Y0021897D01*
X0053104Y0022068D01*
X0053140Y0022238D01*
X0053180Y0022407D01*
X0053225Y0022575D01*
X0053273Y0022742D01*
X0053326Y0022908D01*
X0053382Y0023073D01*
X0053443Y0023236D01*
X0053507Y0023397D01*
X0053576Y0023557D01*
X0053648Y0023715D01*
X0053725Y0023871D01*
X0053805Y0024026D01*
X0053889Y0024178D01*
X0053976Y0024328D01*
X0054068Y0024477D01*
X0054162Y0024622D01*
X0054261Y0024766D01*
X0054363Y0024907D01*
X0054468Y0025045D01*
X0054577Y0025181D01*
X0054689Y0025314D01*
X0054804Y0025444D01*
X0054922Y0025572D01*
X0055044Y0025696D01*
X0055168Y0025818D01*
X0055296Y0025936D01*
X0055426Y0026051D01*
X0055559Y0026163D01*
X0055695Y0026272D01*
X0055833Y0026377D01*
X0055974Y0026479D01*
X0056118Y0026578D01*
X0056263Y0026672D01*
X0056412Y0026764D01*
X0056562Y0026851D01*
X0056714Y0026935D01*
X0056869Y0027015D01*
X0057025Y0027092D01*
X0057183Y0027164D01*
X0057343Y0027233D01*
X0057504Y0027297D01*
X0057667Y0027358D01*
X0057832Y0027414D01*
X0057998Y0027467D01*
X0058165Y0027515D01*
X0058333Y0027560D01*
X0058502Y0027600D01*
X0058672Y0027636D01*
X0058843Y0027668D01*
X0059015Y0027695D01*
X0059187Y0027719D01*
X0059360Y0027738D01*
X0059534Y0027753D01*
X0059707Y0027763D01*
X0059881Y0027770D01*
X0060055Y0027772D01*
X0060229Y0027770D01*
X0060403Y0027763D01*
X0060576Y0027753D01*
X0060750Y0027738D01*
X0060923Y0027719D01*
X0061095Y0027695D01*
X0061267Y0027668D01*
X0061438Y0027636D01*
X0061608Y0027600D01*
X0061777Y0027560D01*
X0061945Y0027515D01*
X0062112Y0027467D01*
X0062278Y0027414D01*
X0062443Y0027358D01*
X0062606Y0027297D01*
X0062767Y0027233D01*
X0062927Y0027164D01*
X0063085Y0027092D01*
X0063241Y0027015D01*
X0063396Y0026935D01*
X0063548Y0026851D01*
X0063698Y0026764D01*
X0063847Y0026672D01*
X0063992Y0026578D01*
X0064136Y0026479D01*
X0064277Y0026377D01*
X0064415Y0026272D01*
X0064551Y0026163D01*
X0064684Y0026051D01*
X0064814Y0025936D01*
X0064942Y0025818D01*
X0065066Y0025696D01*
X0065188Y0025572D01*
X0065306Y0025444D01*
X0065421Y0025314D01*
X0065533Y0025181D01*
X0065642Y0025045D01*
X0065747Y0024907D01*
X0065849Y0024766D01*
X0065948Y0024622D01*
X0066042Y0024477D01*
X0066134Y0024328D01*
X0066221Y0024178D01*
X0066305Y0024026D01*
X0066385Y0023871D01*
X0066462Y0023715D01*
X0066534Y0023557D01*
X0066603Y0023397D01*
X0066667Y0023236D01*
X0066728Y0023073D01*
X0066784Y0022908D01*
X0066837Y0022742D01*
X0066885Y0022575D01*
X0066930Y0022407D01*
X0066970Y0022238D01*
X0067006Y0022068D01*
X0067038Y0021897D01*
X0067065Y0021725D01*
X0067089Y0021553D01*
X0067108Y0021380D01*
X0067123Y0021206D01*
X0067133Y0021033D01*
X0067140Y0020859D01*
X0067142Y0020685D01*
X0067140Y0020511D01*
X0067133Y0020337D01*
X0067123Y0020164D01*
X0067108Y0019990D01*
X0067089Y0019817D01*
X0067065Y0019645D01*
X0067038Y0019473D01*
X0067006Y0019302D01*
X0066970Y0019132D01*
X0066930Y0018963D01*
X0066885Y0018795D01*
X0066837Y0018628D01*
X0066784Y0018462D01*
X0066728Y0018297D01*
X0066667Y0018134D01*
X0066603Y0017973D01*
X0066534Y0017813D01*
X0066462Y0017655D01*
X0066385Y0017499D01*
X0066305Y0017344D01*
X0066221Y0017192D01*
X0066134Y0017042D01*
X0066042Y0016893D01*
X0065948Y0016748D01*
X0065849Y0016604D01*
X0065747Y0016463D01*
X0065642Y0016325D01*
X0065533Y0016189D01*
X0065421Y0016056D01*
X0065306Y0015926D01*
X0065188Y0015798D01*
X0065066Y0015674D01*
X0064942Y0015552D01*
X0064814Y0015434D01*
X0064684Y0015319D01*
X0064551Y0015207D01*
X0064415Y0015098D01*
X0064277Y0014993D01*
X0064136Y0014891D01*
X0063992Y0014792D01*
X0063847Y0014698D01*
X0063698Y0014606D01*
X0063548Y0014519D01*
X0063396Y0014435D01*
X0063241Y0014355D01*
X0063085Y0014278D01*
X0062927Y0014206D01*
X0062767Y0014137D01*
X0062606Y0014073D01*
X0062443Y0014012D01*
X0062278Y0013956D01*
X0062112Y0013903D01*
X0061945Y0013855D01*
X0061777Y0013810D01*
X0061608Y0013770D01*
X0061438Y0013734D01*
X0061267Y0013702D01*
X0061095Y0013675D01*
X0060923Y0013651D01*
X0060750Y0013632D01*
X0060576Y0013617D01*
X0060403Y0013607D01*
X0060229Y0013600D01*
X0060055Y0013598D01*
X0059881Y0013600D01*
X0059707Y0013607D01*
X0059534Y0013617D01*
X0059360Y0013632D01*
X0059187Y0013651D01*
X0059015Y0013675D01*
X0058843Y0013702D01*
X0058672Y0013734D01*
X0058502Y0013770D01*
X0058333Y0013810D01*
X0058165Y0013855D01*
X0057998Y0013903D01*
X0057832Y0013956D01*
X0057667Y0014012D01*
X0057504Y0014073D01*
X0057343Y0014137D01*
X0057183Y0014206D01*
X0057025Y0014278D01*
X0056869Y0014355D01*
X0056714Y0014435D01*
X0056562Y0014519D01*
X0056412Y0014606D01*
X0056263Y0014698D01*
X0056118Y0014792D01*
X0055974Y0014891D01*
X0055833Y0014993D01*
X0055695Y0015098D01*
X0055559Y0015207D01*
X0055426Y0015319D01*
X0055296Y0015434D01*
X0055168Y0015552D01*
X0055044Y0015674D01*
X0054922Y0015798D01*
X0054804Y0015926D01*
X0054689Y0016056D01*
X0054577Y0016189D01*
X0054468Y0016325D01*
X0054363Y0016463D01*
X0054261Y0016604D01*
X0054162Y0016748D01*
X0054068Y0016893D01*
X0053976Y0017042D01*
X0053889Y0017192D01*
X0053805Y0017344D01*
X0053725Y0017499D01*
X0053648Y0017655D01*
X0053576Y0017813D01*
X0053507Y0017973D01*
X0053443Y0018134D01*
X0053382Y0018297D01*
X0053326Y0018462D01*
X0053273Y0018628D01*
X0053225Y0018795D01*
X0053180Y0018963D01*
X0053140Y0019132D01*
X0053104Y0019302D01*
X0053072Y0019473D01*
X0053045Y0019645D01*
X0053021Y0019817D01*
X0053002Y0019990D01*
X0052987Y0020164D01*
X0052977Y0020337D01*
X0052970Y0020511D01*
X0052968Y0020685D01*
D36*
X0081428Y0053581D02*
X0081428Y0064407D01*
X0086024Y0069003D01*
X0086024Y0067542D01*
X0090757Y0067542D01*
X0090757Y0066742D01*
X0086024Y0066742D01*
X0086024Y0063006D01*
X0086176Y0062638D01*
X0086184Y0062630D01*
X0083872Y0062630D01*
X0083504Y0062478D01*
X0083223Y0062196D01*
X0083071Y0061829D01*
X0083071Y0058290D01*
X0087214Y0058290D01*
X0087214Y0057490D01*
X0083071Y0057490D01*
X0083071Y0053951D01*
X0083223Y0053583D01*
X0083225Y0053581D01*
X0081428Y0053581D01*
X0081428Y0053702D02*
X0083174Y0053702D01*
X0083071Y0054500D02*
X0081428Y0054500D01*
X0081428Y0055299D02*
X0083071Y0055299D01*
X0083071Y0056097D02*
X0081428Y0056097D01*
X0081428Y0056896D02*
X0083071Y0056896D01*
X0083071Y0058493D02*
X0081428Y0058493D01*
X0081428Y0059291D02*
X0083071Y0059291D01*
X0083071Y0060090D02*
X0081428Y0060090D01*
X0081428Y0060888D02*
X0083071Y0060888D01*
X0083071Y0061687D02*
X0081428Y0061687D01*
X0081428Y0062485D02*
X0083523Y0062485D01*
X0081428Y0063284D02*
X0086024Y0063284D01*
X0086024Y0064082D02*
X0081428Y0064082D01*
X0081902Y0064881D02*
X0086024Y0064881D01*
X0086024Y0065679D02*
X0082700Y0065679D01*
X0083499Y0066478D02*
X0086024Y0066478D01*
X0086024Y0068075D02*
X0085096Y0068075D01*
X0085894Y0068873D02*
X0086024Y0068873D01*
X0084297Y0067276D02*
X0090757Y0067276D01*
X0091558Y0067276D02*
X0096454Y0067276D01*
X0096291Y0067542D02*
X0096291Y0070685D01*
X0096350Y0070685D01*
X0096454Y0070582D01*
X0096454Y0065464D01*
X0097156Y0064761D01*
X0099529Y0064761D01*
X0099637Y0064869D01*
X0099643Y0064864D01*
X0101963Y0064864D01*
X0102083Y0064983D01*
X0102202Y0064864D01*
X0104522Y0064864D01*
X0104642Y0064983D01*
X0104761Y0064864D01*
X0107081Y0064864D01*
X0107122Y0064905D01*
X0107217Y0064811D01*
X0109744Y0064811D01*
X0110418Y0065484D01*
X0110418Y0070624D01*
X0110433Y0070609D01*
X0110433Y0067542D01*
X0115167Y0067542D01*
X0115167Y0066742D01*
X0110433Y0066742D01*
X0110433Y0063006D01*
X0110585Y0062638D01*
X0110594Y0062630D01*
X0108487Y0062630D01*
X0108487Y0058290D01*
X0112827Y0058290D01*
X0112827Y0061829D01*
X0112675Y0062196D01*
X0112666Y0062205D01*
X0114728Y0062205D01*
X0114719Y0062196D01*
X0114567Y0061829D01*
X0114567Y0058290D01*
X0118710Y0058290D01*
X0118710Y0057490D01*
X0114567Y0057490D01*
X0114567Y0053951D01*
X0114719Y0053583D01*
X0114721Y0053581D01*
X0112672Y0053581D01*
X0112675Y0053583D01*
X0112827Y0053951D01*
X0112827Y0057490D01*
X0108487Y0057490D01*
X0108487Y0058290D01*
X0107687Y0058290D01*
X0107687Y0062630D01*
X0104148Y0062630D01*
X0103780Y0062478D01*
X0103499Y0062196D01*
X0103362Y0061867D01*
X0103226Y0062196D01*
X0102944Y0062478D01*
X0102577Y0062630D01*
X0099038Y0062630D01*
X0099038Y0058290D01*
X0098238Y0058290D01*
X0098238Y0062630D01*
X0096131Y0062630D01*
X0096139Y0062638D01*
X0096291Y0063006D01*
X0096291Y0066742D01*
X0091558Y0066742D01*
X0091558Y0067542D01*
X0096291Y0067542D01*
X0096291Y0068075D02*
X0096454Y0068075D01*
X0096454Y0068873D02*
X0096291Y0068873D01*
X0096291Y0069672D02*
X0096454Y0069672D01*
X0096454Y0070470D02*
X0096291Y0070470D01*
X0096291Y0066478D02*
X0096454Y0066478D01*
X0096454Y0065679D02*
X0096291Y0065679D01*
X0096291Y0064881D02*
X0097036Y0064881D01*
X0096291Y0064082D02*
X0110433Y0064082D01*
X0110433Y0063284D02*
X0096291Y0063284D01*
X0098238Y0062485D02*
X0099038Y0062485D01*
X0099038Y0061687D02*
X0098238Y0061687D01*
X0098238Y0060888D02*
X0099038Y0060888D01*
X0099038Y0060090D02*
X0098238Y0060090D01*
X0098238Y0059291D02*
X0099038Y0059291D01*
X0099038Y0058493D02*
X0098238Y0058493D01*
X0098238Y0058290D02*
X0098238Y0057490D01*
X0093898Y0057490D01*
X0093898Y0053951D01*
X0094050Y0053583D01*
X0094052Y0053581D01*
X0092003Y0053581D01*
X0092005Y0053583D01*
X0092157Y0053951D01*
X0092157Y0057490D01*
X0088014Y0057490D01*
X0088014Y0058290D01*
X0092157Y0058290D01*
X0092157Y0061829D01*
X0092005Y0062196D01*
X0091997Y0062205D01*
X0094058Y0062205D01*
X0094050Y0062196D01*
X0093898Y0061829D01*
X0093898Y0058290D01*
X0098238Y0058290D01*
X0098238Y0057694D02*
X0088014Y0057694D01*
X0087214Y0057694D02*
X0081428Y0057694D01*
X0092157Y0056896D02*
X0093898Y0056896D01*
X0093898Y0056097D02*
X0092157Y0056097D01*
X0092157Y0055299D02*
X0093898Y0055299D01*
X0093898Y0054500D02*
X0092157Y0054500D01*
X0092054Y0053702D02*
X0094001Y0053702D01*
X0093898Y0058493D02*
X0092157Y0058493D01*
X0092157Y0059291D02*
X0093898Y0059291D01*
X0093898Y0060090D02*
X0092157Y0060090D01*
X0092157Y0060888D02*
X0093898Y0060888D01*
X0093898Y0061687D02*
X0092157Y0061687D01*
X0099038Y0058290D02*
X0107687Y0058290D01*
X0107687Y0057490D01*
X0103346Y0057490D01*
X0099038Y0057490D01*
X0099038Y0058290D01*
X0099038Y0057694D02*
X0107687Y0057694D01*
X0107687Y0058493D02*
X0108487Y0058493D01*
X0108487Y0059291D02*
X0107687Y0059291D01*
X0107687Y0060090D02*
X0108487Y0060090D01*
X0108487Y0060888D02*
X0107687Y0060888D01*
X0107687Y0061687D02*
X0108487Y0061687D01*
X0108487Y0062485D02*
X0107687Y0062485D01*
X0107146Y0064881D02*
X0107099Y0064881D01*
X0109814Y0064881D02*
X0110433Y0064881D01*
X0110418Y0065679D02*
X0110433Y0065679D01*
X0110418Y0066478D02*
X0110433Y0066478D01*
X0110418Y0067276D02*
X0115167Y0067276D01*
X0115967Y0067276D02*
X0129521Y0067276D01*
X0129521Y0066541D02*
X0127553Y0064572D01*
X0127553Y0053581D01*
X0123499Y0053581D01*
X0123501Y0053583D01*
X0123654Y0053951D01*
X0123654Y0057490D01*
X0119510Y0057490D01*
X0119510Y0058290D01*
X0123654Y0058290D01*
X0123654Y0061829D01*
X0123501Y0062196D01*
X0123220Y0062478D01*
X0122852Y0062630D01*
X0120540Y0062630D01*
X0120549Y0062638D01*
X0120701Y0063006D01*
X0120701Y0066742D01*
X0115967Y0066742D01*
X0115967Y0067542D01*
X0120701Y0067542D01*
X0120701Y0070572D01*
X0129521Y0070572D01*
X0129521Y0066541D01*
X0129459Y0066478D02*
X0120701Y0066478D01*
X0120701Y0065679D02*
X0128660Y0065679D01*
X0127862Y0064881D02*
X0120701Y0064881D01*
X0120701Y0064082D02*
X0127553Y0064082D01*
X0127553Y0063284D02*
X0120701Y0063284D01*
X0120701Y0068075D02*
X0129521Y0068075D01*
X0129521Y0068873D02*
X0120701Y0068873D01*
X0120701Y0069672D02*
X0129521Y0069672D01*
X0129521Y0070470D02*
X0120701Y0070470D01*
X0123201Y0062485D02*
X0127553Y0062485D01*
X0127553Y0061687D02*
X0123654Y0061687D01*
X0123654Y0060888D02*
X0127553Y0060888D01*
X0127553Y0060090D02*
X0123654Y0060090D01*
X0123654Y0059291D02*
X0127553Y0059291D01*
X0127553Y0058493D02*
X0123654Y0058493D01*
X0123654Y0056896D02*
X0127553Y0056896D01*
X0127553Y0057694D02*
X0119510Y0057694D01*
X0118710Y0057694D02*
X0108487Y0057694D01*
X0103799Y0062485D02*
X0102926Y0062485D01*
X0102185Y0064881D02*
X0101980Y0064881D01*
X0104540Y0064881D02*
X0104744Y0064881D01*
X0110418Y0068075D02*
X0110433Y0068075D01*
X0110418Y0068873D02*
X0110433Y0068873D01*
X0110418Y0069672D02*
X0110433Y0069672D01*
X0110418Y0070470D02*
X0110433Y0070470D01*
X0112827Y0061687D02*
X0114567Y0061687D01*
X0114567Y0060888D02*
X0112827Y0060888D01*
X0112827Y0060090D02*
X0114567Y0060090D01*
X0114567Y0059291D02*
X0112827Y0059291D01*
X0112827Y0058493D02*
X0114567Y0058493D01*
X0114567Y0056896D02*
X0112827Y0056896D01*
X0112827Y0056097D02*
X0114567Y0056097D01*
X0114567Y0055299D02*
X0112827Y0055299D01*
X0112827Y0054500D02*
X0114567Y0054500D01*
X0114670Y0053702D02*
X0112724Y0053702D01*
X0123550Y0053702D02*
X0127553Y0053702D01*
X0127553Y0054500D02*
X0123654Y0054500D01*
X0123654Y0055299D02*
X0127553Y0055299D01*
X0127553Y0056097D02*
X0123654Y0056097D01*
D37*
X0124425Y0057890D03*
X0121472Y0067142D03*
X0113598Y0057890D03*
X0107890Y0063598D03*
X0108480Y0073047D03*
X0105724Y0073047D03*
X0105724Y0075803D03*
X0108480Y0075803D03*
X0111236Y0076984D03*
X0111236Y0074228D03*
X0099819Y0082890D03*
X0097063Y0082890D03*
X0091551Y0087614D03*
X0087614Y0087614D03*
X0080134Y0099031D03*
X0077378Y0099031D03*
X0074622Y0099031D03*
X0076197Y0094307D03*
X0071866Y0099031D03*
X0071866Y0115567D03*
X0074622Y0115567D03*
X0077378Y0115567D03*
X0080134Y0115567D03*
X0082890Y0126197D03*
X0082890Y0128953D03*
X0082890Y0131709D03*
X0082890Y0134465D03*
X0089189Y0121866D03*
X0089189Y0119110D03*
X0093913Y0113598D03*
X0092339Y0111630D03*
X0093913Y0109661D03*
X0095488Y0111630D03*
X0093913Y0104937D03*
X0092339Y0102969D03*
X0093913Y0101000D03*
X0095488Y0102969D03*
X0102969Y0104937D03*
X0102969Y0107299D03*
X0102969Y0109661D03*
X0108087Y0112417D03*
X0108874Y0115567D03*
X0104937Y0121866D03*
X0112024Y0130528D03*
X0108874Y0135252D03*
X0126197Y0109268D03*
X0114386Y0101787D03*
X0112811Y0103756D03*
X0111433Y0101591D03*
X0110055Y0103756D03*
X0105528Y0098638D03*
X0105528Y0095882D03*
X0110055Y0091945D03*
X0112811Y0091945D03*
X0115567Y0091945D03*
X0118323Y0091945D03*
X0098638Y0063598D03*
X0093126Y0057890D03*
X0085252Y0067142D03*
X0082496Y0071472D03*
X0078953Y0075016D03*
X0082299Y0057890D03*
X0077772Y0054543D03*
X0066748Y0058480D03*
X0063205Y0058874D03*
X0057693Y0055331D03*
X0057693Y0062417D03*
X0057693Y0077772D03*
X0063205Y0082102D03*
X0066748Y0082102D03*
X0057693Y0085646D03*
X0069504Y0120685D03*
X0069504Y0184858D03*
X0056906Y0184858D03*
D38*
X0053681Y0066582D02*
X0054818Y0065445D01*
X0054818Y0076735D01*
X0055580Y0077497D01*
X0062562Y0077497D01*
X0063324Y0076735D01*
X0063324Y0076709D01*
X0064924Y0076709D01*
X0065686Y0075948D01*
X0065686Y0075778D01*
X0067220Y0075778D01*
X0067220Y0075948D01*
X0067469Y0076197D01*
X0067220Y0076446D01*
X0067220Y0079885D01*
X0067981Y0080646D01*
X0071027Y0080646D01*
X0071157Y0080516D01*
X0071157Y0083822D01*
X0071918Y0084583D01*
X0074964Y0084583D01*
X0075725Y0083822D01*
X0075725Y0080383D01*
X0075476Y0080134D01*
X0075725Y0079885D01*
X0075725Y0077130D01*
X0075949Y0077353D01*
X0077403Y0078807D01*
X0077403Y0095463D01*
X0063329Y0095463D01*
X0062392Y0096400D01*
X0062392Y0118592D01*
X0063329Y0119529D01*
X0070660Y0119529D01*
X0070660Y0144835D01*
X0070230Y0144405D01*
X0068993Y0143893D01*
X0067653Y0143893D01*
X0066416Y0144405D01*
X0065468Y0145353D01*
X0064956Y0146590D01*
X0064956Y0147930D01*
X0065468Y0149167D01*
X0066416Y0150114D01*
X0067653Y0150627D01*
X0068993Y0150627D01*
X0070230Y0150114D01*
X0070660Y0149684D01*
X0070660Y0186976D01*
X0053681Y0186976D01*
X0053681Y0066582D01*
X0053681Y0066902D02*
X0054818Y0066902D01*
X0054818Y0067900D02*
X0053681Y0067900D01*
X0053681Y0068899D02*
X0054818Y0068899D01*
X0054818Y0069897D02*
X0053681Y0069897D01*
X0053681Y0070896D02*
X0054818Y0070896D01*
X0054818Y0071894D02*
X0053681Y0071894D01*
X0053681Y0072893D02*
X0054818Y0072893D01*
X0054818Y0073891D02*
X0053681Y0073891D01*
X0053681Y0074890D02*
X0054818Y0074890D01*
X0054818Y0075888D02*
X0053681Y0075888D01*
X0053681Y0076887D02*
X0054970Y0076887D01*
X0053681Y0077885D02*
X0067220Y0077885D01*
X0067220Y0076887D02*
X0063172Y0076887D01*
X0065686Y0075888D02*
X0067220Y0075888D01*
X0067220Y0078884D02*
X0053681Y0078884D01*
X0053681Y0079882D02*
X0067220Y0079882D01*
X0071157Y0080881D02*
X0053681Y0080881D01*
X0053681Y0081879D02*
X0071157Y0081879D01*
X0071157Y0082878D02*
X0053681Y0082878D01*
X0053681Y0083876D02*
X0071211Y0083876D01*
X0075671Y0083876D02*
X0077403Y0083876D01*
X0077403Y0082878D02*
X0075725Y0082878D01*
X0075725Y0081879D02*
X0077403Y0081879D01*
X0077403Y0080881D02*
X0075725Y0080881D01*
X0075725Y0079882D02*
X0077403Y0079882D01*
X0077403Y0078884D02*
X0075725Y0078884D01*
X0075725Y0077885D02*
X0076481Y0077885D01*
X0078868Y0075888D02*
X0084833Y0075888D01*
X0084833Y0075928D02*
X0084833Y0072384D01*
X0085210Y0072008D01*
X0078728Y0065525D01*
X0078728Y0053681D01*
X0056450Y0053681D01*
X0056450Y0061008D01*
X0055650Y0061808D01*
X0055650Y0063086D01*
X0062562Y0063086D01*
X0063324Y0063847D01*
X0063324Y0063873D01*
X0064924Y0063873D01*
X0065686Y0064635D01*
X0065686Y0064804D01*
X0067220Y0064804D01*
X0067220Y0064635D01*
X0067469Y0064386D01*
X0067220Y0064137D01*
X0067220Y0060698D01*
X0067981Y0059936D01*
X0071027Y0059936D01*
X0071157Y0060066D01*
X0071157Y0056761D01*
X0071918Y0055999D01*
X0074964Y0055999D01*
X0075725Y0056761D01*
X0075725Y0060200D01*
X0075476Y0060449D01*
X0075725Y0060698D01*
X0075725Y0064137D01*
X0075476Y0064386D01*
X0075725Y0064635D01*
X0075725Y0067940D01*
X0075855Y0067810D01*
X0078901Y0067810D01*
X0079662Y0068572D01*
X0079662Y0072011D01*
X0078901Y0072772D01*
X0078141Y0072772D01*
X0078141Y0075161D01*
X0079311Y0076332D01*
X0079471Y0076172D01*
X0084589Y0076172D01*
X0084833Y0075928D01*
X0084833Y0074890D02*
X0078141Y0074890D01*
X0078141Y0073891D02*
X0084833Y0073891D01*
X0084833Y0072893D02*
X0078141Y0072893D01*
X0079662Y0071894D02*
X0085097Y0071894D01*
X0084098Y0070896D02*
X0079662Y0070896D01*
X0079662Y0069897D02*
X0083100Y0069897D01*
X0082101Y0068899D02*
X0079662Y0068899D01*
X0078991Y0067900D02*
X0081103Y0067900D01*
X0080104Y0066902D02*
X0075725Y0066902D01*
X0075725Y0067900D02*
X0075765Y0067900D01*
X0075725Y0065903D02*
X0079106Y0065903D01*
X0078728Y0064905D02*
X0075725Y0064905D01*
X0075725Y0063906D02*
X0078728Y0063906D01*
X0078728Y0062908D02*
X0075725Y0062908D01*
X0075725Y0061909D02*
X0078728Y0061909D01*
X0078728Y0060911D02*
X0075725Y0060911D01*
X0075725Y0059912D02*
X0078728Y0059912D01*
X0078728Y0058914D02*
X0075725Y0058914D01*
X0075725Y0057915D02*
X0078728Y0057915D01*
X0078728Y0056917D02*
X0075725Y0056917D01*
X0078728Y0055918D02*
X0056450Y0055918D01*
X0056450Y0054920D02*
X0078728Y0054920D01*
X0078728Y0053921D02*
X0056450Y0053921D01*
X0056450Y0056917D02*
X0071157Y0056917D01*
X0071157Y0057915D02*
X0056450Y0057915D01*
X0056450Y0058914D02*
X0071157Y0058914D01*
X0071157Y0059912D02*
X0056450Y0059912D01*
X0056450Y0060911D02*
X0067220Y0060911D01*
X0067220Y0061909D02*
X0055650Y0061909D01*
X0055650Y0062908D02*
X0067220Y0062908D01*
X0067220Y0063906D02*
X0064957Y0063906D01*
X0054818Y0065903D02*
X0054360Y0065903D01*
X0053681Y0084875D02*
X0077403Y0084875D01*
X0077403Y0085873D02*
X0053681Y0085873D01*
X0053681Y0086872D02*
X0077403Y0086872D01*
X0077403Y0087870D02*
X0053681Y0087870D01*
X0053681Y0088869D02*
X0077403Y0088869D01*
X0077403Y0089868D02*
X0053681Y0089868D01*
X0053681Y0090866D02*
X0077403Y0090866D01*
X0077403Y0091865D02*
X0053681Y0091865D01*
X0053681Y0092863D02*
X0077403Y0092863D01*
X0077403Y0093862D02*
X0053681Y0093862D01*
X0053681Y0094860D02*
X0077403Y0094860D01*
X0083350Y0091945D02*
X0083769Y0092363D01*
X0083921Y0092363D01*
X0084936Y0091348D01*
X0084936Y0089733D01*
X0085698Y0088972D01*
X0090758Y0088972D01*
X0090909Y0088820D01*
X0100855Y0088820D01*
X0101642Y0089607D01*
X0102379Y0090345D01*
X0105600Y0090345D01*
X0106537Y0091282D01*
X0108749Y0093494D01*
X0109687Y0094432D01*
X0109687Y0096300D01*
X0118965Y0096300D01*
X0119873Y0097208D01*
X0119873Y0100461D01*
X0118965Y0101369D01*
X0114609Y0105724D01*
X0115028Y0106143D01*
X0115936Y0107051D01*
X0115936Y0121327D01*
X0114505Y0122758D01*
X0114505Y0124570D01*
X0114059Y0125016D01*
X0114505Y0125462D01*
X0114505Y0128507D01*
X0113743Y0129268D01*
X0110831Y0129268D01*
X0110961Y0129399D01*
X0110961Y0131210D01*
X0119873Y0140122D01*
X0119873Y0144258D01*
X0120230Y0144405D01*
X0121177Y0145353D01*
X0121690Y0146590D01*
X0121690Y0147930D01*
X0121177Y0149167D01*
X0120230Y0150114D01*
X0118993Y0150627D01*
X0117653Y0150627D01*
X0116416Y0150114D01*
X0115468Y0149167D01*
X0114956Y0147930D01*
X0114956Y0146590D01*
X0115468Y0145353D01*
X0116416Y0144405D01*
X0116773Y0144258D01*
X0116773Y0141406D01*
X0108573Y0133205D01*
X0107718Y0133205D01*
X0107718Y0135770D01*
X0110718Y0138770D01*
X0111655Y0139707D01*
X0111655Y0186976D01*
X0129421Y0186976D01*
X0129421Y0073272D01*
X0110097Y0073272D01*
X0109210Y0072385D01*
X0101419Y0072385D01*
X0101419Y0077647D01*
X0100482Y0078584D01*
X0095219Y0078584D01*
X0095120Y0078485D01*
X0095120Y0085521D01*
X0094182Y0086458D01*
X0090888Y0086458D01*
X0089951Y0085521D01*
X0089951Y0083309D01*
X0089214Y0083309D01*
X0089214Y0085521D01*
X0088277Y0086458D01*
X0083796Y0086458D01*
X0083796Y0088349D01*
X0083744Y0088402D01*
X0083796Y0088454D01*
X0083796Y0091499D01*
X0083350Y0091945D01*
X0083431Y0091865D02*
X0084420Y0091865D01*
X0084936Y0090866D02*
X0083796Y0090866D01*
X0083796Y0089868D02*
X0084936Y0089868D01*
X0083796Y0088869D02*
X0090860Y0088869D01*
X0090304Y0085873D02*
X0088862Y0085873D01*
X0089214Y0084875D02*
X0089951Y0084875D01*
X0089951Y0083876D02*
X0089214Y0083876D01*
X0094767Y0085873D02*
X0129421Y0085873D01*
X0129421Y0084875D02*
X0095120Y0084875D01*
X0095120Y0083876D02*
X0129421Y0083876D01*
X0129421Y0082878D02*
X0095120Y0082878D01*
X0095120Y0081879D02*
X0129421Y0081879D01*
X0129421Y0080881D02*
X0095120Y0080881D01*
X0095120Y0079882D02*
X0129421Y0079882D01*
X0129421Y0078884D02*
X0095120Y0078884D01*
X0101180Y0077885D02*
X0129421Y0077885D01*
X0129421Y0076887D02*
X0101419Y0076887D01*
X0101419Y0075888D02*
X0129421Y0075888D01*
X0129421Y0074890D02*
X0101419Y0074890D01*
X0101419Y0073891D02*
X0129421Y0073891D01*
X0129421Y0086872D02*
X0083796Y0086872D01*
X0083796Y0087870D02*
X0129421Y0087870D01*
X0129421Y0088869D02*
X0100904Y0088869D01*
X0101902Y0089868D02*
X0129421Y0089868D01*
X0129421Y0090866D02*
X0106121Y0090866D01*
X0107119Y0091865D02*
X0129421Y0091865D01*
X0129421Y0092863D02*
X0108118Y0092863D01*
X0109116Y0093862D02*
X0129421Y0093862D01*
X0129421Y0094860D02*
X0109687Y0094860D01*
X0109687Y0095859D02*
X0129421Y0095859D01*
X0129421Y0096857D02*
X0119522Y0096857D01*
X0119873Y0097856D02*
X0129421Y0097856D01*
X0129421Y0098854D02*
X0119873Y0098854D01*
X0119873Y0099853D02*
X0129421Y0099853D01*
X0129421Y0100851D02*
X0119483Y0100851D01*
X0118484Y0101850D02*
X0129421Y0101850D01*
X0129421Y0102848D02*
X0117486Y0102848D01*
X0116487Y0103847D02*
X0129421Y0103847D01*
X0129421Y0104845D02*
X0115489Y0104845D01*
X0114729Y0105844D02*
X0129421Y0105844D01*
X0129421Y0106842D02*
X0115727Y0106842D01*
X0115936Y0107841D02*
X0129421Y0107841D01*
X0129421Y0108839D02*
X0115936Y0108839D01*
X0115936Y0109838D02*
X0129421Y0109838D01*
X0129421Y0110836D02*
X0115936Y0110836D01*
X0115936Y0111835D02*
X0129421Y0111835D01*
X0129421Y0112833D02*
X0115936Y0112833D01*
X0115936Y0113832D02*
X0129421Y0113832D01*
X0129421Y0114830D02*
X0115936Y0114830D01*
X0115936Y0115829D02*
X0129421Y0115829D01*
X0129421Y0116827D02*
X0115936Y0116827D01*
X0115936Y0117826D02*
X0129421Y0117826D01*
X0129421Y0118824D02*
X0115936Y0118824D01*
X0115936Y0119823D02*
X0129421Y0119823D01*
X0129421Y0120821D02*
X0115936Y0120821D01*
X0115443Y0121820D02*
X0129421Y0121820D01*
X0129421Y0122818D02*
X0114505Y0122818D01*
X0114505Y0123817D02*
X0129421Y0123817D01*
X0129421Y0124815D02*
X0114259Y0124815D01*
X0114505Y0125814D02*
X0129421Y0125814D01*
X0129421Y0126812D02*
X0114505Y0126812D01*
X0114505Y0127811D02*
X0129421Y0127811D01*
X0129421Y0128809D02*
X0114202Y0128809D01*
X0112555Y0132803D02*
X0129421Y0132803D01*
X0129421Y0131805D02*
X0111556Y0131805D01*
X0110961Y0130806D02*
X0129421Y0130806D01*
X0129421Y0129808D02*
X0110961Y0129808D01*
X0109169Y0133802D02*
X0107718Y0133802D01*
X0107718Y0134801D02*
X0110168Y0134801D01*
X0111166Y0135799D02*
X0107747Y0135799D01*
X0108745Y0136798D02*
X0112165Y0136798D01*
X0113163Y0137796D02*
X0109744Y0137796D01*
X0110742Y0138795D02*
X0114162Y0138795D01*
X0115160Y0139793D02*
X0111655Y0139793D01*
X0111655Y0140792D02*
X0116159Y0140792D01*
X0116773Y0141790D02*
X0111655Y0141790D01*
X0111655Y0142789D02*
X0116773Y0142789D01*
X0116773Y0143787D02*
X0111655Y0143787D01*
X0111655Y0144786D02*
X0116035Y0144786D01*
X0115290Y0145784D02*
X0111655Y0145784D01*
X0111655Y0146783D02*
X0114956Y0146783D01*
X0114956Y0147781D02*
X0111655Y0147781D01*
X0111655Y0148780D02*
X0115308Y0148780D01*
X0116080Y0149778D02*
X0111655Y0149778D01*
X0111655Y0150777D02*
X0129421Y0150777D01*
X0129421Y0151775D02*
X0111655Y0151775D01*
X0111655Y0152774D02*
X0129421Y0152774D01*
X0129421Y0153772D02*
X0111655Y0153772D01*
X0111655Y0154771D02*
X0129421Y0154771D01*
X0129421Y0155769D02*
X0111655Y0155769D01*
X0111655Y0156768D02*
X0129421Y0156768D01*
X0129421Y0157766D02*
X0111655Y0157766D01*
X0111655Y0158765D02*
X0129421Y0158765D01*
X0129421Y0159763D02*
X0111655Y0159763D01*
X0111655Y0160762D02*
X0129421Y0160762D01*
X0129421Y0161760D02*
X0111655Y0161760D01*
X0111655Y0162759D02*
X0129421Y0162759D01*
X0129421Y0163757D02*
X0111655Y0163757D01*
X0111655Y0164756D02*
X0129421Y0164756D01*
X0129421Y0165754D02*
X0111655Y0165754D01*
X0111655Y0166753D02*
X0129421Y0166753D01*
X0129421Y0167751D02*
X0111655Y0167751D01*
X0111655Y0168750D02*
X0129421Y0168750D01*
X0129421Y0169748D02*
X0111655Y0169748D01*
X0111655Y0170747D02*
X0129421Y0170747D01*
X0129421Y0171745D02*
X0111655Y0171745D01*
X0111655Y0172744D02*
X0129421Y0172744D01*
X0129421Y0173742D02*
X0111655Y0173742D01*
X0111655Y0174741D02*
X0129421Y0174741D01*
X0129421Y0175739D02*
X0111655Y0175739D01*
X0111655Y0176738D02*
X0129421Y0176738D01*
X0129421Y0177737D02*
X0111655Y0177737D01*
X0111655Y0178735D02*
X0129421Y0178735D01*
X0129421Y0179734D02*
X0111655Y0179734D01*
X0111655Y0180732D02*
X0129421Y0180732D01*
X0129421Y0181731D02*
X0111655Y0181731D01*
X0111655Y0182729D02*
X0129421Y0182729D01*
X0129421Y0183728D02*
X0111655Y0183728D01*
X0111655Y0184726D02*
X0129421Y0184726D01*
X0129421Y0185725D02*
X0111655Y0185725D01*
X0111655Y0186723D02*
X0129421Y0186723D01*
X0128421Y0189976D02*
X0128421Y0218468D01*
X0126833Y0220056D01*
X0126453Y0220975D01*
X0126453Y0220991D01*
X0125986Y0221458D01*
X0125453Y0222745D01*
X0125453Y0230783D01*
X0057650Y0230783D01*
X0057650Y0222745D01*
X0057117Y0221458D01*
X0056650Y0220991D01*
X0056650Y0220975D01*
X0056269Y0220056D01*
X0054681Y0218468D01*
X0054681Y0189976D01*
X0069555Y0189976D01*
X0069886Y0190775D01*
X0070674Y0191563D01*
X0071703Y0191989D01*
X0083447Y0191989D01*
X0084256Y0191654D01*
X0084912Y0191925D01*
X0090316Y0191925D01*
X0091235Y0191545D01*
X0091551Y0191228D01*
X0091867Y0191545D01*
X0092786Y0191925D01*
X0098190Y0191925D01*
X0098846Y0191654D01*
X0099656Y0191989D01*
X0110612Y0191989D01*
X0111641Y0191563D01*
X0112429Y0190775D01*
X0112760Y0189976D01*
X0128421Y0189976D01*
X0128421Y0190717D02*
X0120128Y0190717D01*
X0119874Y0190612D02*
X0120798Y0190995D01*
X0121664Y0191495D01*
X0122457Y0192103D01*
X0123164Y0192810D01*
X0123773Y0193604D01*
X0124273Y0194470D01*
X0124656Y0195393D01*
X0124914Y0196359D01*
X0125045Y0197350D01*
X0117917Y0197350D01*
X0117917Y0190223D01*
X0118909Y0190353D01*
X0119874Y0190612D01*
X0117917Y0190717D02*
X0116917Y0190717D01*
X0116917Y0190223D02*
X0116917Y0197350D01*
X0117917Y0197350D01*
X0117917Y0198350D01*
X0125045Y0198350D01*
X0124914Y0199342D01*
X0124656Y0200307D01*
X0124273Y0201231D01*
X0123773Y0202097D01*
X0123164Y0202890D01*
X0122457Y0203597D01*
X0121664Y0204206D01*
X0120798Y0204706D01*
X0119874Y0205089D01*
X0118909Y0205347D01*
X0117917Y0205478D01*
X0117917Y0198350D01*
X0116917Y0198350D01*
X0116917Y0197350D01*
X0109790Y0197350D01*
X0109920Y0196359D01*
X0110179Y0195393D01*
X0110562Y0194470D01*
X0111062Y0193604D01*
X0111670Y0192810D01*
X0112377Y0192103D01*
X0113171Y0191495D01*
X0114036Y0190995D01*
X0114960Y0190612D01*
X0115926Y0190353D01*
X0116917Y0190223D01*
X0116917Y0191716D02*
X0117917Y0191716D01*
X0117917Y0192714D02*
X0116917Y0192714D01*
X0116917Y0193713D02*
X0117917Y0193713D01*
X0117917Y0194711D02*
X0116917Y0194711D01*
X0116917Y0195710D02*
X0117917Y0195710D01*
X0117917Y0196708D02*
X0116917Y0196708D01*
X0116917Y0197707D02*
X0066185Y0197707D01*
X0066185Y0197350D02*
X0066185Y0198350D01*
X0073313Y0198350D01*
X0073182Y0199342D01*
X0072923Y0200307D01*
X0072541Y0201231D01*
X0072041Y0202097D01*
X0071432Y0202890D01*
X0070725Y0203597D01*
X0069932Y0204206D01*
X0069066Y0204706D01*
X0068142Y0205089D01*
X0067176Y0205347D01*
X0066185Y0205478D01*
X0066185Y0198350D01*
X0065185Y0198350D01*
X0065185Y0197350D01*
X0066185Y0197350D01*
X0066185Y0190223D01*
X0067176Y0190353D01*
X0068142Y0190612D01*
X0069066Y0190995D01*
X0069932Y0191495D01*
X0070725Y0192103D01*
X0071432Y0192810D01*
X0072041Y0193604D01*
X0072541Y0194470D01*
X0072923Y0195393D01*
X0073182Y0196359D01*
X0073313Y0197350D01*
X0066185Y0197350D01*
X0066185Y0196708D02*
X0065185Y0196708D01*
X0065185Y0197350D02*
X0065185Y0190223D01*
X0064194Y0190353D01*
X0063228Y0190612D01*
X0062304Y0190995D01*
X0061438Y0191495D01*
X0060645Y0192103D01*
X0059938Y0192810D01*
X0059329Y0193604D01*
X0058829Y0194470D01*
X0058447Y0195393D01*
X0058188Y0196359D01*
X0058057Y0197350D01*
X0065185Y0197350D01*
X0065185Y0197707D02*
X0054681Y0197707D01*
X0054681Y0198705D02*
X0058104Y0198705D01*
X0058057Y0198350D02*
X0065185Y0198350D01*
X0065185Y0205478D01*
X0064194Y0205347D01*
X0063228Y0205089D01*
X0062304Y0204706D01*
X0061438Y0204206D01*
X0060645Y0203597D01*
X0059938Y0202890D01*
X0059329Y0202097D01*
X0058829Y0201231D01*
X0058447Y0200307D01*
X0058188Y0199342D01*
X0058057Y0198350D01*
X0058285Y0199704D02*
X0054681Y0199704D01*
X0054681Y0200702D02*
X0058610Y0200702D01*
X0059101Y0201701D02*
X0054681Y0201701D01*
X0054681Y0202699D02*
X0059791Y0202699D01*
X0060776Y0203698D02*
X0054681Y0203698D01*
X0054681Y0204696D02*
X0062287Y0204696D01*
X0065185Y0204696D02*
X0066185Y0204696D01*
X0066185Y0203698D02*
X0065185Y0203698D01*
X0065185Y0202699D02*
X0066185Y0202699D01*
X0066185Y0201701D02*
X0065185Y0201701D01*
X0065185Y0200702D02*
X0066185Y0200702D01*
X0066185Y0199704D02*
X0065185Y0199704D01*
X0065185Y0198705D02*
X0066185Y0198705D01*
X0066185Y0195710D02*
X0065185Y0195710D01*
X0065185Y0194711D02*
X0066185Y0194711D01*
X0066185Y0193713D02*
X0065185Y0193713D01*
X0065185Y0192714D02*
X0066185Y0192714D01*
X0066185Y0191716D02*
X0065185Y0191716D01*
X0065185Y0190717D02*
X0066185Y0190717D01*
X0068396Y0190717D02*
X0069862Y0190717D01*
X0070220Y0191716D02*
X0071043Y0191716D01*
X0071336Y0192714D02*
X0111767Y0192714D01*
X0111272Y0191716D02*
X0112883Y0191716D01*
X0112453Y0190717D02*
X0114707Y0190717D01*
X0110999Y0193713D02*
X0072104Y0193713D01*
X0072641Y0194711D02*
X0110462Y0194711D01*
X0110094Y0195710D02*
X0073008Y0195710D01*
X0073228Y0196708D02*
X0109874Y0196708D01*
X0109790Y0198350D02*
X0116917Y0198350D01*
X0116917Y0205478D01*
X0115926Y0205347D01*
X0114960Y0205089D01*
X0114036Y0204706D01*
X0113171Y0204206D01*
X0112377Y0203597D01*
X0111670Y0202890D01*
X0111062Y0202097D01*
X0110562Y0201231D01*
X0110179Y0200307D01*
X0109920Y0199342D01*
X0109790Y0198350D01*
X0109836Y0198705D02*
X0073266Y0198705D01*
X0073085Y0199704D02*
X0110017Y0199704D01*
X0110343Y0200702D02*
X0072760Y0200702D01*
X0072270Y0201701D02*
X0110833Y0201701D01*
X0111524Y0202699D02*
X0071579Y0202699D01*
X0070594Y0203698D02*
X0112508Y0203698D01*
X0114020Y0204696D02*
X0069083Y0204696D01*
X0060034Y0192714D02*
X0054681Y0192714D01*
X0054681Y0191716D02*
X0061150Y0191716D01*
X0062974Y0190717D02*
X0054681Y0190717D01*
X0054681Y0193713D02*
X0059266Y0193713D01*
X0058729Y0194711D02*
X0054681Y0194711D01*
X0054681Y0195710D02*
X0058362Y0195710D01*
X0058142Y0196708D02*
X0054681Y0196708D01*
X0053681Y0186723D02*
X0070660Y0186723D01*
X0070660Y0185725D02*
X0053681Y0185725D01*
X0053681Y0184726D02*
X0070660Y0184726D01*
X0070660Y0183728D02*
X0053681Y0183728D01*
X0053681Y0182729D02*
X0070660Y0182729D01*
X0070660Y0181731D02*
X0053681Y0181731D01*
X0053681Y0180732D02*
X0070660Y0180732D01*
X0070660Y0179734D02*
X0053681Y0179734D01*
X0053681Y0178735D02*
X0070660Y0178735D01*
X0070660Y0177737D02*
X0053681Y0177737D01*
X0053681Y0176738D02*
X0070660Y0176738D01*
X0070660Y0175739D02*
X0053681Y0175739D01*
X0053681Y0174741D02*
X0070660Y0174741D01*
X0070660Y0173742D02*
X0053681Y0173742D01*
X0053681Y0172744D02*
X0070660Y0172744D01*
X0070660Y0171745D02*
X0053681Y0171745D01*
X0053681Y0170747D02*
X0070660Y0170747D01*
X0070660Y0169748D02*
X0053681Y0169748D01*
X0053681Y0168750D02*
X0070660Y0168750D01*
X0070660Y0167751D02*
X0053681Y0167751D01*
X0053681Y0166753D02*
X0070660Y0166753D01*
X0070660Y0165754D02*
X0053681Y0165754D01*
X0053681Y0164756D02*
X0070660Y0164756D01*
X0070660Y0163757D02*
X0053681Y0163757D01*
X0053681Y0162759D02*
X0070660Y0162759D01*
X0070660Y0161760D02*
X0053681Y0161760D01*
X0053681Y0160762D02*
X0070660Y0160762D01*
X0070660Y0159763D02*
X0053681Y0159763D01*
X0053681Y0158765D02*
X0070660Y0158765D01*
X0070660Y0157766D02*
X0053681Y0157766D01*
X0053681Y0156768D02*
X0070660Y0156768D01*
X0070660Y0155769D02*
X0053681Y0155769D01*
X0053681Y0154771D02*
X0070660Y0154771D01*
X0070660Y0153772D02*
X0053681Y0153772D01*
X0053681Y0152774D02*
X0070660Y0152774D01*
X0070660Y0151775D02*
X0053681Y0151775D01*
X0053681Y0150777D02*
X0070660Y0150777D01*
X0070660Y0149778D02*
X0070566Y0149778D01*
X0066080Y0149778D02*
X0053681Y0149778D01*
X0053681Y0148780D02*
X0065308Y0148780D01*
X0064956Y0147781D02*
X0053681Y0147781D01*
X0053681Y0146783D02*
X0064956Y0146783D01*
X0065290Y0145784D02*
X0053681Y0145784D01*
X0053681Y0144786D02*
X0066035Y0144786D01*
X0070610Y0144786D02*
X0070660Y0144786D01*
X0070660Y0143787D02*
X0053681Y0143787D01*
X0053681Y0142789D02*
X0070660Y0142789D01*
X0070660Y0141790D02*
X0053681Y0141790D01*
X0053681Y0140792D02*
X0070660Y0140792D01*
X0070660Y0139793D02*
X0053681Y0139793D01*
X0053681Y0138795D02*
X0070660Y0138795D01*
X0070660Y0137796D02*
X0053681Y0137796D01*
X0053681Y0136798D02*
X0070660Y0136798D01*
X0070660Y0135799D02*
X0053681Y0135799D01*
X0053681Y0134801D02*
X0070660Y0134801D01*
X0070660Y0133802D02*
X0053681Y0133802D01*
X0053681Y0132803D02*
X0070660Y0132803D01*
X0070660Y0131805D02*
X0053681Y0131805D01*
X0053681Y0130806D02*
X0070660Y0130806D01*
X0070660Y0129808D02*
X0053681Y0129808D01*
X0053681Y0128809D02*
X0070660Y0128809D01*
X0070660Y0127811D02*
X0053681Y0127811D01*
X0053681Y0126812D02*
X0070660Y0126812D01*
X0070660Y0125814D02*
X0053681Y0125814D01*
X0053681Y0124815D02*
X0070660Y0124815D01*
X0070660Y0123817D02*
X0053681Y0123817D01*
X0053681Y0122818D02*
X0070660Y0122818D01*
X0070660Y0121820D02*
X0053681Y0121820D01*
X0053681Y0120821D02*
X0070660Y0120821D01*
X0070660Y0119823D02*
X0053681Y0119823D01*
X0053681Y0118824D02*
X0062625Y0118824D01*
X0062392Y0117826D02*
X0053681Y0117826D01*
X0053681Y0116827D02*
X0062392Y0116827D01*
X0062392Y0115829D02*
X0053681Y0115829D01*
X0053681Y0114830D02*
X0062392Y0114830D01*
X0062392Y0113832D02*
X0053681Y0113832D01*
X0053681Y0112833D02*
X0062392Y0112833D01*
X0062392Y0111835D02*
X0053681Y0111835D01*
X0053681Y0110836D02*
X0062392Y0110836D01*
X0062392Y0109838D02*
X0053681Y0109838D01*
X0053681Y0108839D02*
X0062392Y0108839D01*
X0062392Y0107841D02*
X0053681Y0107841D01*
X0053681Y0106842D02*
X0062392Y0106842D01*
X0062392Y0105844D02*
X0053681Y0105844D01*
X0053681Y0104845D02*
X0062392Y0104845D01*
X0062392Y0103847D02*
X0053681Y0103847D01*
X0053681Y0102848D02*
X0062392Y0102848D01*
X0062392Y0101850D02*
X0053681Y0101850D01*
X0053681Y0100851D02*
X0062392Y0100851D01*
X0062392Y0099853D02*
X0053681Y0099853D01*
X0053681Y0098854D02*
X0062392Y0098854D01*
X0062392Y0097856D02*
X0053681Y0097856D01*
X0053681Y0096857D02*
X0062392Y0096857D01*
X0062934Y0095859D02*
X0053681Y0095859D01*
X0101419Y0072893D02*
X0109717Y0072893D01*
X0104274Y0093545D02*
X0102550Y0093545D01*
X0102550Y0094582D01*
X0104098Y0094582D01*
X0104859Y0095343D01*
X0104859Y0098783D01*
X0104098Y0099544D01*
X0103830Y0099544D01*
X0103830Y0099826D01*
X0104072Y0100068D01*
X0104072Y0102403D01*
X0104792Y0102403D01*
X0104943Y0102554D01*
X0106238Y0102554D01*
X0106487Y0102306D01*
X0106487Y0095757D01*
X0104274Y0093545D01*
X0104591Y0093862D02*
X0102550Y0093862D01*
X0104376Y0094860D02*
X0105589Y0094860D01*
X0104859Y0095859D02*
X0106487Y0095859D01*
X0106487Y0096857D02*
X0104859Y0096857D01*
X0104859Y0097856D02*
X0106487Y0097856D01*
X0106487Y0098854D02*
X0104787Y0098854D01*
X0103856Y0099853D02*
X0106487Y0099853D01*
X0106487Y0100851D02*
X0104072Y0100851D01*
X0104072Y0101850D02*
X0106487Y0101850D01*
X0107883Y0109833D02*
X0107641Y0110076D01*
X0105700Y0110076D01*
X0105700Y0110751D01*
X0106040Y0111091D01*
X0106040Y0114531D01*
X0105798Y0114773D01*
X0105798Y0116235D01*
X0106460Y0116235D01*
X0106590Y0116365D01*
X0106590Y0114621D01*
X0107928Y0113283D01*
X0108613Y0113283D01*
X0108916Y0112980D01*
X0109820Y0112980D01*
X0110304Y0112495D01*
X0112836Y0112495D01*
X0112836Y0110666D01*
X0109517Y0110666D01*
X0108755Y0109905D01*
X0108755Y0109833D01*
X0107883Y0109833D01*
X0107879Y0109838D02*
X0108755Y0109838D01*
X0109966Y0112833D02*
X0106040Y0112833D01*
X0106040Y0111835D02*
X0112836Y0111835D01*
X0112836Y0110836D02*
X0105785Y0110836D01*
X0106040Y0113832D02*
X0107379Y0113832D01*
X0106590Y0114830D02*
X0105798Y0114830D01*
X0105798Y0115829D02*
X0106590Y0115829D01*
X0108874Y0115567D02*
X0109661Y0114780D01*
X0112024Y0114780D01*
X0113553Y0133802D02*
X0129421Y0133802D01*
X0129421Y0134801D02*
X0114552Y0134801D01*
X0115550Y0135799D02*
X0129421Y0135799D01*
X0129421Y0136798D02*
X0116549Y0136798D01*
X0117547Y0137796D02*
X0129421Y0137796D01*
X0129421Y0138795D02*
X0118546Y0138795D01*
X0119544Y0139793D02*
X0129421Y0139793D01*
X0129421Y0140792D02*
X0119873Y0140792D01*
X0119873Y0141790D02*
X0129421Y0141790D01*
X0129421Y0142789D02*
X0119873Y0142789D01*
X0119873Y0143787D02*
X0129421Y0143787D01*
X0129421Y0144786D02*
X0120610Y0144786D01*
X0121356Y0145784D02*
X0129421Y0145784D01*
X0129421Y0146783D02*
X0121690Y0146783D01*
X0121690Y0147781D02*
X0129421Y0147781D01*
X0129421Y0148780D02*
X0121338Y0148780D01*
X0120566Y0149778D02*
X0129421Y0149778D01*
X0128421Y0191716D02*
X0121952Y0191716D01*
X0123068Y0192714D02*
X0128421Y0192714D01*
X0128421Y0193713D02*
X0123836Y0193713D01*
X0124373Y0194711D02*
X0128421Y0194711D01*
X0128421Y0195710D02*
X0124740Y0195710D01*
X0124960Y0196708D02*
X0128421Y0196708D01*
X0128421Y0197707D02*
X0117917Y0197707D01*
X0117917Y0198705D02*
X0116917Y0198705D01*
X0116917Y0199704D02*
X0117917Y0199704D01*
X0117917Y0200702D02*
X0116917Y0200702D01*
X0116917Y0201701D02*
X0117917Y0201701D01*
X0117917Y0202699D02*
X0116917Y0202699D01*
X0116917Y0203698D02*
X0117917Y0203698D01*
X0117917Y0204696D02*
X0116917Y0204696D01*
X0120815Y0204696D02*
X0128421Y0204696D01*
X0128421Y0203698D02*
X0122326Y0203698D01*
X0123311Y0202699D02*
X0128421Y0202699D01*
X0128421Y0201701D02*
X0124002Y0201701D01*
X0124492Y0200702D02*
X0128421Y0200702D01*
X0128421Y0199704D02*
X0124817Y0199704D01*
X0124998Y0198705D02*
X0128421Y0198705D01*
X0128421Y0205695D02*
X0054681Y0205695D01*
X0054681Y0206693D02*
X0128421Y0206693D01*
X0128421Y0207692D02*
X0054681Y0207692D01*
X0054681Y0208690D02*
X0128421Y0208690D01*
X0128421Y0209689D02*
X0054681Y0209689D01*
X0054681Y0210687D02*
X0128421Y0210687D01*
X0128421Y0211686D02*
X0054681Y0211686D01*
X0054681Y0212684D02*
X0128421Y0212684D01*
X0128421Y0213683D02*
X0054681Y0213683D01*
X0054681Y0214681D02*
X0128421Y0214681D01*
X0128421Y0215680D02*
X0054681Y0215680D01*
X0054681Y0216678D02*
X0128421Y0216678D01*
X0128421Y0217677D02*
X0054681Y0217677D01*
X0054888Y0218675D02*
X0128214Y0218675D01*
X0127216Y0219674D02*
X0055887Y0219674D01*
X0056524Y0220672D02*
X0126578Y0220672D01*
X0125898Y0221671D02*
X0057205Y0221671D01*
X0057618Y0222670D02*
X0125484Y0222670D01*
X0125453Y0223668D02*
X0057650Y0223668D01*
X0057650Y0224667D02*
X0125453Y0224667D01*
X0125453Y0225665D02*
X0057650Y0225665D01*
X0057650Y0226664D02*
X0125453Y0226664D01*
X0125453Y0227662D02*
X0057650Y0227662D01*
X0057650Y0228661D02*
X0125453Y0228661D01*
X0125453Y0229659D02*
X0057650Y0229659D01*
X0057650Y0230658D02*
X0125453Y0230658D01*
X0098996Y0191716D02*
X0098696Y0191716D01*
X0092280Y0191716D02*
X0090822Y0191716D01*
X0084406Y0191716D02*
X0084107Y0191716D01*
D39*
X0118323Y0147260D02*
X0118323Y0140764D01*
X0108480Y0130921D01*
X0108480Y0126984D02*
X0105331Y0126984D01*
X0101787Y0130528D01*
X0108480Y0126984D02*
X0112024Y0126984D01*
X0112024Y0123047D02*
X0114386Y0120685D01*
X0114386Y0107693D01*
X0113008Y0106315D01*
X0105921Y0106315D01*
X0105921Y0108283D02*
X0111138Y0108283D01*
X0111236Y0108382D01*
X0113205Y0104937D02*
X0108874Y0104937D01*
X0108874Y0103666D01*
X0109137Y0103403D01*
X0109137Y0097850D01*
X0118323Y0097850D01*
X0118323Y0099819D01*
X0113205Y0104937D01*
X0113451Y0104690D02*
X0108874Y0104690D01*
X0108874Y0104192D02*
X0113950Y0104192D01*
X0114448Y0103693D02*
X0108874Y0103693D01*
X0109137Y0103195D02*
X0114947Y0103195D01*
X0115445Y0102696D02*
X0109137Y0102696D01*
X0109137Y0102198D02*
X0115944Y0102198D01*
X0116442Y0101699D02*
X0109137Y0101699D01*
X0109137Y0101201D02*
X0116941Y0101201D01*
X0117439Y0100702D02*
X0109137Y0100702D01*
X0109137Y0100204D02*
X0117938Y0100204D01*
X0118323Y0099705D02*
X0109137Y0099705D01*
X0109137Y0099207D02*
X0118323Y0099207D01*
X0118323Y0098708D02*
X0109137Y0098708D01*
X0109137Y0098210D02*
X0118323Y0098210D01*
X0112024Y0118717D02*
X0108874Y0118717D01*
X0104937Y0118717D02*
X0104937Y0121866D01*
X0104937Y0118717D02*
X0104248Y0118028D01*
X0104248Y0112811D01*
X0102906Y0112667D02*
X0101850Y0112667D01*
X0101850Y0113165D02*
X0102906Y0113165D01*
X0102906Y0113664D02*
X0101850Y0113664D01*
X0101850Y0113992D02*
X0102906Y0113992D01*
X0102906Y0111278D01*
X0103404Y0110780D01*
X0103890Y0110780D01*
X0103890Y0109408D01*
X0104030Y0109268D01*
X0103890Y0109128D01*
X0103890Y0107439D01*
X0104030Y0107299D01*
X0103890Y0107159D01*
X0103890Y0105471D01*
X0104030Y0105331D01*
X0103890Y0105191D01*
X0103890Y0103953D01*
X0101787Y0103953D01*
X0101787Y0104030D01*
X0102047Y0104290D01*
X0102047Y0106372D01*
X0101787Y0106631D01*
X0101787Y0106906D01*
X0093126Y0106906D01*
X0090370Y0104150D01*
X0084071Y0104150D01*
X0084071Y0110449D01*
X0090370Y0110449D01*
X0093126Y0107693D01*
X0101787Y0107693D01*
X0101787Y0107967D01*
X0102047Y0108227D01*
X0102047Y0110309D01*
X0101787Y0110568D01*
X0101787Y0111018D01*
X0101850Y0111081D01*
X0101850Y0113992D01*
X0101850Y0112168D02*
X0102906Y0112168D01*
X0102906Y0111670D02*
X0101850Y0111670D01*
X0101850Y0111171D02*
X0103013Y0111171D01*
X0103890Y0110672D02*
X0101787Y0110672D01*
X0102047Y0110174D02*
X0103890Y0110174D01*
X0103890Y0109675D02*
X0102047Y0109675D01*
X0102047Y0109177D02*
X0103939Y0109177D01*
X0103890Y0108678D02*
X0102047Y0108678D01*
X0102000Y0108180D02*
X0103890Y0108180D01*
X0103890Y0107681D02*
X0084071Y0107681D01*
X0084071Y0107183D02*
X0103914Y0107183D01*
X0103890Y0106684D02*
X0101787Y0106684D01*
X0102047Y0106186D02*
X0103890Y0106186D01*
X0103890Y0105687D02*
X0102047Y0105687D01*
X0102047Y0105189D02*
X0103890Y0105189D01*
X0103890Y0104690D02*
X0102047Y0104690D01*
X0101949Y0104192D02*
X0103890Y0104192D01*
X0102280Y0101787D02*
X0102280Y0097358D01*
X0102575Y0097063D01*
X0100841Y0097213D02*
X0087344Y0097213D01*
X0086846Y0097711D02*
X0100841Y0097711D01*
X0100841Y0098210D02*
X0084071Y0098210D01*
X0084071Y0098207D02*
X0084071Y0102575D01*
X0090567Y0102575D01*
X0090567Y0101787D01*
X0093126Y0099228D01*
X0094701Y0099228D01*
X0097850Y0102378D01*
X0097850Y0102969D01*
X0101000Y0102969D01*
X0101000Y0098714D01*
X0100841Y0098555D01*
X0100841Y0095571D01*
X0101000Y0095412D01*
X0101000Y0091157D01*
X0100213Y0090370D01*
X0091551Y0090370D01*
X0091551Y0092732D01*
X0091120Y0093163D01*
X0096193Y0093163D01*
X0096632Y0093603D01*
X0096632Y0094224D01*
X0096193Y0094663D01*
X0089893Y0094663D01*
X0086789Y0097767D01*
X0086350Y0098207D01*
X0084071Y0098207D01*
X0084071Y0098708D02*
X0100994Y0098708D01*
X0101000Y0099207D02*
X0084071Y0099207D01*
X0084071Y0099705D02*
X0092649Y0099705D01*
X0092151Y0100204D02*
X0084071Y0100204D01*
X0084071Y0100702D02*
X0091652Y0100702D01*
X0091154Y0101201D02*
X0084071Y0101201D01*
X0084071Y0101699D02*
X0090655Y0101699D01*
X0090567Y0102198D02*
X0084071Y0102198D01*
X0084071Y0104192D02*
X0090412Y0104192D01*
X0090911Y0104690D02*
X0084071Y0104690D01*
X0084071Y0105189D02*
X0091409Y0105189D01*
X0091908Y0105687D02*
X0084071Y0105687D01*
X0084071Y0106186D02*
X0092406Y0106186D01*
X0092905Y0106684D02*
X0084071Y0106684D01*
X0084071Y0108180D02*
X0092639Y0108180D01*
X0092140Y0108678D02*
X0084071Y0108678D01*
X0084071Y0109177D02*
X0091642Y0109177D01*
X0091143Y0109675D02*
X0084071Y0109675D01*
X0084071Y0110174D02*
X0090645Y0110174D01*
X0091551Y0110843D02*
X0091551Y0112417D01*
X0093520Y0114386D01*
X0094307Y0114386D01*
X0096276Y0112417D01*
X0096276Y0111236D01*
X0097850Y0109661D01*
X0100687Y0109661D01*
X0100687Y0108874D01*
X0093520Y0108874D01*
X0091551Y0110843D01*
X0091721Y0110672D02*
X0096839Y0110672D01*
X0097338Y0110174D02*
X0092220Y0110174D01*
X0092718Y0109675D02*
X0097836Y0109675D01*
X0096341Y0111171D02*
X0091551Y0111171D01*
X0091551Y0111670D02*
X0096276Y0111670D01*
X0096276Y0112168D02*
X0091551Y0112168D01*
X0091800Y0112667D02*
X0096026Y0112667D01*
X0095528Y0113165D02*
X0092299Y0113165D01*
X0092797Y0113664D02*
X0095029Y0113664D01*
X0094531Y0114162D02*
X0093296Y0114162D01*
X0093217Y0109177D02*
X0100687Y0109177D01*
X0100687Y0105806D02*
X0100687Y0104937D01*
X0097457Y0104937D01*
X0096276Y0103756D01*
X0096276Y0102217D01*
X0094287Y0100228D01*
X0093540Y0100228D01*
X0091567Y0102202D01*
X0091567Y0102989D01*
X0091551Y0103005D01*
X0091551Y0103756D01*
X0093601Y0105806D01*
X0100687Y0105806D01*
X0100687Y0105687D02*
X0093483Y0105687D01*
X0092984Y0105189D02*
X0100687Y0105189D01*
X0101000Y0102696D02*
X0097850Y0102696D01*
X0097670Y0102198D02*
X0101000Y0102198D01*
X0101000Y0101699D02*
X0097172Y0101699D01*
X0096673Y0101201D02*
X0101000Y0101201D01*
X0101000Y0100702D02*
X0096175Y0100702D01*
X0095676Y0100204D02*
X0101000Y0100204D01*
X0101000Y0099705D02*
X0095178Y0099705D01*
X0094761Y0100702D02*
X0093066Y0100702D01*
X0092568Y0101201D02*
X0095259Y0101201D01*
X0095758Y0101699D02*
X0092069Y0101699D01*
X0091571Y0102198D02*
X0096256Y0102198D01*
X0096276Y0102696D02*
X0091567Y0102696D01*
X0091551Y0103195D02*
X0096276Y0103195D01*
X0096276Y0103693D02*
X0091551Y0103693D01*
X0091987Y0104192D02*
X0096712Y0104192D01*
X0097210Y0104690D02*
X0092486Y0104690D01*
X0087843Y0096714D02*
X0100841Y0096714D01*
X0100841Y0096216D02*
X0088341Y0096216D01*
X0088840Y0095717D02*
X0100841Y0095717D01*
X0101000Y0095219D02*
X0089338Y0095219D01*
X0089837Y0094720D02*
X0101000Y0094720D01*
X0101000Y0094222D02*
X0096632Y0094222D01*
X0096632Y0093723D02*
X0101000Y0093723D01*
X0101000Y0093225D02*
X0096254Y0093225D01*
X0091551Y0092726D02*
X0101000Y0092726D01*
X0101000Y0092228D02*
X0091551Y0092228D01*
X0091551Y0091729D02*
X0101000Y0091729D01*
X0101000Y0091231D02*
X0091551Y0091231D01*
X0091551Y0090732D02*
X0100575Y0090732D01*
X0089583Y0091453D02*
X0089583Y0091945D01*
X0085646Y0095882D01*
X0079740Y0095882D01*
X0078953Y0095094D01*
X0078953Y0078165D01*
X0076591Y0075803D01*
X0076591Y0071079D01*
X0077378Y0070291D01*
X0073441Y0070291D02*
X0073441Y0074228D01*
X0073441Y0078165D02*
X0073441Y0082102D01*
X0069504Y0078165D02*
X0069504Y0074228D01*
X0063205Y0074228D01*
X0063205Y0070291D02*
X0073441Y0070291D01*
X0073441Y0066354D01*
X0073441Y0062417D02*
X0073441Y0058480D01*
X0069504Y0062417D02*
X0069504Y0066354D01*
X0063205Y0066354D01*
X0081315Y0086827D02*
X0081315Y0089976D01*
X0081315Y0093913D02*
X0084563Y0093913D01*
X0087024Y0091453D01*
X0080921Y0098244D02*
X0080921Y0104543D01*
X0066748Y0104543D01*
X0066748Y0100606D01*
X0069110Y0100606D01*
X0071472Y0098244D01*
X0080921Y0098244D01*
X0080921Y0098708D02*
X0071008Y0098708D01*
X0070510Y0099207D02*
X0080921Y0099207D01*
X0080921Y0099705D02*
X0070011Y0099705D01*
X0069513Y0100204D02*
X0080921Y0100204D01*
X0080921Y0100702D02*
X0066748Y0100702D01*
X0066748Y0101201D02*
X0080921Y0101201D01*
X0080921Y0101699D02*
X0066748Y0101699D01*
X0066748Y0102198D02*
X0080921Y0102198D01*
X0080921Y0102696D02*
X0066748Y0102696D01*
X0066748Y0103195D02*
X0080921Y0103195D01*
X0080921Y0103693D02*
X0066748Y0103693D01*
X0066748Y0104192D02*
X0080921Y0104192D01*
X0080921Y0110055D02*
X0066748Y0110055D01*
X0066748Y0113992D01*
X0069110Y0113992D01*
X0071472Y0116354D01*
X0080921Y0116354D01*
X0080921Y0110055D01*
X0080921Y0110174D02*
X0066748Y0110174D01*
X0066748Y0110672D02*
X0080921Y0110672D01*
X0080921Y0111171D02*
X0066748Y0111171D01*
X0066748Y0111670D02*
X0080921Y0111670D01*
X0080921Y0112168D02*
X0066748Y0112168D01*
X0066748Y0112667D02*
X0080921Y0112667D01*
X0080921Y0113165D02*
X0066748Y0113165D01*
X0066748Y0113664D02*
X0080921Y0113664D01*
X0080921Y0114162D02*
X0069280Y0114162D01*
X0069779Y0114661D02*
X0080921Y0114661D01*
X0080921Y0115159D02*
X0070277Y0115159D01*
X0070776Y0115658D02*
X0080921Y0115658D01*
X0080921Y0116156D02*
X0071274Y0116156D01*
X0107693Y0073835D02*
X0107693Y0065961D01*
X0109268Y0065961D01*
X0109268Y0073835D01*
X0107693Y0073835D01*
X0107693Y0073783D02*
X0109268Y0073783D01*
X0109268Y0073284D02*
X0107693Y0073284D01*
X0107693Y0072786D02*
X0109268Y0072786D01*
X0109268Y0072287D02*
X0107693Y0072287D01*
X0107693Y0071789D02*
X0109268Y0071789D01*
X0109268Y0071290D02*
X0107693Y0071290D01*
X0107693Y0070792D02*
X0109268Y0070792D01*
X0109268Y0070293D02*
X0107693Y0070293D01*
X0107693Y0069795D02*
X0109268Y0069795D01*
X0109268Y0069296D02*
X0107693Y0069296D01*
X0107693Y0068798D02*
X0109268Y0068798D01*
X0109268Y0068299D02*
X0107693Y0068299D01*
X0107693Y0067801D02*
X0109268Y0067801D01*
X0109268Y0067302D02*
X0107693Y0067302D01*
X0107693Y0066803D02*
X0109268Y0066803D01*
X0109268Y0066305D02*
X0107693Y0066305D01*
D40*
X0099819Y0072260D02*
X0099031Y0071472D01*
X0099031Y0065961D01*
X0097654Y0065961D01*
X0097654Y0071079D01*
X0095882Y0072850D01*
X0095882Y0076984D01*
X0099819Y0076984D01*
X0099819Y0072260D01*
X0099782Y0072223D02*
X0096509Y0072223D01*
X0095911Y0072821D02*
X0099819Y0072821D01*
X0099819Y0073420D02*
X0095882Y0073420D01*
X0095882Y0074018D02*
X0099819Y0074018D01*
X0099819Y0074617D02*
X0095882Y0074617D01*
X0095882Y0075215D02*
X0099819Y0075215D01*
X0099819Y0075814D02*
X0095882Y0075814D01*
X0095882Y0076412D02*
X0099819Y0076412D01*
X0099183Y0071624D02*
X0097108Y0071624D01*
X0097654Y0071026D02*
X0099031Y0071026D01*
X0099031Y0070427D02*
X0097654Y0070427D01*
X0097654Y0069829D02*
X0099031Y0069829D01*
X0099031Y0069230D02*
X0097654Y0069230D01*
X0097654Y0068632D02*
X0099031Y0068632D01*
X0099031Y0068033D02*
X0097654Y0068033D01*
X0097654Y0067435D02*
X0099031Y0067435D01*
X0099031Y0066836D02*
X0097654Y0066836D01*
X0097654Y0066238D02*
X0099031Y0066238D01*
X0093520Y0073047D02*
X0086433Y0073047D01*
X0086433Y0076591D01*
X0085252Y0077772D01*
X0080134Y0077772D01*
X0080134Y0083677D01*
X0082496Y0083677D01*
X0083677Y0084858D01*
X0087614Y0084858D01*
X0087614Y0081709D01*
X0091551Y0081709D01*
X0091551Y0084858D01*
X0093520Y0084858D01*
X0093520Y0073047D01*
X0093520Y0073420D02*
X0086433Y0073420D01*
X0086433Y0074018D02*
X0093520Y0074018D01*
X0093520Y0074617D02*
X0086433Y0074617D01*
X0086433Y0075215D02*
X0093520Y0075215D01*
X0093520Y0075814D02*
X0086433Y0075814D01*
X0086433Y0076412D02*
X0093520Y0076412D01*
X0093520Y0077011D02*
X0086013Y0077011D01*
X0085414Y0077609D02*
X0093520Y0077609D01*
X0093520Y0078208D02*
X0080134Y0078208D01*
X0080134Y0078806D02*
X0093520Y0078806D01*
X0093520Y0079405D02*
X0080134Y0079405D01*
X0080134Y0080003D02*
X0093520Y0080003D01*
X0093520Y0080602D02*
X0080134Y0080602D01*
X0080134Y0081201D02*
X0093520Y0081201D01*
X0093520Y0081799D02*
X0091551Y0081799D01*
X0091551Y0082398D02*
X0093520Y0082398D01*
X0093520Y0082996D02*
X0091551Y0082996D01*
X0091551Y0083595D02*
X0093520Y0083595D01*
X0093520Y0084193D02*
X0091551Y0084193D01*
X0091551Y0084792D02*
X0093520Y0084792D01*
X0087614Y0084792D02*
X0083610Y0084792D01*
X0083012Y0084193D02*
X0087614Y0084193D01*
X0087614Y0083595D02*
X0080134Y0083595D01*
X0080134Y0082996D02*
X0087614Y0082996D01*
X0087614Y0082398D02*
X0080134Y0082398D01*
X0080134Y0081799D02*
X0087614Y0081799D01*
X0098638Y0091945D02*
X0104937Y0091945D01*
X0108087Y0095094D01*
X0108087Y0102969D01*
X0106709Y0104346D01*
X0105921Y0104346D01*
X0100637Y0111630D02*
X0097850Y0111630D01*
X0097850Y0113205D01*
X0096276Y0114780D01*
X0096276Y0121079D01*
X0092732Y0124622D01*
X0092732Y0175803D01*
X0097457Y0175803D01*
X0100213Y0178559D01*
X0100213Y0189189D01*
X0110055Y0189189D01*
X0110055Y0140370D01*
X0106118Y0136433D01*
X0106118Y0125016D01*
X0104753Y0123650D01*
X0104198Y0123650D01*
X0103153Y0122605D01*
X0103153Y0121127D01*
X0103362Y0120918D01*
X0103362Y0120438D01*
X0103153Y0120229D01*
X0103153Y0117204D01*
X0103198Y0117159D01*
X0103198Y0115796D01*
X0102544Y0115142D01*
X0101311Y0115142D01*
X0100637Y0114468D01*
X0100637Y0111630D01*
X0100637Y0111725D02*
X0097850Y0111725D01*
X0097850Y0112323D02*
X0100637Y0112323D01*
X0100637Y0112922D02*
X0097850Y0112922D01*
X0097535Y0113520D02*
X0100637Y0113520D01*
X0100637Y0114119D02*
X0096936Y0114119D01*
X0096338Y0114717D02*
X0100886Y0114717D01*
X0102717Y0115316D02*
X0096276Y0115316D01*
X0096276Y0115914D02*
X0103198Y0115914D01*
X0103198Y0116513D02*
X0096276Y0116513D01*
X0096276Y0117111D02*
X0103198Y0117111D01*
X0103153Y0117710D02*
X0096276Y0117710D01*
X0096276Y0118308D02*
X0103153Y0118308D01*
X0103153Y0118907D02*
X0096276Y0118907D01*
X0096276Y0119505D02*
X0103153Y0119505D01*
X0103153Y0120104D02*
X0096276Y0120104D01*
X0096276Y0120702D02*
X0103362Y0120702D01*
X0103153Y0121301D02*
X0096054Y0121301D01*
X0095455Y0121899D02*
X0103153Y0121899D01*
X0103153Y0122498D02*
X0094857Y0122498D01*
X0094258Y0123096D02*
X0103644Y0123096D01*
X0104797Y0123695D02*
X0093660Y0123695D01*
X0093061Y0124293D02*
X0105396Y0124293D01*
X0105994Y0124892D02*
X0092732Y0124892D01*
X0092732Y0125490D02*
X0106118Y0125490D01*
X0106118Y0126089D02*
X0092732Y0126089D01*
X0092732Y0126687D02*
X0106118Y0126687D01*
X0106118Y0127286D02*
X0092732Y0127286D01*
X0092732Y0127884D02*
X0106118Y0127884D01*
X0106118Y0128483D02*
X0092732Y0128483D01*
X0092732Y0129081D02*
X0106118Y0129081D01*
X0106118Y0129680D02*
X0092732Y0129680D01*
X0092732Y0130278D02*
X0106118Y0130278D01*
X0106118Y0130877D02*
X0092732Y0130877D01*
X0092732Y0131475D02*
X0106118Y0131475D01*
X0106118Y0132074D02*
X0092732Y0132074D01*
X0092732Y0132672D02*
X0106118Y0132672D01*
X0106118Y0133271D02*
X0092732Y0133271D01*
X0092732Y0133870D02*
X0106118Y0133870D01*
X0106118Y0134468D02*
X0092732Y0134468D01*
X0092732Y0135067D02*
X0106118Y0135067D01*
X0106118Y0135665D02*
X0092732Y0135665D01*
X0092732Y0136264D02*
X0106118Y0136264D01*
X0106547Y0136862D02*
X0092732Y0136862D01*
X0092732Y0137461D02*
X0107146Y0137461D01*
X0107744Y0138059D02*
X0092732Y0138059D01*
X0092732Y0138658D02*
X0108343Y0138658D01*
X0108941Y0139256D02*
X0092732Y0139256D01*
X0092732Y0139855D02*
X0109540Y0139855D01*
X0110055Y0140453D02*
X0092732Y0140453D01*
X0092732Y0141052D02*
X0110055Y0141052D01*
X0110055Y0141650D02*
X0092732Y0141650D01*
X0092732Y0142249D02*
X0110055Y0142249D01*
X0110055Y0142847D02*
X0092732Y0142847D01*
X0092732Y0143446D02*
X0110055Y0143446D01*
X0110055Y0144044D02*
X0092732Y0144044D01*
X0092732Y0144643D02*
X0110055Y0144643D01*
X0110055Y0145241D02*
X0092732Y0145241D01*
X0092732Y0145840D02*
X0110055Y0145840D01*
X0110055Y0146438D02*
X0092732Y0146438D01*
X0092732Y0147037D02*
X0110055Y0147037D01*
X0110055Y0147635D02*
X0092732Y0147635D01*
X0092732Y0148234D02*
X0110055Y0148234D01*
X0110055Y0148832D02*
X0092732Y0148832D01*
X0092732Y0149431D02*
X0110055Y0149431D01*
X0110055Y0150029D02*
X0092732Y0150029D01*
X0092732Y0150628D02*
X0110055Y0150628D01*
X0110055Y0151226D02*
X0092732Y0151226D01*
X0092732Y0151825D02*
X0110055Y0151825D01*
X0110055Y0152423D02*
X0092732Y0152423D01*
X0092732Y0153022D02*
X0110055Y0153022D01*
X0110055Y0153620D02*
X0092732Y0153620D01*
X0092732Y0154219D02*
X0110055Y0154219D01*
X0110055Y0154817D02*
X0092732Y0154817D01*
X0092732Y0155416D02*
X0110055Y0155416D01*
X0110055Y0156014D02*
X0092732Y0156014D01*
X0092732Y0156613D02*
X0110055Y0156613D01*
X0110055Y0157211D02*
X0092732Y0157211D01*
X0092732Y0157810D02*
X0110055Y0157810D01*
X0110055Y0158408D02*
X0092732Y0158408D01*
X0092732Y0159007D02*
X0110055Y0159007D01*
X0110055Y0159605D02*
X0092732Y0159605D01*
X0092732Y0160204D02*
X0110055Y0160204D01*
X0110055Y0160803D02*
X0092732Y0160803D01*
X0092732Y0161401D02*
X0110055Y0161401D01*
X0110055Y0162000D02*
X0092732Y0162000D01*
X0092732Y0162598D02*
X0110055Y0162598D01*
X0110055Y0163197D02*
X0092732Y0163197D01*
X0092732Y0163795D02*
X0110055Y0163795D01*
X0110055Y0164394D02*
X0092732Y0164394D01*
X0092732Y0164992D02*
X0110055Y0164992D01*
X0110055Y0165591D02*
X0092732Y0165591D01*
X0092732Y0166189D02*
X0110055Y0166189D01*
X0110055Y0166788D02*
X0092732Y0166788D01*
X0092732Y0167386D02*
X0110055Y0167386D01*
X0110055Y0167985D02*
X0092732Y0167985D01*
X0092732Y0168583D02*
X0110055Y0168583D01*
X0110055Y0169182D02*
X0092732Y0169182D01*
X0092732Y0169780D02*
X0110055Y0169780D01*
X0110055Y0170379D02*
X0092732Y0170379D01*
X0092732Y0170977D02*
X0110055Y0170977D01*
X0110055Y0171576D02*
X0092732Y0171576D01*
X0092732Y0172174D02*
X0110055Y0172174D01*
X0110055Y0172773D02*
X0092732Y0172773D01*
X0092732Y0173371D02*
X0110055Y0173371D01*
X0110055Y0173970D02*
X0092732Y0173970D01*
X0092732Y0174568D02*
X0110055Y0174568D01*
X0110055Y0175167D02*
X0092732Y0175167D01*
X0092732Y0175765D02*
X0110055Y0175765D01*
X0110055Y0176364D02*
X0098017Y0176364D01*
X0098616Y0176962D02*
X0110055Y0176962D01*
X0110055Y0177561D02*
X0099214Y0177561D01*
X0099813Y0178159D02*
X0110055Y0178159D01*
X0110055Y0178758D02*
X0100213Y0178758D01*
X0100213Y0179356D02*
X0110055Y0179356D01*
X0110055Y0179955D02*
X0100213Y0179955D01*
X0100213Y0180553D02*
X0110055Y0180553D01*
X0110055Y0181152D02*
X0100213Y0181152D01*
X0100213Y0181750D02*
X0110055Y0181750D01*
X0110055Y0182349D02*
X0100213Y0182349D01*
X0100213Y0182947D02*
X0110055Y0182947D01*
X0110055Y0183546D02*
X0100213Y0183546D01*
X0100213Y0184144D02*
X0110055Y0184144D01*
X0110055Y0184743D02*
X0100213Y0184743D01*
X0100213Y0185341D02*
X0110055Y0185341D01*
X0110055Y0185940D02*
X0100213Y0185940D01*
X0100213Y0186539D02*
X0110055Y0186539D01*
X0110055Y0187137D02*
X0100213Y0187137D01*
X0100213Y0187736D02*
X0110055Y0187736D01*
X0110055Y0188334D02*
X0100213Y0188334D01*
X0100213Y0188933D02*
X0110055Y0188933D01*
X0090370Y0175803D02*
X0090370Y0163598D01*
X0084465Y0157693D01*
X0084465Y0130528D01*
X0094307Y0120685D01*
X0094307Y0117535D01*
X0084071Y0117535D01*
X0082102Y0119504D01*
X0072260Y0119504D01*
X0072260Y0189189D01*
X0082890Y0189189D01*
X0082890Y0177772D01*
X0084858Y0175803D01*
X0090370Y0175803D01*
X0090370Y0175765D02*
X0072260Y0175765D01*
X0072260Y0175167D02*
X0090370Y0175167D01*
X0090370Y0174568D02*
X0072260Y0174568D01*
X0072260Y0173970D02*
X0090370Y0173970D01*
X0090370Y0173371D02*
X0072260Y0173371D01*
X0072260Y0172773D02*
X0090370Y0172773D01*
X0090370Y0172174D02*
X0072260Y0172174D01*
X0072260Y0171576D02*
X0090370Y0171576D01*
X0090370Y0170977D02*
X0072260Y0170977D01*
X0072260Y0170379D02*
X0090370Y0170379D01*
X0090370Y0169780D02*
X0072260Y0169780D01*
X0072260Y0169182D02*
X0090370Y0169182D01*
X0090370Y0168583D02*
X0072260Y0168583D01*
X0072260Y0167985D02*
X0090370Y0167985D01*
X0090370Y0167386D02*
X0072260Y0167386D01*
X0072260Y0166788D02*
X0090370Y0166788D01*
X0090370Y0166189D02*
X0072260Y0166189D01*
X0072260Y0165591D02*
X0090370Y0165591D01*
X0090370Y0164992D02*
X0072260Y0164992D01*
X0072260Y0164394D02*
X0090370Y0164394D01*
X0090370Y0163795D02*
X0072260Y0163795D01*
X0072260Y0163197D02*
X0089968Y0163197D01*
X0089370Y0162598D02*
X0072260Y0162598D01*
X0072260Y0162000D02*
X0088771Y0162000D01*
X0088173Y0161401D02*
X0072260Y0161401D01*
X0072260Y0160803D02*
X0087574Y0160803D01*
X0086976Y0160204D02*
X0072260Y0160204D01*
X0072260Y0159605D02*
X0086377Y0159605D01*
X0085779Y0159007D02*
X0072260Y0159007D01*
X0072260Y0158408D02*
X0085180Y0158408D01*
X0084582Y0157810D02*
X0072260Y0157810D01*
X0072260Y0157211D02*
X0084465Y0157211D01*
X0084465Y0156613D02*
X0072260Y0156613D01*
X0072260Y0156014D02*
X0084465Y0156014D01*
X0084465Y0155416D02*
X0072260Y0155416D01*
X0072260Y0154817D02*
X0084465Y0154817D01*
X0084465Y0154219D02*
X0072260Y0154219D01*
X0072260Y0153620D02*
X0084465Y0153620D01*
X0084465Y0153022D02*
X0072260Y0153022D01*
X0072260Y0152423D02*
X0084465Y0152423D01*
X0084465Y0151825D02*
X0072260Y0151825D01*
X0072260Y0151226D02*
X0084465Y0151226D01*
X0084465Y0150628D02*
X0072260Y0150628D01*
X0072260Y0150029D02*
X0084465Y0150029D01*
X0084465Y0149431D02*
X0072260Y0149431D01*
X0072260Y0148832D02*
X0084465Y0148832D01*
X0084465Y0148234D02*
X0072260Y0148234D01*
X0072260Y0147635D02*
X0084465Y0147635D01*
X0084465Y0147037D02*
X0072260Y0147037D01*
X0072260Y0146438D02*
X0084465Y0146438D01*
X0084465Y0145840D02*
X0072260Y0145840D01*
X0072260Y0145241D02*
X0084465Y0145241D01*
X0084465Y0144643D02*
X0072260Y0144643D01*
X0072260Y0144044D02*
X0084465Y0144044D01*
X0084465Y0143446D02*
X0072260Y0143446D01*
X0072260Y0142847D02*
X0084465Y0142847D01*
X0084465Y0142249D02*
X0072260Y0142249D01*
X0072260Y0141650D02*
X0084465Y0141650D01*
X0084465Y0141052D02*
X0072260Y0141052D01*
X0072260Y0140453D02*
X0084465Y0140453D01*
X0084465Y0139855D02*
X0072260Y0139855D01*
X0072260Y0139256D02*
X0084465Y0139256D01*
X0084465Y0138658D02*
X0072260Y0138658D01*
X0072260Y0138059D02*
X0084465Y0138059D01*
X0084465Y0137461D02*
X0072260Y0137461D01*
X0072260Y0136862D02*
X0084465Y0136862D01*
X0084465Y0136264D02*
X0072260Y0136264D01*
X0072260Y0135665D02*
X0084465Y0135665D01*
X0084465Y0135067D02*
X0072260Y0135067D01*
X0072260Y0134468D02*
X0084465Y0134468D01*
X0084465Y0133870D02*
X0072260Y0133870D01*
X0072260Y0133271D02*
X0084465Y0133271D01*
X0084465Y0132672D02*
X0072260Y0132672D01*
X0072260Y0132074D02*
X0084465Y0132074D01*
X0084465Y0131475D02*
X0072260Y0131475D01*
X0072260Y0130877D02*
X0084465Y0130877D01*
X0084714Y0130278D02*
X0072260Y0130278D01*
X0072260Y0129680D02*
X0085312Y0129680D01*
X0085911Y0129081D02*
X0072260Y0129081D01*
X0072260Y0128483D02*
X0086509Y0128483D01*
X0087108Y0127884D02*
X0072260Y0127884D01*
X0072260Y0127286D02*
X0087706Y0127286D01*
X0088305Y0126687D02*
X0072260Y0126687D01*
X0072260Y0126089D02*
X0088903Y0126089D01*
X0089502Y0125490D02*
X0072260Y0125490D01*
X0072260Y0124892D02*
X0090100Y0124892D01*
X0090699Y0124293D02*
X0072260Y0124293D01*
X0072260Y0123695D02*
X0091297Y0123695D01*
X0091896Y0123096D02*
X0072260Y0123096D01*
X0072260Y0122498D02*
X0092494Y0122498D01*
X0093093Y0121899D02*
X0072260Y0121899D01*
X0072260Y0121301D02*
X0093691Y0121301D01*
X0094290Y0120702D02*
X0072260Y0120702D01*
X0072260Y0120104D02*
X0094307Y0120104D01*
X0094307Y0119505D02*
X0072260Y0119505D01*
X0082700Y0118907D02*
X0094307Y0118907D01*
X0094307Y0118308D02*
X0083298Y0118308D01*
X0083897Y0117710D02*
X0094307Y0117710D01*
X0084298Y0176364D02*
X0072260Y0176364D01*
X0072260Y0176962D02*
X0083699Y0176962D01*
X0083101Y0177561D02*
X0072260Y0177561D01*
X0072260Y0178159D02*
X0082890Y0178159D01*
X0082890Y0178758D02*
X0072260Y0178758D01*
X0072260Y0179356D02*
X0082890Y0179356D01*
X0082890Y0179955D02*
X0072260Y0179955D01*
X0072260Y0180553D02*
X0082890Y0180553D01*
X0082890Y0181152D02*
X0072260Y0181152D01*
X0072260Y0181750D02*
X0082890Y0181750D01*
X0082890Y0182349D02*
X0072260Y0182349D01*
X0072260Y0182947D02*
X0082890Y0182947D01*
X0082890Y0183546D02*
X0072260Y0183546D01*
X0072260Y0184144D02*
X0082890Y0184144D01*
X0082890Y0184743D02*
X0072260Y0184743D01*
X0072260Y0185341D02*
X0082890Y0185341D01*
X0082890Y0185940D02*
X0072260Y0185940D01*
X0072260Y0186539D02*
X0082890Y0186539D01*
X0082890Y0187137D02*
X0072260Y0187137D01*
X0072260Y0187736D02*
X0082890Y0187736D01*
X0082890Y0188334D02*
X0072260Y0188334D01*
X0072260Y0188933D02*
X0082890Y0188933D01*
M02*
